<?xml version="1.0" encoding="UTF-8"?>
<svg version="1.1" xmlns="http://www.w3.org/2000/svg" width="1200" height="1200">
<path d="M0 0 C1.17369141 -0.00386719 1.17369141 -0.00386719 2.37109375 -0.0078125 C4.5625 0.125 4.5625 0.125 7.5625 1.125 C7.5625 1.785 7.5625 2.445 7.5625 3.125 C8.305 3.269375 9.0475 3.41375 9.8125 3.5625 C11.46627284 3.90077172 13.11517006 4.26711516 14.75 4.6875 C16.57576836 5.20321351 16.57576836 5.20321351 18.5625 5.125 C18.8925 6.115 19.2225 7.105 19.5625 8.125 C20.76648438 8.24617188 21.97046875 8.36734375 23.2109375 8.4921875 C24.78650766 8.66099859 26.36202592 8.83029459 27.9375 9 C29.12859375 9.11794922 29.12859375 9.11794922 30.34375 9.23828125 C36.3359375 9.8984375 36.3359375 9.8984375 38.5625 12.125 C40.17193458 12.63530852 41.80037231 13.08707462 43.4375 13.5 C47.44449296 14.64071909 50.06523171 15.60612196 52.5625 19.125 C52.5625 19.785 52.5625 20.445 52.5625 21.125 C53.51511719 21.16238281 54.46773437 21.19976562 55.44921875 21.23828125 C56.70347656 21.30402344 57.95773438 21.36976563 59.25 21.4375 C60.49136719 21.49550781 61.73273438 21.55351562 63.01171875 21.61328125 C66.65455715 22.13826676 68.53499093 23.13549404 71.5625 25.125 C73.81578412 24.91856801 73.81578412 24.91856801 75.5625 24.125 C75.8925 25.115 76.2225 26.105 76.5625 27.125 C77.490625 27.5271875 77.490625 27.5271875 78.4375 27.9375 C81.47189487 29.63319125 82.11984069 32.0429551 83.5625 35.125 C84.2225 35.455 84.8825 35.785 85.5625 36.125 C86.5625 38.45833333 87.5625 40.79166667 88.5625 43.125 C89.2225 43.455 89.8825 43.785 90.5625 44.125 C90.95560414 46.44788812 91.06999695 48.74345176 91.21875 51.09375 C91.3321875 51.7640625 91.445625 52.434375 91.5625 53.125 C92.2225 53.455 92.8825 53.785 93.5625 54.125 C93.830625 54.95 94.09875 55.775 94.375 56.625 C94.766875 57.45 95.15875 58.275 95.5625 59.125 C97.78839058 59.73232018 97.78839058 59.73232018 100.5625 60.125 C116.28458437 63.83764298 116.28458437 63.83764298 122.5625 68.125 C122.5625 68.785 122.5625 69.445 122.5625 70.125 C123.408125 70.3725 124.25375 70.62 125.125 70.875 C128.94677474 72.26473627 132.08118063 74.03620838 135.5625 76.125 C135.5625 77.115 135.5625 78.105 135.5625 79.125 C136.861875 79.00125 138.16125 78.8775 139.5 78.75 C144.59315107 78.7420295 147.30147965 80.49711307 151.30078125 83.484375 C153.54220716 85.11027981 155.77956323 86.32107449 158.25 87.5625 C162.14411792 89.65567333 164.61372323 92.06681776 167.2734375 95.57421875 C168.66698051 97.40068713 168.66698051 97.40068713 171.5625 99.125 C171.53006883 101.13573231 171.49441865 103.14670985 171.41796875 105.15625 C171.40333176 107.35049488 171.40333176 107.35049488 173.3125 109.5 C175.34605851 110.96868115 177.25984349 112.13814721 179.5625 113.125 C179.5625 113.785 179.5625 114.445 179.5625 115.125 C180.2225 115.125 180.8825 115.125 181.5625 115.125 C183.22916667 116.79166667 184.89583333 118.45833333 186.5625 120.125 C187.5525 120.455 188.5425 120.785 189.5625 121.125 C190.91618596 122.43766518 192.25049596 123.77067325 193.5625 125.125 C194.2225 125.455 194.8825 125.785 195.5625 126.125 C195.5625 126.785 195.5625 127.445 195.5625 128.125 C196.2225 128.125 196.8825 128.125 197.5625 128.125 C197.975 128.846875 198.3875 129.56875 198.8125 130.3125 C200.48291539 133.33531055 200.48291539 133.33531055 203.625 135.625 C206.64536035 138.19551945 207.18199629 139.5751333 208.5625 143.125 C210.60355639 144.01193303 210.60355639 144.01193303 212.5625 144.125 C212.5625 144.785 212.5625 145.445 212.5625 146.125 C213.8825 146.125 215.2025 146.125 216.5625 146.125 C216.5625 146.785 216.5625 147.445 216.5625 148.125 C217.5525 148.125 218.5425 148.125 219.5625 148.125 C219.5625 149.775 219.5625 151.425 219.5625 153.125 C220.2225 153.125 220.8825 153.125 221.5625 153.125 C222.58354551 154.10350195 223.5831121 155.10480427 224.5625 156.125 C225.2225 156.455 225.8825 156.785 226.5625 157.125 C226.5625 157.785 226.5625 158.445 226.5625 159.125 C227.2225 159.125 227.8825 159.125 228.5625 159.125 C228.5625 159.785 228.5625 160.445 228.5625 161.125 C229.3978125 161.49625 229.3978125 161.49625 230.25 161.875 C232.98660913 163.35424818 235.23900869 165.05967439 237.5625 167.125 C237.5625 167.785 237.5625 168.445 237.5625 169.125 C238.201875 169.228125 238.84125 169.33125 239.5 169.4375 C240.5209375 169.7778125 240.5209375 169.7778125 241.5625 170.125 C241.8925 171.115 242.2225 172.105 242.5625 173.125 C244.56266466 174.33382096 244.56266466 174.33382096 246.5625 175.125 C246.5625 175.785 246.5625 176.445 246.5625 177.125 C248.5425 177.785 250.5225 178.445 252.5625 179.125 C252.5625 179.785 252.5625 180.445 252.5625 181.125 C257.0175 182.61 257.0175 182.61 261.5625 184.125 C261.5625 184.785 261.5625 185.445 261.5625 186.125 C263.2125 186.785 264.8625 187.445 266.5625 188.125 C266.5625 188.785 266.5625 189.445 266.5625 190.125 C267.18125 190.3725 267.8 190.62 268.4375 190.875 C270.96608627 192.36240369 271.28089004 193.56178009 272.5625 196.125 C274.39534443 197.25016085 274.39534443 197.25016085 276.5625 198.125 C281.35470779 200.63520408 281.35470779 200.63520408 282.4375 203.1875 C283.49807019 205.51234631 283.49807019 205.51234631 286.875 206.1875 C288.091875 206.496875 289.30875 206.80625 290.5625 207.125 C293.5 208.625 293.5 208.625 295.5625 210.125 C295.5625 210.785 295.5625 211.445 295.5625 212.125 C296.51125 212.434375 297.46 212.74375 298.4375 213.0625 C301.5625 214.125 301.5625 214.125 303.5625 215.125 C303.5625 215.785 303.5625 216.445 303.5625 217.125 C304.7690625 217.4653125 304.7690625 217.4653125 306 217.8125 C310.47535739 219.46131588 314.44971318 221.73044412 318.5625 224.125 C318.5625 225.115 318.5625 226.105 318.5625 227.125 C320.71688853 229.01444741 320.71688853 229.01444741 323.4375 230.75 C324.34242188 231.36101562 325.24734375 231.97203125 326.1796875 232.6015625 C328.45488783 234.11494655 328.45488783 234.11494655 330.5625 235.125 C330.9765625 237.19140625 330.9765625 237.19140625 331.1875 239.6875 C331.29964844 240.92693359 331.29964844 240.92693359 331.4140625 242.19140625 C331.46304687 242.82949219 331.51203125 243.46757812 331.5625 244.125 C332.67625 244.0940625 332.67625 244.0940625 333.8125 244.0625 C336.5625 245.125 336.5625 245.125 337.71484375 247.16015625 C338.39970213 248.79089451 339.05153473 250.43593596 339.66796875 252.09375 C340.38183878 254.30063793 340.38183878 254.30063793 342.5625 255.125 C342.5625 255.785 342.5625 256.445 342.5625 257.125 C346.8525 257.125 351.1425 257.125 355.5625 257.125 C355.8925 256.465 356.2225 255.805 356.5625 255.125 C356.995625 255.62 357.42875 256.115 357.875 256.625 C359.55990483 258.45718192 359.55990483 258.45718192 362.5625 258.125 C362.2325 259.115 361.9025 260.105 361.5625 261.125 C363.5425 262.115 365.5225 263.105 367.5625 264.125 C367.5625 264.785 367.5625 265.445 367.5625 266.125 C368.531875 266.434375 369.50125 266.74375 370.5 267.0625 C373.5625 268.125 373.5625 268.125 374.5625 269.125 C374.60330783 271.12458364 374.60504356 273.12545254 374.5625 275.125 C375.490625 275.393125 376.41875 275.66125 377.375 275.9375 C382.10795455 277.70075758 382.10795455 277.70075758 383.5625 280.125 C383.80472254 282.84327521 383.69726191 285.38484115 383.5625 288.125 C382.9025 288.125 382.2425 288.125 381.5625 288.125 C381.5625 288.785 381.5625 289.445 381.5625 290.125 C382.2225 290.125 382.8825 290.125 383.5625 290.125 C383.5625 291.115 383.5625 292.105 383.5625 293.125 C384.46742188 293.28935547 384.46742188 293.28935547 385.390625 293.45703125 C389.91357546 294.35432626 392.97396404 295.13455336 396.5625 298.125 C397.738125 298.62 398.91375 299.115 400.125 299.625 C404.71769253 301.62908401 404.71769253 301.62908401 406.5625 304.125 C406.5625 304.785 406.5625 305.445 406.5625 306.125 C408.5425 306.455 410.5225 306.785 412.5625 307.125 C412.8925 308.115 413.2225 309.105 413.5625 310.125 C414.5525 310.785 415.5425 311.445 416.5625 312.125 C416.8925 313.115 417.2225 314.105 417.5625 315.125 C418.5525 315.455 419.5425 315.785 420.5625 316.125 C421.63025224 318.08966413 422.62803465 320.09355359 423.5625 322.125 C424.2225 323.115 424.8825 324.105 425.5625 325.125 C426.22916667 327.125 426.89583333 329.125 427.5625 331.125 C429.28476496 334.37349977 429.28476496 334.37349977 432.5625 335.125 C432.5625 335.785 432.5625 336.445 432.5625 337.125 C433.366875 337.393125 434.17125 337.66125 435 337.9375 C435.845625 338.329375 436.69125 338.72125 437.5625 339.125 C437.8925 340.115 438.2225 341.105 438.5625 342.125 C440.88097874 342.8416207 443.21569703 343.50742027 445.5625 344.125 C446.2225 344.785 446.8825 345.445 447.5625 346.125 C448.696875 346.434375 449.83125 346.74375 451 347.0625 C454.50065861 348.10655608 455.24703186 348.59903475 457.5625 351.125 C460.16165538 352.31527984 460.16165538 352.31527984 462.5625 353.125 C462.5625 353.785 462.5625 354.445 462.5625 355.125 C463.14773438 355.37636719 463.73296875 355.62773438 464.3359375 355.88671875 C469.56452395 358.79454665 473.92370409 364.38921433 475.5625 370.125 C475.8925 371.115 476.2225 372.105 476.5625 373.125 C479.06697516 374.34369929 479.06697516 374.34369929 481.5625 375.125 C481.5625 375.785 481.5625 376.445 481.5625 377.125 C482.6453125 377.063125 482.6453125 377.063125 483.75 377 C486.85612544 377.13805002 488.84500253 377.61527919 491.5625 379.125 C492.1875 381.1875 492.1875 381.1875 492.5625 383.125 C493.5525 383.455 494.5425 383.785 495.5625 384.125 C495.5625 384.785 495.5625 385.445 495.5625 386.125 C496.09875 386.228125 496.635 386.33125 497.1875 386.4375 C500.20748283 387.31170556 502.78688312 388.6522237 505.5625 390.125 C506.51125 390.62 507.46 391.115 508.4375 391.625 C509.13875 392.12 509.84 392.615 510.5625 393.125 C510.5625 394.115 510.5625 395.105 510.5625 396.125 C511.2225 396.125 511.8825 396.125 512.5625 396.125 C512.8925 397.115 513.2225 398.105 513.5625 399.125 C514.3875 399.5375 515.2125 399.95 516.0625 400.375 C518.5625 402.125 518.5625 402.125 519.375 405.8125 C519.4678125 407.4521875 519.4678125 407.4521875 519.5625 409.125 C520.5525 409.455 521.5425 409.785 522.5625 410.125 C522.93375 410.846875 523.305 411.56875 523.6875 412.3125 C526.10175351 415.93388027 529.01515085 417.56607603 532.69921875 419.79296875 C533.31410156 420.23253906 533.92898438 420.67210937 534.5625 421.125 C534.5625 421.785 534.5625 422.445 534.5625 423.125 C535.305 423.393125 536.0475 423.66125 536.8125 423.9375 C540.19532379 425.39826482 542.85223638 426.65712186 544.5 430.0625 C547.46539043 435.81884613 554.35781806 438.07547461 559.91796875 440.66015625 C562.5625 442.125 562.5625 442.125 564.5625 445.125 C565.5525 445.455 566.5425 445.785 567.5625 446.125 C567.5625 446.785 567.5625 447.445 567.5625 448.125 C568.51125 448.434375 569.46 448.74375 570.4375 449.0625 C573.5625 450.125 573.5625 450.125 575.5625 451.125 C575.5625 451.785 575.5625 452.445 575.5625 453.125 C577.2125 453.455 578.8625 453.785 580.5625 454.125 C580.8925 455.115 581.2225 456.105 581.5625 457.125 C582.2225 457.125 582.8825 457.125 583.5625 457.125 C583.5625 458.115 583.5625 459.105 583.5625 460.125 C584.2225 460.125 584.8825 460.125 585.5625 460.125 C585.5625 460.785 585.5625 461.445 585.5625 462.125 C586.490625 462.228125 587.41875 462.33125 588.375 462.4375 C591.79162018 463.17441808 592.43232608 463.53174479 594.5625 466.125 C597.71572697 469.52716594 600.1015697 471.72299333 604.5625 473.125 C604.5625 473.785 604.5625 474.445 604.5625 475.125 C605.8825 475.785 607.2025 476.445 608.5625 477.125 C608.5625 478.115 608.5625 479.105 608.5625 480.125 C609.2225 480.125 609.8825 480.125 610.5625 480.125 C610.2325 481.775 609.9025 483.425 609.5625 485.125 C610.2225 485.455 610.8825 485.785 611.5625 486.125 C611.8925 487.115 612.2225 488.105 612.5625 489.125 C613.87897119 489.82437532 615.21272151 490.49229133 616.5625 491.125 C616.8925 491.785 617.2225 492.445 617.5625 493.125 C618.490625 493.5890625 618.490625 493.5890625 619.4375 494.0625 C621.5625 495.125 621.5625 495.125 623 496.625 C624.9698514 498.51605734 627.04365572 499.13071936 629.5625 500.125 C629.8925 500.785 630.2225 501.445 630.5625 502.125 C632.54138961 502.85193904 634.54204558 503.52316251 636.5625 504.125 C636.5625 504.785 636.5625 505.445 636.5625 506.125 C637.5525 506.455 638.5425 506.785 639.5625 507.125 C639.5625 509.105 639.5625 511.085 639.5625 513.125 C640.5525 513.125 641.5425 513.125 642.5625 513.125 C643.2225 514.115 643.8825 515.105 644.5625 516.125 C645.5525 516.455 646.5425 516.785 647.5625 517.125 C647.8925 517.785 648.2225 518.445 648.5625 519.125 C650.44513881 520.02843684 650.44513881 520.02843684 652.625 520.75 C653.35847656 521.01039063 654.09195313 521.27078125 654.84765625 521.5390625 C655.69650391 521.82910156 655.69650391 521.82910156 656.5625 522.125 C656.5625 523.115 656.5625 524.105 656.5625 525.125 C657.573125 525.3725 658.58375 525.62 659.625 525.875 C663.71559694 527.04136165 666.98178947 528.83334526 670.5625 531.125 C670.8925 531.785 671.2225 532.445 671.5625 533.125 C673.57919827 534.25850534 673.57919827 534.25850534 675.5625 535.125 C675.5625 535.785 675.5625 536.445 675.5625 537.125 C676.18125 537.434375 676.8 537.74375 677.4375 538.0625 C678.8125 538.75 680.1875 539.4375 681.5625 540.125 C681.5625 540.785 681.5625 541.445 681.5625 542.125 C682.366875 542.393125 683.17125 542.66125 684 542.9375 C685.2684375 543.5253125 685.2684375 543.5253125 686.5625 544.125 C686.8925 545.115 687.2225 546.105 687.5625 547.125 C689.56266466 548.33382096 689.56266466 548.33382096 691.5625 549.125 C691.5625 549.785 691.5625 550.445 691.5625 551.125 C692.5525 551.125 693.5425 551.125 694.5625 551.125 C694.80871094 551.74117187 695.05492187 552.35734375 695.30859375 552.9921875 C696.81047542 555.54678996 697.9394841 556.0900131 700.625 557.25 C704.46527778 558.93055556 704.46527778 558.93055556 705.5625 561.125 C706.3875 560.980625 707.2125 560.83625 708.0625 560.6875 C712.62012057 561.25720257 714.39173188 563.1963727 717.6328125 566.30078125 C719.52967028 568.18221087 719.52967028 568.18221087 721.7890625 569.6875 C722.37429688 570.161875 722.95953125 570.63625 723.5625 571.125 C723.8125 573.8125 723.8125 573.8125 723.5625 576.125 C724.573125 576.393125 725.58375 576.66125 726.625 576.9375 C736.73620892 579.91138498 736.73620892 579.91138498 739.5625 584.0625 C740.54784255 587.08011157 740.77577838 588.2572511 739.5625 591.125 C740.26375 591.310625 740.965 591.49625 741.6875 591.6875 C745.15732995 593.42241498 746.85975491 595.55766389 749.23046875 598.56640625 C750.49899295 600.25549223 750.49899295 600.25549223 752.5625 601.125 C755.5625 606.54807692 755.5625 606.54807692 755.5625 609.125 C756.119375 609.186875 756.67625 609.24875 757.25 609.3125 C760.51863431 610.46093908 762.14965696 612.65604433 764.5625 615.125 C765.8175784 616.04277608 767.08892217 616.93869308 768.375 617.8125 C769.426875 618.575625 770.47875 619.33875 771.5625 620.125 C771.5625 620.785 771.5625 621.445 771.5625 622.125 C772.8825 622.125 774.2025 622.125 775.5625 622.125 C777.6875 625.0625 777.6875 625.0625 779.5625 628.125 C780.2225 628.455 780.8825 628.785 781.5625 629.125 C781.5625 630.115 781.5625 631.105 781.5625 632.125 C782.18125 632.228125 782.8 632.33125 783.4375 632.4375 C785.5625 633.125 785.5625 633.125 787.5625 636.125 C788.5525 636.455 789.5425 636.785 790.5625 637.125 C790.8925 638.115 791.2225 639.105 791.5625 640.125 C793.65478189 641.94630191 793.65478189 641.94630191 796.125 643.6875 C797.63952143 644.78617779 799.12867913 645.92290775 800.5625 647.125 C800.5625 647.785 800.5625 648.445 800.5625 649.125 C801.14 649.393125 801.7175 649.66125 802.3125 649.9375 C804.5625 651.125 804.5625 651.125 806.4375 652.625 C809.04182599 654.46334775 811.52357061 655.15024906 814.5625 656.125 C822.7087223 658.90179925 822.7087223 658.90179925 824.78125 661.87109375 C825.0803125 662.49113281 825.379375 663.11117187 825.6875 663.75 C827.14885659 667.12864805 827.14885659 667.12864805 829.3515625 668.01953125 C831.50813335 668.65135958 831.50813335 668.65135958 834.5625 669.125 C834.5625 669.785 834.5625 670.445 834.5625 671.125 C836.2125 671.455 837.8625 671.785 839.5625 672.125 C839.5625 673.775 839.5625 675.425 839.5625 677.125 C840.51125 677.228125 841.46 677.33125 842.4375 677.4375 C845.5625 678.125 845.5625 678.125 847.5625 681.125 C848.89326989 681.46842449 850.22681979 681.80119874 851.5625 682.125 C852.5625 683.125 853.5625 684.125 854.5625 685.125 C856.22642045 685.79849161 857.89282028 686.4659159 859.5625 687.125 C859.8925 687.785 860.2225 688.445 860.5625 689.125 C862.89994294 689.59306645 865.25989079 689.95169794 867.625 690.25 C869.56052734 690.50136719 869.56052734 690.50136719 871.53515625 690.7578125 C872.53417969 690.87898437 873.53320312 691.00015625 874.5625 691.125 C874.5625 691.785 874.5625 692.445 874.5625 693.125 C875.47 693.393125 876.3775 693.66125 877.3125 693.9375 C880.33720911 695.04268218 882.06085774 696.1882447 884.5625 698.125 C886.21047236 698.83662443 887.87415408 699.51531953 889.5625 700.125 C889.5625 700.785 889.5625 701.445 889.5625 702.125 C890.18125 702.269375 890.8 702.41375 891.4375 702.5625 C893.5625 703.125 893.5625 703.125 895.5625 704.125 C895.5625 704.785 895.5625 705.445 895.5625 706.125 C896.34625 706.434375 897.13 706.74375 897.9375 707.0625 C900.5625 708.125 900.5625 708.125 902.5625 709.125 C902.5625 709.785 902.5625 710.445 902.5625 711.125 C903.325625 711.269375 904.08875 711.41375 904.875 711.5625 C909.35765876 712.5007309 911.82506197 713.38383469 914.5625 717.125 C915.19920762 720.44944882 915.43352336 723.74581203 915.5625 727.125 C916.2225 727.125 916.8825 727.125 917.5625 727.125 C917.85125 728.094375 918.14 729.06375 918.4375 730.0625 C919.20464682 733.23164203 919.20464682 733.23164203 921.5625 734.125 C921.7578125 740.1796875 921.7578125 740.1796875 921.5625 742.125 C920.9025 742.785 920.2425 743.445 919.5625 744.125 C919.2325 745.300625 918.9025 746.47625 918.5625 747.6875 C918.2325 748.821875 917.9025 749.95625 917.5625 751.125 C916.9025 751.455 916.2425 751.785 915.5625 752.125 C915.5625 755.095 915.5625 758.065 915.5625 761.125 C916.2225 761.125 916.8825 761.125 917.5625 761.125 C919.15676279 766.00742978 919.76237373 769.92828303 919.5625 775.125 C919.5625 776.115 919.5625 777.105 919.5625 778.125 C920.2225 778.785 920.8825 779.445 921.5625 780.125 C921.5625 781.115 921.5625 782.105 921.5625 783.125 C920.9025 783.125 920.2425 783.125 919.5625 783.125 C919.58570313 783.70507812 919.60890625 784.28515625 919.6328125 784.8828125 C919.74500423 789.73911166 919.43764915 793.55432395 917.5625 798.125 C916.9025 798.125 916.2425 798.125 915.5625 798.125 C915.53671875 798.89585937 915.5109375 799.66671875 915.484375 800.4609375 C915.42765625 801.46382812 915.3709375 802.46671875 915.3125 803.5 C915.24289062 804.99660156 915.24289062 804.99660156 915.171875 806.5234375 C914.5625 809.125 914.5625 809.125 912.6875 810.46875 C910.21936678 811.23096761 908.13130636 811.26771146 905.5625 811.125 C905.5625 811.785 905.5625 812.445 905.5625 813.125 C904.2425 813.125 902.9225 813.125 901.5625 813.125 C901.2325 814.115 900.9025 815.105 900.5625 816.125 C897.9225 816.125 895.2825 816.125 892.5625 816.125 C892.5625 816.785 892.5625 817.445 892.5625 818.125 C888.4428623 819.41743536 884.89418317 820.38752625 880.5625 820.125 C880.5625 820.785 880.5625 821.445 880.5625 822.125 C876.24456425 823.71424024 872.10209549 825.19498312 867.5 825.625 C864.30873627 826.03023984 862.42365589 826.48838008 859.5625 827.6875 C855.41793422 829.38150903 852.00951224 829.3632328 847.5625 829.125 C847.5625 830.115 847.5625 831.105 847.5625 832.125 C844.2625 831.795 840.9625 831.465 837.5625 831.125 C837.5625 830.465 837.5625 829.805 837.5625 829.125 C836.1084375 829.2178125 836.1084375 829.2178125 834.625 829.3125 C829.3105923 829.33419146 824.2796237 827.48356185 819.5625 825.125 C819.5625 826.115 819.5625 827.105 819.5625 828.125 C813.10357286 828.52868295 808.50141422 827.7165262 802.5625 825.125 C802.5625 825.785 802.5625 826.445 802.5625 827.125 C800.2525 826.795 797.9425 826.465 795.5625 826.125 C795.5625 826.785 795.5625 827.445 795.5625 828.125 C791.44871125 828.98602555 788.6313882 828.97662776 784.5625 828.125 C781.56059348 828.03372582 778.56489631 828.06612948 775.5625 828.125 C775.5625 828.785 775.5625 829.445 775.5625 830.125 C771.36253417 832.42820707 768.21031486 832.08355303 763.6484375 831.4140625 C759.50349364 830.83966953 755.67106779 831.50483882 751.5625 832.125 C751.2325 831.135 750.9025 830.145 750.5625 829.125 C746.9325 829.455 743.3025 829.785 739.5625 830.125 C739.5625 830.785 739.5625 831.445 739.5625 832.125 C737.5 833 737.5 833 734.5625 833.125 C731.91461313 831.44545192 729.6322273 829.48102963 727.5625 827.125 C727.5625 826.465 727.5625 825.805 727.5625 825.125 C722.85262419 825.09987551 718.14278921 825.08194412 713.43286133 825.07006836 C711.83780231 825.06510631 710.24274768 825.05833452 708.64770508 825.04956055 C693.06257219 824.8163084 693.06257219 824.8163084 677.5625 826.125 C676.9025 826.785 676.2425 827.445 675.5625 828.125 C672.99633789 828.36791992 672.99633789 828.36791992 669.78515625 828.35546875 C668.63208984 828.35353516 667.47902344 828.35160156 666.29101562 828.34960938 C665.08123047 828.33736328 663.87144531 828.32511719 662.625 828.3125 C661.41908203 828.31185547 660.21316406 828.31121094 658.97070312 828.31054688 C649.98365753 828.26538584 649.98365753 828.26538584 646.5625 827.125 C646.5625 827.785 646.5625 828.445 646.5625 829.125 C642.39025986 829.3913132 639.35419475 829.17888469 635.4375 827.6875 C625.9649498 824.31240648 615.49819516 825.00899304 605.56665039 825.16137695 C602.28845142 825.19976672 599.69763444 825.17004481 596.5625 824.125 C596.2325 825.115 595.9025 826.105 595.5625 827.125 C594.5725 827.125 593.5825 827.125 592.5625 827.125 C592.2325 827.455 591.9025 827.785 591.5625 828.125 C584.50464105 828.51455715 577.55610519 828.05748069 570.5625 827.125 C570.5625 827.785 570.5625 828.445 570.5625 829.125 C565.991221 828.57644652 561.88814205 827.70755197 557.5625 826.125 C557.2325 826.455 556.9025 826.785 556.5625 827.125 C555.02353326 827.27033749 553.47846206 827.35218033 551.93359375 827.40625 C550.98033203 827.44363281 550.02707031 827.48101563 549.04492188 827.51953125 C548.04009766 827.55433594 547.03527344 827.58914063 546 827.625 C538.16227636 827.86744288 538.16227636 827.86744288 530.375 828.7109375 C526.09506717 829.17576627 522.36068583 828.85791763 518.125 828.25 C517.40634766 828.15847656 516.68769531 828.06695313 515.94726562 827.97265625 C510.70757225 827.27007225 510.70757225 827.27007225 509.5625 826.125 C507.23089945 826.02590698 504.89620058 825.99529496 502.5625 826 C501.28375 825.99742187 500.005 825.99484375 498.6875 825.9921875 C495.69562756 825.76639107 495.69562756 825.76639107 494.5625 827.125 C486.18082061 827.53721374 486.18082061 827.53721374 482.5625 825.125 C482.5625 825.785 482.5625 826.445 482.5625 827.125 C479.89583333 826.45833333 477.22916667 825.79166667 474.5625 825.125 C474.5625 825.785 474.5625 826.445 474.5625 827.125 C469.14420067 829.83414967 460.29875864 828.39972414 454.5625 827.125 C454.5625 826.465 454.5625 825.805 454.5625 825.125 C450.76702079 826.09276098 450.76702079 826.09276098 447.5625 828.125 C445.87108344 828.03536938 444.18290398 827.87922324 442.5 827.6875 C441.12134766 827.53474609 441.12134766 827.53474609 439.71484375 827.37890625 C439.00457031 827.29511719 438.29429687 827.21132812 437.5625 827.125 C437.5625 826.465 437.5625 825.805 437.5625 825.125 C432.9425 825.125 428.3225 825.125 423.5625 825.125 C423.5625 825.785 423.5625 826.445 423.5625 827.125 C417.99483913 829.48054883 412.86887263 829.39032878 406.9375 829.3125 C405.99648438 829.31185547 405.05546875 829.31121094 404.0859375 829.31054688 C400.044606 829.2847145 396.4750021 829.17161187 392.5625 828.125 C390.31542759 827.9051777 388.06478762 827.72016013 385.8125 827.5625 C384.64203125 827.47871094 383.4715625 827.39492187 382.265625 827.30859375 C381.37359375 827.24800781 380.4815625 827.18742187 379.5625 827.125 C379.5625 826.465 379.5625 825.805 379.5625 825.125 C375.9325 825.125 372.3025 825.125 368.5625 825.125 C368.2325 825.785 367.9025 826.445 367.5625 827.125 C365.97955218 827.17937607 364.39605744 827.21796271 362.8125 827.25 C361.93078125 827.27320313 361.0490625 827.29640625 360.140625 827.3203125 C357.41166312 827.11357296 355.9450293 826.39502595 353.5625 825.125 C348.98014062 824.71822905 348.98014062 824.71822905 344.71484375 826.1015625 C335.53737005 830.46544292 319.42795394 829.1803029 309.5625 827.125 C308.41394531 826.63386719 308.41394531 826.63386719 307.2421875 826.1328125 C301.44512953 823.95257787 294.86649335 823.4496916 288.9375 825.1875 C284.84727073 826.3236748 282.51445705 825.61225439 278.46875 824.64453125 C272.90836251 823.65053725 267.1892501 823.78849061 261.5625 824.125 C261.2325 824.455 260.9025 824.785 260.5625 825.125 C258.49675834 825.22544432 256.42755625 825.25581674 254.359375 825.2578125 C252.42191406 825.25974609 252.42191406 825.25974609 250.4453125 825.26171875 C249.4248584 825.25857666 249.4248584 825.25857666 248.38378906 825.25537109 C246.3626359 825.25013001 244.34146375 825.25578582 242.3203125 825.26171875 C234.90904647 825.25440981 227.61831005 824.98995319 220.24316406 824.24169922 C217.71747693 824.13174672 215.95835238 824.40311568 213.5625 825.125 C209.51300588 825.37130197 205.64126484 825.38296551 201.6875 824.4375 C200.98625 824.334375 200.285 824.23125 199.5625 824.125 C199.11777344 824.58777344 198.67304688 825.05054688 198.21484375 825.52734375 C195.10027535 828.53882951 190.74067399 828.71895211 186.5625 829.125 C183.89931246 828.99371611 181.32641292 828.71821305 178.69140625 828.31640625 C176.37553847 827.96514876 176.37553847 827.96514876 173.5625 829.125 C172.5725 828.795 171.5825 828.465 170.5625 828.125 C169.12446268 828.07802237 167.68415857 828.08668445 166.24609375 828.1328125 C165.39853516 828.14957031 164.55097656 828.16632812 163.67773438 828.18359375 C161.91969096 828.2271922 160.16182834 828.27901121 158.40429688 828.33984375 C153.83782792 828.41543616 150.08236016 828.12015514 145.74609375 826.63671875 C139.59094126 824.59044347 133.61938639 824.72144838 127.1875 824.8125 C126.02605469 824.80927734 124.86460937 824.80605469 123.66796875 824.80273438 C116.8420415 824.81412096 116.8420415 824.81412096 110.5625 827.125 C109.2425 827.125 107.9225 827.125 106.5625 827.125 C105.78132812 827.28742187 105.00015625 827.44984375 104.1953125 827.6171875 C101.22455132 828.19018298 98.46140636 828.25757871 95.4375 828.25 C94.40367187 828.25257813 93.36984375 828.25515625 92.3046875 828.2578125 C89.5625 828.125 89.5625 828.125 86.5625 827.125 C86.5625 826.465 86.5625 825.805 86.5625 825.125 C81.63290878 825.07557101 76.70346175 825.03926682 71.77368164 825.01513672 C70.09657275 825.00507763 68.41948139 824.99142878 66.74243164 824.97412109 C64.33214998 824.94986848 61.92210014 824.9385161 59.51171875 824.9296875 C58.76162033 824.91936493 58.01152191 824.90904236 57.23869324 824.89840698 C53.45949221 824.897592 51.78835601 824.97442933 48.5625 827.125 C47.98902832 826.80208984 47.41555664 826.47917969 46.82470703 826.14648438 C44.46941185 825.08296667 42.9287693 824.84855317 40.3671875 824.78125 C39.17681885 824.73895264 39.17681885 824.73895264 37.96240234 824.69580078 C37.12918457 824.67243652 36.2959668 824.64907227 35.4375 824.625 C25.94092049 824.23669064 17.61102694 822.94891094 8.63671875 819.76953125 C6.38182435 818.9970345 6.38182435 818.9970345 3.1875 818.75 C-2.10942501 817.83673707 -6.63587312 815.47805766 -11.4375 813.125 C-11.4375 812.465 -11.4375 811.805 -11.4375 811.125 C-19.36860647 807.82142306 -26.9057459 805.27054614 -35.4375 804.125 C-35.4375 803.465 -35.4375 802.805 -35.4375 802.125 C-40.0575 802.125 -44.6775 802.125 -49.4375 802.125 C-49.4375 802.785 -49.4375 803.445 -49.4375 804.125 C-51.7475 804.125 -54.0575 804.125 -56.4375 804.125 C-56.4375 803.465 -56.4375 802.805 -56.4375 802.125 C-60.06022585 801.7254946 -63.68565428 801.36001777 -67.3125 801 C-68.32570313 800.88785156 -69.33890625 800.77570312 -70.3828125 800.66015625 C-76.32446576 800.08884344 -81.34707521 800.23207323 -87.15576172 801.60888672 C-90.46581096 802.35759676 -93.67488959 802.5507288 -97.0625 802.75 C-98.27164063 802.82476563 -99.48078125 802.89953125 -100.7265625 802.9765625 C-101.62117188 803.02554688 -102.51578125 803.07453125 -103.4375 803.125 C-103.7675 804.115 -104.0975 805.105 -104.4375 806.125 C-107.3125 806.3125 -107.3125 806.3125 -110.4375 806.125 C-111.4275 804.64 -111.4275 804.64 -112.4375 803.125 C-112.1075 802.795 -111.7775 802.465 -111.4375 802.125 C-112.51 801.8775 -113.5825 801.63 -114.6875 801.375 C-118.48640035 800.10869988 -120.04260986 799.25677941 -122.4375 796.125 C-122.57865234 795.15433594 -122.57865234 795.15433594 -122.72265625 794.1640625 C-123.28574894 791.89258886 -123.28574894 791.89258886 -125.72265625 790.640625 C-126.63917969 790.22296875 -127.55570312 789.8053125 -128.5 789.375 C-129.41910156 788.94703125 -130.33820313 788.5190625 -131.28515625 788.078125 C-131.99542969 787.76359375 -132.70570313 787.4490625 -133.4375 787.125 C-132.86165568 784.73935923 -132.21522405 782.45817216 -131.4375 780.125 C-132.4275 779.795 -133.4175 779.465 -134.4375 779.125 C-133.9425 776.65 -133.9425 776.65 -133.4375 774.125 C-132.7775 774.125 -132.1175 774.125 -131.4375 774.125 C-131.9325 769.67 -131.9325 769.67 -132.4375 765.125 C-131.4475 764.795 -130.4575 764.465 -129.4375 764.125 C-129.4375 763.465 -129.4375 762.805 -129.4375 762.125 C-130.4275 761.465 -131.4175 760.805 -132.4375 760.125 C-133.25 756.625 -133.25 756.625 -133.4375 753.125 C-132.7775 752.465 -132.1175 751.805 -131.4375 751.125 C-131.76076553 747.52820934 -131.76076553 747.52820934 -132.4375 744.125 C-131.261875 744.00125 -131.261875 744.00125 -130.0625 743.875 C-127.30693709 743.41590262 -127.30693709 743.41590262 -126.3125 741.1875 C-126.02375 740.506875 -125.735 739.82625 -125.4375 739.125 C-123.11893083 737.57928722 -120.93111571 736.32881448 -118.4375 735.125 C-118.4375 734.465 -118.4375 733.805 -118.4375 733.125 C-117.7775 733.125 -117.1175 733.125 -116.4375 733.125 C-116.1075 732.465 -115.7775 731.805 -115.4375 731.125 C-114.7775 731.125 -114.1175 731.125 -113.4375 731.125 C-113.1075 730.465 -112.7775 729.805 -112.4375 729.125 C-111.7775 729.125 -111.1175 729.125 -110.4375 729.125 C-110.4375 727.805 -110.4375 726.485 -110.4375 725.125 C-109.7775 725.125 -109.1175 725.125 -108.4375 725.125 C-108.4375 723.475 -108.4375 721.825 -108.4375 720.125 C-107.4475 720.125 -106.4575 720.125 -105.4375 720.125 C-105.4375 719.465 -105.4375 718.805 -105.4375 718.125 C-103.9375 716.5 -103.9375 716.5 -102.4375 715.125 C-103.0975 714.795 -103.7575 714.465 -104.4375 714.125 C-104.1075 712.145 -103.7775 710.165 -103.4375 708.125 C-101.4575 708.125 -99.4775 708.125 -97.4375 708.125 C-97.1075 706.805 -96.7775 705.485 -96.4375 704.125 C-95.4475 704.125 -94.4575 704.125 -93.4375 704.125 C-93.1075 701.155 -92.7775 698.185 -92.4375 695.125 C-90.7875 695.125 -89.1375 695.125 -87.4375 695.125 C-87.4375 693.805 -87.4375 692.485 -87.4375 691.125 C-86.4475 690.465 -85.4575 689.805 -84.4375 689.125 C-84.2725 688.444375 -84.1075 687.76375 -83.9375 687.0625 C-83.69 686.1034375 -83.69 686.1034375 -83.4375 685.125 C-82.4475 684.795 -81.4575 684.465 -80.4375 684.125 C-80.1075 683.465 -79.7775 682.805 -79.4375 682.125 C-78.7775 682.125 -78.1175 682.125 -77.4375 682.125 C-77.4375 681.465 -77.4375 680.805 -77.4375 680.125 C-75.7875 680.125 -74.1375 680.125 -72.4375 680.125 C-72.4375 678.805 -72.4375 677.485 -72.4375 676.125 C-71.4475 676.125 -70.4575 676.125 -69.4375 676.125 C-69.4375 674.805 -69.4375 673.485 -69.4375 672.125 C-68.81359375 672.0425 -68.1896875 671.96 -67.546875 671.875 C-65.291681 671.33772418 -65.291681 671.33772418 -64.453125 669.3125 C-64.20046875 668.590625 -63.9478125 667.86875 -63.6875 667.125 C-62.71875 664.9375 -62.71875 664.9375 -61.4375 663.125 C-58.60525843 662.07924927 -56.51305353 662.125 -53.4375 662.125 C-53.7675 660.805 -54.0975 659.485 -54.4375 658.125 C-52.4575 657.795 -50.4775 657.465 -48.4375 657.125 C-48.4375 656.465 -48.4375 655.805 -48.4375 655.125 C-47.7775 654.795 -47.1175 654.465 -46.4375 654.125 C-46.4375 653.135 -46.4375 652.145 -46.4375 651.125 C-45.1175 651.125 -43.7975 651.125 -42.4375 651.125 C-42.4375 650.135 -42.4375 649.145 -42.4375 648.125 C-41.0453125 647.2278125 -41.0453125 647.2278125 -39.625 646.3125 C-36.24637516 644.38921223 -36.24637516 644.38921223 -35 641.0625 C-32.90163196 637.11756809 -30.48734829 636.74493931 -26.4375 635.125 C-24.9556036 633.0898239 -24.9556036 633.0898239 -24.4375 631.125 C-23.7775 631.125 -23.1175 631.125 -22.4375 631.125 C-22.4375 630.465 -22.4375 629.805 -22.4375 629.125 C-20.77470673 628.1185725 -19.10766516 627.11914593 -17.4375 626.125 C-16.7775 625.135 -16.1175 624.145 -15.4375 623.125 C-14.4475 623.125 -13.4575 623.125 -12.4375 623.125 C-12.4375 621.805 -12.4375 620.485 -12.4375 619.125 C-10.4575 618.465 -8.4775 617.805 -6.4375 617.125 C-6.4375 615.805 -6.4375 614.485 -6.4375 613.125 C-5.7775 613.125 -5.1175 613.125 -4.4375 613.125 C-4.4375 612.465 -4.4375 611.805 -4.4375 611.125 C-3.1175 610.795 -1.7975 610.465 -0.4375 610.125 C-0.2828125 609.1659375 -0.2828125 609.1659375 -0.125 608.1875 C0.101875 607.506875 0.32875 606.82625 0.5625 606.125 C1.5525 605.795 2.5425 605.465 3.5625 605.125 C4.29516737 603.08311462 4.29516737 603.08311462 4.625 600.6875 C5.3597973 596.3277027 5.3597973 596.3277027 7.5625 594.125 C7.5625 593.135 7.5625 592.145 7.5625 591.125 C8.2225 591.125 8.8825 591.125 9.5625 591.125 C9.68625 590.320625 9.81 589.51625 9.9375 588.6875 C10.14375 587.841875 10.35 586.99625 10.5625 586.125 C11.2225 585.795 11.8825 585.465 12.5625 585.125 C12.5625 584.465 12.5625 583.805 12.5625 583.125 C13.2225 582.795 13.8825 582.465 14.5625 582.125 C14.5625 581.135 14.5625 580.145 14.5625 579.125 C15.201875 578.91875 15.84125 578.7125 16.5 578.5 C18.91175077 577.22961791 18.91175077 577.22961791 19.3125 574 C19.395 573.05125 19.4775 572.1025 19.5625 571.125 C21.2125 571.125 22.8625 571.125 24.5625 571.125 C24.5625 570.465 24.5625 569.805 24.5625 569.125 C27.9307099 568.53556327 31.2924662 568.0255377 34.6875 567.625 C37.42605337 567.27163827 39.92667169 566.89378326 42.5625 566.125 C42.5625 566.785 42.5625 567.445 42.5625 568.125 C43.5525 568.125 44.5425 568.125 45.5625 568.125 C45.8925 566.805 46.2225 565.485 46.5625 564.125 C47.5525 564.125 48.5425 564.125 49.5625 564.125 C49.665625 562.8875 49.76875 561.65 49.875 560.375 C50.31024392 556.86817752 50.93301757 554.64930313 53.5625 552.125 C54.2225 552.125 54.8825 552.125 55.5625 552.125 C55.5625 551.135 55.5625 550.145 55.5625 549.125 C58.2025 548.135 60.8425 547.145 63.5625 546.125 C63.5625 545.135 63.5625 544.145 63.5625 543.125 C67.25791586 542.17475021 69.86708414 542.17475021 73.5625 543.125 C73.5625 541.805 73.5625 540.485 73.5625 539.125 C74.8825 538.465 76.2025 537.805 77.5625 537.125 C77.5625 536.135 77.5625 535.145 77.5625 534.125 C79.233125 534.00125 79.233125 534.00125 80.9375 533.875 C84.54456154 533.53497682 84.54456154 533.53497682 85.9375 531.375 C86.63053887 529.09678547 86.63053887 529.09678547 86.875 526.5625 C87.5625 524.125 87.5625 524.125 89.75 522.625 C90.678125 522.13 91.60625 521.635 92.5625 521.125 C94.7399007 519.57117415 96.59080954 517.95913066 98.5625 516.125 C98.5625 515.135 98.5625 514.145 98.5625 513.125 C99.34625 512.8775 100.13 512.63 100.9375 512.375 C103.70289889 511.40379632 103.70289889 511.40379632 104.5 509.0625 C104.850625 508.423125 105.20125 507.78375 105.5625 507.125 C108.6875 506.375 108.6875 506.375 111.5625 506.125 C112.2225 504.145 112.8825 502.165 113.5625 500.125 C115.2125 499.795 116.8625 499.465 118.5625 499.125 C118.8925 497.805 119.2225 496.485 119.5625 495.125 C120.2225 495.125 120.8825 495.125 121.5625 495.125 C121.5625 494.465 121.5625 493.805 121.5625 493.125 C122.8825 493.125 124.2025 493.125 125.5625 493.125 C125.5625 492.465 125.5625 491.805 125.5625 491.125 C126.2225 490.795 126.8825 490.465 127.5625 490.125 C127.5625 488.805 127.5625 487.485 127.5625 486.125 C128.8825 486.125 130.2025 486.125 131.5625 486.125 C131.5625 485.465 131.5625 484.805 131.5625 484.125 C133.5425 484.125 135.5225 484.125 137.5625 484.125 C137.5625 483.465 137.5625 482.805 137.5625 482.125 C136.5725 482.125 135.5825 482.125 134.5625 482.125 C134.5625 481.465 134.5625 480.805 134.5625 480.125 C137.2025 479.795 139.8425 479.465 142.5625 479.125 C142.8925 476.485 143.2225 473.845 143.5625 471.125 C145.2021875 470.691875 145.2021875 470.691875 146.875 470.25 C150.60263845 469.30606796 150.60263845 469.30606796 153.5625 467.125 C153.5625 465.805 153.5625 464.485 153.5625 463.125 C155.8725 462.795 158.1825 462.465 160.5625 462.125 C160.8925 460.475 161.2225 458.825 161.5625 457.125 C162.8825 457.125 164.2025 457.125 165.5625 457.125 C165.5625 455.145 165.5625 453.165 165.5625 451.125 C166.8 451.0425 168.0375 450.96 169.3125 450.875 C173.33545761 450.39962406 174.87963554 449.20532587 177.5625 446.125 C178.5525 446.125 179.5425 446.125 180.5625 446.125 C180.5625 446.785 180.5625 447.445 180.5625 448.125 C183.53315509 447.78272428 183.53315509 447.78272428 186.5625 447.125 C186.8925 446.465 187.2225 445.805 187.5625 445.125 C191.38234796 444.34688282 193.83090331 443.88113444 197.5625 445.125 C198.243125 444.3825 198.243125 444.3825 198.9375 443.625 C200.5625 442.125 200.5625 442.125 202.5625 442.125 C202.8925 442.785 203.2225 443.445 203.5625 444.125 C204.2225 443.465 204.8825 442.805 205.5625 442.125 C206.696875 441.856875 207.83125 441.58875 209 441.3125 C212.71126331 440.47189926 212.71126331 440.47189926 214.375 437.5 C214.766875 436.71625 215.15875 435.9325 215.5625 435.125 C216.2225 435.125 216.8825 435.125 217.5625 435.125 C217.5625 434.465 217.5625 433.805 217.5625 433.125 C218.8825 433.125 220.2025 433.125 221.5625 433.125 C221.5625 433.785 221.5625 434.445 221.5625 435.125 C222.2225 435.125 222.8825 435.125 223.5625 435.125 C223.5625 434.465 223.5625 433.805 223.5625 433.125 C228.51300094 432.3716629 233.43022756 431.86346371 238.42578125 431.50390625 C240.77091953 431.29843296 240.77091953 431.29843296 242.5625 429.125 C246.6637478 429.59371403 250.61022249 430.96256544 254.5625 432.125 C254.5625 433.115 254.5625 434.105 254.5625 435.125 C255.8825 435.125 257.2025 435.125 258.5625 435.125 C259.25909026 439.14974375 259.73741826 442.20860578 258.5625 446.125 C258.52463099 447.79123639 258.51622155 449.45897597 258.5625 451.125 C259.2225 451.125 259.8825 451.125 260.5625 451.125 C260.5625 451.785 260.5625 452.445 260.5625 453.125 C265.319181 453.85059541 268.847234 454.23447435 273.5625 453.125 C274.2225 453.455 274.8825 453.785 275.5625 454.125 C277.22444453 454.48113097 278.890951 454.81708308 280.5625 455.125 C280.5625 457.435 280.5625 459.745 280.5625 462.125 C280.8925 461.135 281.2225 460.145 281.5625 459.125 C282.2225 459.125 282.8825 459.125 283.5625 459.125 C283.5625 462.095 283.5625 465.065 283.5625 468.125 C284.5525 468.125 285.5425 468.125 286.5625 468.125 C286.5625 470.765 286.5625 473.405 286.5625 476.125 C287.27792969 476.41117188 287.99335938 476.69734375 288.73046875 476.9921875 C293.0078125 478.703125 297.28515625 480.4140625 301.5625 482.125 C301.5625 482.785 301.5625 483.445 301.5625 484.125 C302.119375 484.2075 302.67625 484.29 303.25 484.375 C306.26244803 485.35201017 308.15632333 487.09874596 310.5625 489.125 C311.2225 489.455 311.8825 489.785 312.5625 490.125 C314.04982574 493.09965149 314.6053321 495.48601342 315 498.8125 C315.185625 499.905625 315.37125 500.99875 315.5625 502.125 C316.5525 502.785 317.5425 503.445 318.5625 504.125 C319.44864956 508.97500134 318.82363102 513.74405865 316.5625 518.125 C315.9025 518.125 315.2425 518.125 314.5625 518.125 C314.6553125 519.7028125 314.6553125 519.7028125 314.75 521.3125 C314.5625 525.125 314.5625 525.125 313.06640625 527.38671875 C311.08515992 530.99413089 311.231832 533.66013228 311.3125 537.75 C311.32796875 539.06226563 311.3434375 540.37453125 311.359375 541.7265625 C311.41451246 545.11280826 311.41451246 545.11280826 312.5625 548.125 C312.47593435 550.52370613 312.32251509 552.92037281 312.125 555.3125 C312.02316406 556.58480469 311.92132813 557.85710938 311.81640625 559.16796875 C311.73261719 560.14378906 311.64882813 561.11960937 311.5625 562.125 C310.9025 562.125 310.2425 562.125 309.5625 562.125 C309.624375 563.671875 309.624375 563.671875 309.6875 565.25 C309.56674851 568.99329627 308.91377982 571.66234547 307.5625 575.125 C306.9025 575.125 306.2425 575.125 305.5625 575.125 C305.44132812 575.69089844 305.32015625 576.25679687 305.1953125 576.83984375 C305.02773438 577.57332031 304.86015625 578.30679688 304.6875 579.0625 C304.52507812 579.79339844 304.36265625 580.52429688 304.1953125 581.27734375 C303.5625 583.125 303.5625 583.125 301.5625 584.125 C300.7890625 585.8575 300.7890625 585.8575 300 587.625 C298.96875 589.55859375 298.96875 589.55859375 297.5625 591.125 C295.21302625 591.64001146 293.02565076 591.68682498 290.625 591.75 C289.944375 591.87375 289.26375 591.9975 288.5625 592.125 C286.40002779 595.02751302 286.40002779 595.02751302 285.5625 598.125 C284.5725 598.125 283.5825 598.125 282.5625 598.125 C282.2325 599.115 281.9025 600.105 281.5625 601.125 C279.5 601.8125 279.5 601.8125 277.5625 602.125 C277.5625 602.785 277.5625 603.445 277.5625 604.125 C276.2425 604.455 274.9225 604.785 273.5625 605.125 C273.52125 605.681875 273.48 606.23875 273.4375 606.8125 C272.07272892 610.419395 269.65169824 611.85538496 266.5625 614.125 C265.9025 614.125 265.2425 614.125 264.5625 614.125 C264.2325 615.115 263.9025 616.105 263.5625 617.125 C261.49609375 618.07421875 261.49609375 618.07421875 259 618.8125 C258.17371094 619.06386719 257.34742188 619.31523438 256.49609375 619.57421875 C255.85800781 619.75597656 255.21992188 619.93773437 254.5625 620.125 C254.665625 620.888125 254.76875 621.65125 254.875 622.4375 C254.771875 623.324375 254.66875 624.21125 254.5625 625.125 C251.99963608 627.08483712 249.40924767 628.18936598 246.4375 629.4375 C242.86496246 631.53442421 242.26907193 633.41506101 240.5625 637.125 C238.91761706 638.81316933 237.24912458 640.47853315 235.5625 642.125 C234.64564424 643.38075087 233.74993868 644.65219185 232.875 645.9375 C231.7303125 647.5153125 231.7303125 647.5153125 230.5625 649.125 C229.9025 649.125 229.2425 649.125 228.5625 649.125 C228.5625 649.785 228.5625 650.445 228.5625 651.125 C227.2425 651.125 225.9225 651.125 224.5625 651.125 C224.2325 652.445 223.9025 653.765 223.5625 655.125 C222.9025 655.125 222.2425 655.125 221.5625 655.125 C220.9025 658.095 220.2425 661.065 219.5625 664.125 C218.5725 664.125 217.5825 664.125 216.5625 664.125 C216.5625 665.115 216.5625 666.105 216.5625 667.125 C214.9125 667.125 213.2625 667.125 211.5625 667.125 C211.5625 667.785 211.5625 668.445 211.5625 669.125 C209.9125 669.125 208.2625 669.125 206.5625 669.125 C206.2325 669.785 205.9025 670.445 205.5625 671.125 C204.5725 671.455 203.5825 671.785 202.5625 672.125 C201.9025 673.115 201.2425 674.105 200.5625 675.125 C199.758125 675.599375 198.95375 676.07375 198.125 676.5625 C195.49252703 678.16766645 194.3415354 679.66823683 192.5625 682.125 C191.9025 682.125 191.2425 682.125 190.5625 682.125 C190.5625 682.785 190.5625 683.445 190.5625 684.125 C195.71389657 684.97568934 200.65824642 685.27900882 205.875 685.25 C206.58978516 685.25386719 207.30457031 685.25773438 208.04101562 685.26171875 C211.92961546 685.32315533 211.92961546 685.32315533 215.5625 684.125 C215.5625 683.135 215.5625 682.145 215.5625 681.125 C216.5525 681.125 217.5425 681.125 218.5625 681.125 C218.5315625 679.206875 218.5315625 679.206875 218.5 677.25 C218.4375 673.375 218.4375 673.375 219.5625 671.125 C224.33111101 671.93999897 228.55894183 673.60303853 233.0390625 675.3828125 C235.65224003 676.4123447 235.65224003 676.4123447 238.5625 675.125 C238.5625 674.135 238.5625 673.145 238.5625 672.125 C240.5425 672.455 242.5225 672.785 244.5625 673.125 C244.5625 673.785 244.5625 674.445 244.5625 675.125 C249.5125 676.61 249.5125 676.61 254.5625 678.125 C254.5625 678.785 254.5625 679.445 254.5625 680.125 C256.2125 680.455 257.8625 680.785 259.5625 681.125 C259.5625 682.115 259.5625 683.105 259.5625 684.125 C260.8825 684.125 262.2025 684.125 263.5625 684.125 C263.8925 683.135 264.2225 682.145 264.5625 681.125 C266.625 680.4375 266.625 680.4375 268.5625 680.125 C268.5625 679.135 268.5625 678.145 268.5625 677.125 C272.3688457 677.79670806 275.91456816 678.85246564 279.5625 680.125 C279.5625 679.135 279.5625 678.145 279.5625 677.125 C278.9025 676.795 278.2425 676.465 277.5625 676.125 C277.5625 675.135 277.5625 674.145 277.5625 673.125 C278.2225 673.125 278.8825 673.125 279.5625 673.125 C279.5625 673.785 279.5625 674.445 279.5625 675.125 C280.635 675.104375 281.7075 675.08375 282.8125 675.0625 C285.71040424 675.1107984 287.84862141 675.25655885 290.5625 676.125 C290.5625 675.135 290.5625 674.145 290.5625 673.125 C295.4375 674 295.4375 674 296.5625 675.125 C298.56208364 675.16580783 300.56295254 675.16754356 302.5625 675.125 C301.758125 674.5475 300.95375 673.97 300.125 673.375 C297.5625 671.125 297.5625 671.125 296.5625 667.125 C299.5325 667.785 302.5025 668.445 305.5625 669.125 C305.5625 669.785 305.5625 670.445 305.5625 671.125 C308.5325 671.785 311.5025 672.445 314.5625 673.125 C314.5625 673.785 314.5625 674.445 314.5625 675.125 C316.5115625 675.0940625 316.5115625 675.0940625 318.5 675.0625 C321.84081718 675.07835831 325.16676459 675.14232285 328.5 675.375 C329.59634766 675.44460938 329.59634766 675.44460938 330.71484375 675.515625 C332.5625 676.125 332.5625 676.125 333.81640625 678.171875 C334.18572266 679.13867188 334.18572266 679.13867188 334.5625 680.125 C333.9025 680.455 333.2425 680.785 332.5625 681.125 C332.5625 682.445 332.5625 683.765 332.5625 685.125 C333.47 684.939375 334.3775 684.75375 335.3125 684.5625 C338.24564324 684.16765379 339.8269657 684.17808428 342.5625 685.125 C342.5625 684.465 342.5625 683.805 342.5625 683.125 C345.57574195 681.61837903 348.24536377 681.94729627 351.5625 682.125 C352.2225 682.785 352.8825 683.445 353.5625 684.125 C356.81507964 684.48406894 356.81507964 684.48406894 360.5 684.4375 C361.74652344 684.45425781 362.99304688 684.47101562 364.27734375 684.48828125 C367.5335961 684.50797663 367.5335961 684.50797663 368.84814453 682.61621094 C371.50402576 680.30602544 373.82492208 680.82157598 377.27734375 680.90234375 C377.92949356 680.91133194 378.58164337 680.92032013 379.2535553 680.92958069 C381.33624721 680.95957962 383.41777963 681.00934409 385.5 681.0625 C387.57857132 681.11040222 389.65683724 681.15375306 391.73573303 681.18470764 C393.62472455 681.2134715 395.51344663 681.25854945 397.40209961 681.30444336 C400.46494493 681.13053905 402.04620439 680.81190821 404.5625 679.125 C405.14 678.42375 405.7175 677.7225 406.3125 677 C409.72740948 674.1542421 412.19477494 674.77276411 416.5625 675.125 C417.2225 675.455 417.8825 675.785 418.5625 676.125 C418.5625 675.135 418.5625 674.145 418.5625 673.125 C419.2225 673.125 419.8825 673.125 420.5625 673.125 C420.8925 673.785 421.2225 674.445 421.5625 675.125 C421.5625 674.465 421.5625 673.805 421.5625 673.125 C420.9025 672.465 420.2425 671.805 419.5625 671.125 C419.5625 670.135 419.5625 669.145 419.5625 668.125 C422.6456351 669.32399698 425.62529492 670.60200477 428.5625 672.125 C428.2325 670.145 427.9025 668.165 427.5625 666.125 C432.3125 668 432.3125 668 434.5625 669.125 C434.5625 669.785 434.5625 670.445 434.5625 671.125 C436.8725 671.785 439.1825 672.445 441.5625 673.125 C441.5625 672.465 441.5625 671.805 441.5625 671.125 C444.5325 671.785 447.5025 672.445 450.5625 673.125 C450.5625 673.785 450.5625 674.445 450.5625 675.125 C451.2225 675.125 451.8825 675.125 452.5625 675.125 C452.5625 675.785 452.5625 676.445 452.5625 677.125 C453.5525 677.455 454.5425 677.785 455.5625 678.125 C455.5625 679.445 455.5625 680.765 455.5625 682.125 C457.5425 682.125 459.5225 682.125 461.5625 682.125 C461.5625 682.785 461.5625 683.445 461.5625 684.125 C463.8725 684.125 466.1825 684.125 468.5625 684.125 C468.5625 683.465 468.5625 682.805 468.5625 682.125 C469.078125 682.269375 469.59375 682.41375 470.125 682.5625 C475.62524264 683.83178676 480.92551318 684.24004055 486.5625 684.125 C486.5625 683.465 486.5625 682.805 486.5625 682.125 C488.5425 682.125 490.5225 682.125 492.5625 682.125 C492.8925 680.805 493.2225 679.485 493.5625 678.125 C495.5425 678.125 497.5225 678.125 499.5625 678.125 C499.5625 676.475 499.5625 674.825 499.5625 673.125 C500.6453125 673.1559375 500.6453125 673.1559375 501.75 673.1875 C504.51288206 673.26448642 504.51288206 673.26448642 506.8125 672.375 C511.22192031 671.97414361 514.69360773 674.16105251 518.5625 676.125 C518.5625 674.475 518.5625 672.825 518.5625 671.125 C523.42213179 671.73245397 527.3030518 673.85258967 531.5625 676.125 C531.8925 675.135 532.2225 674.145 532.5625 673.125 C533.2225 673.125 533.8825 673.125 534.5625 673.125 C534.5625 673.785 534.5625 674.445 534.5625 675.125 C536.8725 675.785 539.1825 676.445 541.5625 677.125 C541.7171875 678.0840625 541.7171875 678.0840625 541.875 679.0625 C542.101875 679.743125 542.32875 680.42375 542.5625 681.125 C543.5525 681.455 544.5425 681.785 545.5625 682.125 C545.5625 683.115 545.5625 684.105 545.5625 685.125 C546.635 685.104375 547.7075 685.08375 548.8125 685.0625 C551.71040424 685.1107984 553.84862141 685.25655885 556.5625 686.125 C556.8925 684.805 557.2225 683.485 557.5625 682.125 C559.8725 682.125 562.1825 682.125 564.5625 682.125 C564.5625 682.785 564.5625 683.445 564.5625 684.125 C572.4825 684.125 580.4025 684.125 588.5625 684.125 C588.5625 683.465 588.5625 682.805 588.5625 682.125 C587.61375 681.898125 586.665 681.67125 585.6875 681.4375 C580.70737091 680.01897962 576.00218704 677.77860605 571.5625 675.125 C571.2325 674.465 570.9025 673.805 570.5625 673.125 C569.5725 672.795 568.5825 672.465 567.5625 672.125 C567.418125 671.485625 567.27375 670.84625 567.125 670.1875 C566.76145007 667.92188294 566.76145007 667.92188294 564.5 666.875 C563.860625 666.6275 563.22125 666.38 562.5625 666.125 C562.5625 665.465 562.5625 664.805 562.5625 664.125 C560.9125 663.465 559.2625 662.805 557.5625 662.125 C557.5625 661.135 557.5625 660.145 557.5625 659.125 C557.005625 659.00125 556.44875 658.8775 555.875 658.75 C549.06284746 656.90887769 549.06284746 656.90887769 546.6875 653.1875 C543.96880816 649.26938528 541.98567264 648.65609822 537.5625 647.125 C537.5625 647.785 537.5625 648.445 537.5625 649.125 C534.00469804 648.51509109 530.8796411 647.5466319 527.5625 646.125 C527.5625 645.465 527.5625 644.805 527.5625 644.125 C526.9025 644.125 526.2425 644.125 525.5625 644.125 C525.5625 643.465 525.5625 642.805 525.5625 642.125 C524.5725 642.125 523.5825 642.125 522.5625 642.125 C522.8925 640.805 523.2225 639.485 523.5625 638.125 C522.7375 637.67125 521.9125 637.2175 521.0625 636.75 C520.2375 636.21375 519.4125 635.6775 518.5625 635.125 C518.5625 634.465 518.5625 633.805 518.5625 633.125 C516.5825 632.465 514.6025 631.805 512.5625 631.125 C512.5625 630.135 512.5625 629.145 512.5625 628.125 C513.2225 628.125 513.8825 628.125 514.5625 628.125 C514.36778889 626.17500871 514.36778889 626.17500871 513.5625 624.125 C512.24602881 623.42562468 510.91227849 622.75770867 509.5625 622.125 C509.2325 621.135 508.9025 620.145 508.5625 619.125 C506.56233534 617.91617904 506.56233534 617.91617904 504.5625 617.125 C504.5625 616.465 504.5625 615.805 504.5625 615.125 C503.5725 615.125 502.5825 615.125 501.5625 615.125 C501.2325 613.805 500.9025 612.485 500.5625 611.125 C499.94761719 611.01542969 499.33273437 610.90585937 498.69921875 610.79296875 C497.89097656 610.63441406 497.08273437 610.47585938 496.25 610.3125 C495.44949219 610.16167969 494.64898438 610.01085937 493.82421875 609.85546875 C491.28493559 609.03535485 490.27041146 608.13609101 488.5625 606.125 C485.50763564 602.64877504 483.03132451 601.34377032 478.5625 600.125 C478.5625 599.135 478.5625 598.145 478.5625 597.125 C479.2225 597.125 479.8825 597.125 480.5625 597.125 C480.5625 596.465 480.5625 595.805 480.5625 595.125 C479.9025 595.125 479.2425 595.125 478.5625 595.125 C478.5625 594.465 478.5625 593.805 478.5625 593.125 C476.9125 592.795 475.2625 592.465 473.5625 592.125 C473.5625 590.805 473.5625 589.485 473.5625 588.125 C474.5525 588.125 475.5425 588.125 476.5625 588.125 C476.5625 587.465 476.5625 586.805 476.5625 586.125 C475.9025 586.125 475.2425 586.125 474.5625 586.125 C474.5625 585.465 474.5625 584.805 474.5625 584.125 C473.44875 584.00125 473.44875 584.00125 472.3125 583.875 C469.01947405 582.97690201 467.70273212 581.74083926 465.5625 579.125 C465.5625 578.465 465.5625 577.805 465.5625 577.125 C466.2225 577.125 466.8825 577.125 467.5625 577.125 C467.5625 576.135 467.5625 575.145 467.5625 574.125 C465.2525 573.795 462.9425 573.465 460.5625 573.125 C460.2325 570.815 459.9025 568.505 459.5625 566.125 C458.69625 566.021875 457.83 565.91875 456.9375 565.8125 C453.34617031 565.08093284 450.81956066 563.7854623 447.5625 562.125 C446.1111745 561.62500891 444.65207925 561.14722213 443.1875 560.6875 C438.70946725 559.25817885 434.71765684 557.31590088 430.5625 555.125 C430.5625 554.135 430.5625 553.145 430.5625 552.125 C428.5825 551.795 426.6025 551.465 424.5625 551.125 C424.5625 550.465 424.5625 549.805 424.5625 549.125 C423.469375 549.00125 422.37625 548.8775 421.25 548.75 C417.5625 548.125 417.5625 548.125 414.5625 546.125 C414.5625 545.465 414.5625 544.805 414.5625 544.125 C413.9025 544.125 413.2425 544.125 412.5625 544.125 C412.5625 542.145 412.5625 540.165 412.5625 538.125 C411.9025 538.125 411.2425 538.125 410.5625 538.125 C410.2325 537.135 409.9025 536.145 409.5625 535.125 C406.05059191 533.89530122 406.05059191 533.89530122 402.5625 533.125 C402.5625 532.465 402.5625 531.805 402.5625 531.125 C401.304375 530.980625 400.04625 530.83625 398.75 530.6875 C396.13582877 530.38751314 394.08810108 529.96686703 391.5625 529.125 C391.5625 528.135 391.5625 527.145 391.5625 526.125 C392.2225 526.125 392.8825 526.125 393.5625 526.125 C393.44943303 524.16605639 393.44943303 524.16605639 392.5625 522.125 C390.07215614 520.82839566 390.07215614 520.82839566 387.5625 520.125 C387.8925 518.805 388.2225 517.485 388.5625 516.125 C387.5725 516.125 386.5825 516.125 385.5625 516.125 C385.5625 515.135 385.5625 514.145 385.5625 513.125 C383.9125 512.795 382.2625 512.465 380.5625 512.125 C380.294375 511.196875 380.02625 510.26875 379.75 509.3125 C378.85908644 506.18376722 378.85908644 506.18376722 377.03125 504.71875 C374.33802653 501.79631602 374.83993555 497.9536106 374.5625 494.125 C371.5925 493.795 368.6225 493.465 365.5625 493.125 C365.5625 492.465 365.5625 491.805 365.5625 491.125 C364.61375 490.980625 363.665 490.83625 362.6875 490.6875 C359.5625 490.125 359.5625 490.125 357.5625 489.125 C357.2325 488.135 356.9025 487.145 356.5625 486.125 C355.5725 485.795 354.5825 485.465 353.5625 485.125 C353.5625 483.805 353.5625 482.485 353.5625 481.125 C352.985 481.0425 352.4075 480.96 351.8125 480.875 C348.9399583 479.9174861 347.61160899 478.31071625 345.5625 476.125 C344.9025 475.795 344.2425 475.465 343.5625 475.125 C343.5625 474.135 343.5625 473.145 343.5625 472.125 C341.9125 471.795 340.2625 471.465 338.5625 471.125 C338.5625 470.135 338.5625 469.145 338.5625 468.125 C336.9125 467.465 335.2625 466.805 333.5625 466.125 C333.5625 465.465 333.5625 464.805 333.5625 464.125 C332.325 463.980625 331.0875 463.83625 329.8125 463.6875 C323.76046423 462.91626712 323.76046423 462.91626712 321.5625 462.125 C321.2325 461.465 320.9025 460.805 320.5625 460.125 C319.24542654 459.65948266 317.90818283 459.24986879 316.5625 458.875 C314.375 458.12109375 314.375 458.12109375 312.5625 457.125 C311.5625 453.9375 311.5625 453.9375 311.5625 451.125 C310.5725 450.795 309.5825 450.465 308.5625 450.125 C308.5625 448.805 308.5625 447.485 308.5625 446.125 C307.5725 446.125 306.5825 446.125 305.5625 446.125 C305.5625 445.465 305.5625 444.805 305.5625 444.125 C304.5725 444.125 303.5825 444.125 302.5625 444.125 C302.5625 443.465 302.5625 442.805 302.5625 442.125 C301.325 441.980625 300.0875 441.83625 298.8125 441.6875 C295.99745501 441.33811498 293.2923503 440.92120634 290.5625 440.125 C290.5625 439.135 290.5625 438.145 290.5625 437.125 C291.5525 436.795 292.5425 436.465 293.5625 436.125 C292.9025 435.795 292.2425 435.465 291.5625 435.125 C291.5625 434.465 291.5625 433.805 291.5625 433.125 C290.510625 433.0425 289.45875 432.96 288.375 432.875 C284.25386976 432.06428585 282.6090729 430.91043808 279.5625 428.125 C278.9025 427.795 278.2425 427.465 277.5625 427.125 C277.15520772 424.80343403 276.81811323 422.4681213 276.5625 420.125 C275.9025 420.125 275.2425 420.125 274.5625 420.125 C274.5625 418.475 274.5625 416.825 274.5625 415.125 C273.3559375 414.7846875 273.3559375 414.7846875 272.125 414.4375 C271.279375 414.004375 270.43375 413.57125 269.5625 413.125 C268.8125 410.625 268.8125 410.625 268.5625 408.125 C268.2325 407.465 267.9025 406.805 267.5625 406.125 C265.44403715 405.43770746 265.44403715 405.43770746 263 405 C262.17371094 404.83242188 261.34742188 404.66484375 260.49609375 404.4921875 C259.85800781 404.37101562 259.21992188 404.24984375 258.5625 404.125 C258.8925 402.805 259.2225 401.485 259.5625 400.125 C255.34566189 397.2259238 251.49383998 396.21156644 246.5625 395.125 C246.5625 394.465 246.5625 393.805 246.5625 393.125 C245.29792969 392.96064453 245.29792969 392.96064453 244.0078125 392.79296875 C242.91210938 392.63441406 241.81640625 392.47585938 240.6875 392.3125 C239.59695313 392.16167969 238.50640625 392.01085937 237.3828125 391.85546875 C234.5625 391.125 234.5625 391.125 232.5625 388.125 C232.0984375 386.6090625 232.0984375 386.6090625 231.625 385.0625 C230.7912898 381.84869498 230.7912898 381.84869498 227.5625 380.125 C227.43875 379.3 227.315 378.475 227.1875 377.625 C226.98125 376.8 226.775 375.975 226.5625 375.125 C224.31506244 373.97479475 224.31506244 373.97479475 221.5625 373.125 C218.25 371.25 218.25 371.25 215.5625 369.125 C215.5625 367.805 215.5625 366.485 215.5625 365.125 C214.9025 364.795 214.2425 364.465 213.5625 364.125 C213.5625 363.465 213.5625 362.805 213.5625 362.125 C210.5925 361.135 207.6225 360.145 204.5625 359.125 C204.5625 358.465 204.5625 357.805 204.5625 357.125 C203.44875 356.8775 202.335 356.63 201.1875 356.375 C197.5625 355.125 197.5625 355.125 196.125 353 C195.939375 352.38125 195.75375 351.7625 195.5625 351.125 C193.5825 351.455 191.6025 351.785 189.5625 352.125 C189.10875 351.320625 188.655 350.51625 188.1875 349.6875 C186.81524335 347.03643428 186.81524335 347.03643428 184.5625 346.125 C184.5625 345.465 184.5625 344.805 184.5625 344.125 C182.9125 343.795 181.2625 343.465 179.5625 343.125 C179.2325 341.475 178.9025 339.825 178.5625 338.125 C177.9025 338.125 177.2425 338.125 176.5625 338.125 C176.2325 337.135 175.9025 336.145 175.5625 335.125 C174.9025 334.795 174.2425 334.465 173.5625 334.125 C173.2325 333.135 172.9025 332.145 172.5625 331.125 C171.9025 330.795 171.2425 330.465 170.5625 330.125 C170.8925 328.805 171.2225 327.485 171.5625 326.125 C170.655 325.8775 169.7475 325.63 168.8125 325.375 C165.40518666 324.06449487 164.05077897 322.6962216 161.5625 320.125 C159.4243034 319.3377322 159.4243034 319.3377322 157.5625 319.125 C157.5625 318.465 157.5625 317.805 157.5625 317.125 C156.655 317.16625 155.7475 317.2075 154.8125 317.25 C151.6842954 317.12968444 150.17635994 316.7335292 147.5625 315.125 C147.5625 314.135 147.5625 313.145 147.5625 312.125 C146.2425 311.795 144.9225 311.465 143.5625 311.125 C143.2325 308.815 142.9025 306.505 142.5625 304.125 C141.304375 303.980625 140.04625 303.83625 138.75 303.6875 C136.13582877 303.38751314 134.08810108 302.96686703 131.5625 302.125 C131.5625 301.135 131.5625 300.145 131.5625 299.125 C129.5825 298.465 127.6025 297.805 125.5625 297.125 C125.5625 296.465 125.5625 295.805 125.5625 295.125 C124.99660156 295.00382812 124.43070312 294.88265625 123.84765625 294.7578125 C123.11417969 294.59023438 122.38070313 294.42265625 121.625 294.25 C120.52865234 294.00636719 120.52865234 294.00636719 119.41015625 293.7578125 C117.5625 293.125 117.5625 293.125 116.5625 291.125 C114.53786745 290.47286708 114.53786745 290.47286708 112.5625 290.125 C112.8925 288.805 113.2225 287.485 113.5625 286.125 C112.3559375 285.7846875 112.3559375 285.7846875 111.125 285.4375 C110.279375 285.004375 109.43375 284.57125 108.5625 284.125 C107.75 281.5 107.75 281.5 107.5625 279.125 C108.8825 279.125 110.2025 279.125 111.5625 279.125 C111.5625 278.135 111.5625 277.145 111.5625 276.125 C110.2425 275.795 108.9225 275.465 107.5625 275.125 C107.5315625 274.25875 107.5315625 274.25875 107.5 273.375 C106.19006072 270.23114572 104.1469479 269.58027943 101.15625 268.15234375 C99.5625 267.125 99.5625 267.125 98.5625 264.125 C96.46530128 263.10218482 96.46530128 263.10218482 94 262.4375 C93.17371094 262.18613281 92.34742188 261.93476562 91.49609375 261.67578125 C90.85800781 261.49402344 90.21992188 261.31226563 89.5625 261.125 C89.5625 260.465 89.5625 259.805 89.5625 259.125 C86.5925 258.465 83.6225 257.805 80.5625 257.125 C80.5625 256.465 80.5625 255.805 80.5625 255.125 C79.2425 255.125 77.9225 255.125 76.5625 255.125 C76.8925 253.145 77.2225 251.165 77.5625 249.125 C76.5725 248.465 75.5825 247.805 74.5625 247.125 C73.875 244.5 73.875 244.5 73.5625 242.125 C72.2425 242.125 70.9225 242.125 69.5625 242.125 C69.5625 241.465 69.5625 240.805 69.5625 240.125 C68.9025 240.125 68.2425 240.125 67.5625 240.125 C67.5625 239.135 67.5625 238.145 67.5625 237.125 C66.82 237.16625 66.0775 237.2075 65.3125 237.25 C62.47491048 237.12101866 60.97476062 236.55448778 58.5625 235.125 C58.5625 234.465 58.5625 233.805 58.5625 233.125 C57.9025 232.795 57.2425 232.465 56.5625 232.125 C56.129375 231.135 56.129375 231.135 55.6875 230.125 C55.31625 229.465 54.945 228.805 54.5625 228.125 C53.23655895 227.76337971 51.90311543 227.42771961 50.5625 227.125 C50.2325 226.135 49.9025 225.145 49.5625 224.125 C46.77077761 223.09183512 46.77077761 223.09183512 43.5 222.4375 C41.84291016 222.06044922 41.84291016 222.06044922 40.15234375 221.67578125 C39.29769531 221.49402344 38.44304687 221.31226563 37.5625 221.125 C37.5625 220.465 37.5625 219.805 37.5625 219.125 C34.5925 218.135 34.5925 218.135 31.5625 217.125 C31.43875 216.3825 31.315 215.64 31.1875 214.875 C30.60763299 212.32358515 29.82541261 210.3982427 28.5625 208.125 C27.2425 208.125 25.9225 208.125 24.5625 208.125 C24.5625 207.465 24.5625 206.805 24.5625 206.125 C23.325 206.2075 22.0875 206.29 20.8125 206.375 C16.82830115 206.38194111 16.82830115 206.38194111 14.6875 204.3125 C13.98625 203.590625 13.285 202.86875 12.5625 202.125 C10.00060576 201.23754644 7.44115424 200.5633729 4.8046875 199.93359375 C2.5625 199.125 2.5625 199.125 0.5625 196.125 C-0.76344105 195.76337971 -2.09688457 195.42771961 -3.4375 195.125 C-3.7675 194.465 -4.0975 193.805 -4.4375 193.125 C-6.55596285 192.43770746 -6.55596285 192.43770746 -9 192 C-9.82628906 191.83242188 -10.65257812 191.66484375 -11.50390625 191.4921875 C-12.14199219 191.37101563 -12.78007812 191.24984375 -13.4375 191.125 C-13.4375 190.135 -13.4375 189.145 -13.4375 188.125 C-6.6875 188 -6.6875 188 -4.4375 189.125 C-4.4375 188.465 -4.4375 187.805 -4.4375 187.125 C-5.6440625 186.75375 -5.6440625 186.75375 -6.875 186.375 C-9.69721857 185.38474787 -12.47966454 184.37406582 -15.25 183.25 C-16.01957031 182.94320312 -16.78914063 182.63640625 -17.58203125 182.3203125 C-19.4375 181.125 -19.4375 181.125 -20.32421875 179.1796875 C-20.4375 177.125 -20.4375 177.125 -18.4375 174.125 C-19.9225 173.135 -19.9225 173.135 -21.4375 172.125 C-20.9425 168.165 -20.9425 168.165 -20.4375 164.125 C-21.4275 164.125 -22.4175 164.125 -23.4375 164.125 C-23.4375 163.135 -23.4375 162.145 -23.4375 161.125 C-24.22125 160.91875 -25.005 160.7125 -25.8125 160.5 C-28.4375 159.125 -28.4375 159.125 -29.75 156 C-29.976875 155.05125 -30.20375 154.1025 -30.4375 153.125 C-31.118125 153.00125 -31.79875 152.8775 -32.5 152.75 C-35.8652412 152.03399123 -39.13763425 151.09554875 -42.4375 150.125 C-42.4375 149.465 -42.4375 148.805 -42.4375 148.125 C-43.3965625 147.9703125 -43.3965625 147.9703125 -44.375 147.8125 C-45.3959375 147.4721875 -45.3959375 147.4721875 -46.4375 147.125 C-46.7675 146.135 -47.0975 145.145 -47.4375 144.125 C-48.9225 143.135 -48.9225 143.135 -50.4375 142.125 C-50.4375 141.135 -50.4375 140.145 -50.4375 139.125 C-51.613125 138.7846875 -51.613125 138.7846875 -52.8125 138.4375 C-55.4375 137.125 -55.4375 137.125 -56.75 134.6875 C-57.4375 132.125 -57.4375 132.125 -57.4375 129.125 C-58.4275 128.795 -59.4175 128.465 -60.4375 128.125 C-60.7675 127.465 -61.0975 126.805 -61.4375 126.125 C-62.571875 125.67125 -63.70625 125.2175 -64.875 124.75 C-68.4375 123.125 -68.4375 123.125 -69.875 120.9375 C-70.060625 120.339375 -70.24625 119.74125 -70.4375 119.125 C-69.7775 119.125 -69.1175 119.125 -68.4375 119.125 C-69.0975 117.145 -69.7575 115.165 -70.4375 113.125 C-71.0975 113.125 -71.7575 113.125 -72.4375 113.125 C-72.4375 112.135 -72.4375 111.145 -72.4375 110.125 C-71.7775 110.125 -71.1175 110.125 -70.4375 110.125 C-70.4375 109.465 -70.4375 108.805 -70.4375 108.125 C-71.4275 108.125 -72.4175 108.125 -73.4375 108.125 C-73.9325 104.66 -73.9325 104.66 -74.4375 101.125 C-73.4475 101.125 -72.4575 101.125 -71.4375 101.125 C-71.9325 100.733125 -72.4275 100.34125 -72.9375 99.9375 C-74.89343143 97.57408285 -74.67957973 96.11064997 -74.4375 93.125 C-73.53 92.83625 -72.6225 92.5475 -71.6875 92.25 C-68.60325483 91.29040064 -68.60325483 91.29040064 -66.58984375 90.0859375 C-63.11971217 88.53665916 -59.5548673 88.66764198 -55.80078125 88.46875 C-54.63095703 88.29859375 -54.63095703 88.29859375 -53.4375 88.125 C-53.1075 87.465 -52.7775 86.805 -52.4375 86.125 C-51.7775 85.75375 -51.1175 85.3825 -50.4375 85 C-47.34364652 82.09951236 -47.70980507 79.27765233 -47.4375 75.125 C-48.9225 74.63 -48.9225 74.63 -50.4375 74.125 C-50.4375 71.815 -50.4375 69.505 -50.4375 67.125 C-52.0875 66.795 -53.7375 66.465 -55.4375 66.125 C-55.4375 65.135 -55.4375 64.145 -55.4375 63.125 C-56.0975 63.125 -56.7575 63.125 -57.4375 63.125 C-57.4375 60.485 -57.4375 57.845 -57.4375 55.125 C-58.0975 55.125 -58.7575 55.125 -59.4375 55.125 C-60.19923392 50.8085078 -60.59813604 47.38066547 -59.4375 43.125 C-58.1175 43.125 -56.7975 43.125 -55.4375 43.125 C-55.1075 42.135 -54.7775 41.145 -54.4375 40.125 C-50.8075 40.125 -47.1775 40.125 -43.4375 40.125 C-43.4375 39.135 -43.4375 38.145 -43.4375 37.125 C-42.7775 37.125 -42.1175 37.125 -41.4375 37.125 C-41.4375 35.145 -41.4375 33.165 -41.4375 31.125 C-40.4475 30.63 -40.4475 30.63 -39.4375 30.125 C-38.77977572 27.09565509 -38.77977572 27.09565509 -38.4375 24.125 C-34.27805256 22.82007531 -30.78713091 22.00480295 -26.4375 22.125 C-26.48970703 20.75214844 -26.48970703 20.75214844 -26.54296875 19.3515625 C-26.57003906 18.16304688 -26.59710938 16.97453125 -26.625 15.75 C-26.65980469 14.56664062 -26.69460937 13.38328125 -26.73046875 12.1640625 C-26.63378906 11.16117187 -26.53710938 10.15828125 -26.4375 9.125 C-19.72209126 4.64806084 -14.4010345 3.53592972 -6.4375 3.125 C-6.4375 2.465 -6.4375 1.805 -6.4375 1.125 C-4.08479407 -0.05135297 -2.616748 -0.00859359 0 0 Z M190.5625 348.125 C191.5625 350.125 191.5625 350.125 191.5625 350.125 Z M768.5625 827.125 C769.2225 827.785 769.8825 828.445 770.5625 829.125 C771.5525 828.795 772.5425 828.465 773.5625 828.125 C771.9125 827.795 770.2625 827.465 768.5625 827.125 Z " fill="#EC62DB" transform="translate(193.4375,260.875)"/>
<path d="M0 0 C2.33634657 -0.31151288 4.67038557 -0.64159778 7 -1 C7.99 -0.67 8.98 -0.34 10 0 C10.99 0 11.98 0 13 0 C12.67 1.32 12.34 2.64 12 4 C12.66 4.33 13.32 4.66 14 5 C13.67 6.65 13.34 8.3 13 10 C12.34 10 11.68 10 11 10 C11 11.32 11 12.64 11 14 C11.99 14.33 12.98 14.66 14 15 C14 16.32 14 17.64 14 19 C15.98 19.33 17.96 19.66 20 20 C20 21.32 20 22.64 20 24 C20.66 24 21.32 24 22 24 C22 25.32 22 26.64 22 28 C23.32 28 24.64 28 26 28 C26.33 29.32 26.66 30.64 27 32 C27.99 32 28.98 32 30 32 C30.66 32 31.32 32 32 32 C32 33.65 32 35.3 32 37 C32.99 37 33.98 37 35 37 C35 37.99 35 38.98 35 40 C35.66 40.33 36.32 40.66 37 41 C37.33 41.99 37.66 42.98 38 44 C38.66 44.33 39.32 44.66 40 45 C40 45.66 40 46.32 40 47 C39.34 47 38.68 47 38 47 C38 47.66 38 48.32 38 49 C38.66 49 39.32 49 40 49 C40 49.66 40 50.32 40 51 C39.34 51 38.68 51 38 51 C38.33 51.66 38.66 52.32 39 53 C39.99 52.34 40.98 51.68 42 51 C44.48046875 50.8046875 44.48046875 50.8046875 47.1875 50.875 C48.53908203 50.90207031 48.53908203 50.90207031 49.91796875 50.9296875 C50.94857422 50.96449219 50.94857422 50.96449219 52 51 C51.88557539 52.60495567 51.75805306 54.20898119 51.625 55.8125 C51.52058594 57.15248047 51.52058594 57.15248047 51.4140625 58.51953125 C51 61 51 61 49 64 C48.34 64 47.68 64 47 64 C46.90460937 64.58007812 46.80921875 65.16015625 46.7109375 65.7578125 C45.84686684 68.48295842 44.58865961 69.81191459 42.625 71.875 C39.67469449 75.11003725 37.70697424 77.98359003 36 82 C35.34 82 34.68 82 34 82 C33.74347656 82.72960937 33.48695313 83.45921875 33.22265625 84.2109375 C31.94574395 87.12376621 30.45274213 89.17641771 28.4375 91.625 C26.32513314 94.19848644 25.06114974 95.81655079 24 99 C24.66 99.5775 25.32 100.155 26 100.75 C28 103 28 103 28 107 C28.99 107 29.98 107 31 107 C31 107.66 31 108.32 31 109 C30.01 109 29.02 109 28 109 C27.67 109.99 27.34 110.98 27 112 C26.34 112 25.68 112 25 112 C24.87882812 112.63808594 24.75765625 113.27617187 24.6328125 113.93359375 C24.46523437 114.75988281 24.29765625 115.58617187 24.125 116.4375 C23.96257812 117.26121094 23.80015625 118.08492188 23.6328125 118.93359375 C23.42398437 119.61550781 23.21515625 120.29742187 23 121 C22.34 121.33 21.68 121.66 21 122 C20.09656316 123.88263881 20.09656316 123.88263881 19.375 126.0625 C18.98441406 127.16271484 18.98441406 127.16271484 18.5859375 128.28515625 C18.39257812 128.85105469 18.19921875 129.41695312 18 130 C17.34 130 16.68 130 16 130 C15.83564453 130.92232422 15.83564453 130.92232422 15.66796875 131.86328125 C15.50941406 132.67152344 15.35085938 133.47976562 15.1875 134.3125 C14.96126953 135.51326172 14.96126953 135.51326172 14.73046875 136.73828125 C13.92427764 139.23445587 12.97947998 140.32422106 11 142 C9.35 141.34 7.7 140.68 6 140 C5.31653318 141.65984798 4.65411685 143.32836805 4 145 C3.6508252 145.85223145 3.30165039 146.70446289 2.94189453 147.58251953 C1.72827821 151.98588949 1.75052209 156.01129278 1.8046875 160.5546875 C1.8075174 161.45623566 1.81034729 162.35778381 1.81326294 163.28665161 C1.82440561 166.14957276 1.8494992 169.01217434 1.875 171.875 C1.88503745 173.82291213 1.89416196 175.77082919 1.90234375 177.71875 C1.92432557 182.4792887 1.9588145 187.23959027 2 192 C1.34 192 0.68 192 0 192 C-0.66 193.32 -1.32 194.64 -2 196 C-2.66 196 -3.32 196 -4 196 C-4.33 197.65 -4.66 199.3 -5 201 C-5.66 201 -6.32 201 -7 201 C-7.061875 201.61875 -7.12375 202.2375 -7.1875 202.875 C-8 205 -8 205 -10.5625 206.25 C-11.366875 206.4975 -12.17125 206.745 -13 207 C-13 207.66 -13 208.32 -13 209 C-14.65 209.66 -16.3 210.32 -18 211 C-18 211.99 -18 212.98 -18 214 C-19.65 214.66 -21.3 215.32 -23 216 C-23 216.99 -23 217.98 -23 219 C-23.66 219 -24.32 219 -25 219 C-25 219.99 -25 220.98 -25 222 C-26.65 222.33 -28.3 222.66 -30 223 C-30.33 224.32 -30.66 225.64 -31 227 C-32.093125 227.20625 -33.18625 227.4125 -34.3125 227.625 C-38.20230641 228.6285164 -38.20230641 228.6285164 -39.6875 231.9375 C-40.120625 232.948125 -40.55375 233.95875 -41 235 C-42.30144802 236.04115841 -43.62797869 237.05377841 -45 238 C-45 238.66 -45 239.32 -45 240 C-45.928125 240.12375 -46.85625 240.2475 -47.8125 240.375 C-51.11690338 241.64010765 -51.11690338 241.64010765 -51.99609375 244.21875 C-52.49182389 245.96536398 -52.94765095 247.72388547 -53.359375 249.4921875 C-54.27966988 253.09480526 -55.19070642 255.35732568 -58.125 257.6875 C-61.82459888 259.37644731 -64.95401453 259.65711988 -69 260 C-69.0825 260.763125 -69.165 261.52625 -69.25 262.3125 C-70.17358993 265.62203057 -71.07274022 266.2924318 -74 268 C-74.886875 268.350625 -75.77375 268.70125 -76.6875 269.0625 C-79.15938605 269.76803846 -79.15938605 269.76803846 -80 272 C-80.99 272 -81.98 272 -83 272 C-83 272.99 -83 273.98 -83 275 C-84.62449243 276.70779973 -86.29220027 278.37550757 -88 280 C-88.33 280.66 -88.66 281.32 -89 282 C-89.99 282 -90.98 282 -92 282 C-92 282.66 -92 283.32 -92 284 C-92.66 284.66 -93.32 285.32 -94 286 C-95.32 286 -96.64 286 -98 286 C-98 286.99 -98 287.98 -98 289 C-101.37097383 290.49821059 -103.20442119 291 -107 291 C-107 291.99 -107 292.98 -107 294 C-107.99 294 -108.98 294 -110 294 C-110 294.66 -110 295.32 -110 296 C-110.66 296 -111.32 296 -112 296 C-112 296.66 -112 297.32 -112 298 C-112.99 298 -113.98 298 -115 298 C-115.061875 298.721875 -115.12375 299.44375 -115.1875 300.1875 C-116.25992966 303.8997565 -118.09757913 305.51221068 -121 308 C-121.99 308.33 -122.98 308.66 -124 309 C-124 310.32 -124 311.64 -124 313 C-125.11375 313.4021875 -125.11375 313.4021875 -126.25 313.8125 C-128.92992208 314.96973908 -130.8649052 316.01741197 -133 318 C-133.79623822 320.09415804 -133.79623822 320.09415804 -134 322 C-135.32 322 -136.64 322 -138 322 C-138 322.99 -138 323.98 -138 325 C-138.66 325 -139.32 325 -140 325 C-140.33 326.32 -140.66 327.64 -141 329 C-142.03125 329.185625 -143.0625 329.37125 -144.125 329.5625 C-149.86365505 331.18883949 -152.63660965 335.90622196 -155.75 340.6875 C-157.01603237 342.9462444 -157.01603237 342.9462444 -157.9375 345.1875 C-159.29611935 347.50514477 -160.50119196 348.09134253 -163 349 C-163.99 349 -164.98 349 -166 349 C-166.33 349.99 -166.66 350.98 -167 352 C-168.3153341 352.70151152 -169.65117592 353.36525925 -171 354 C-171.680625 354.7734375 -171.680625 354.7734375 -172.375 355.5625 C-174.70402275 357.62278935 -176.97538534 357.6639317 -180 358 C-180.33 358.99 -180.66 359.98 -181 361 C-181.66 361 -182.32 361 -183 361 C-183 362.32 -183 363.64 -183 365 C-184.11375 365.37125 -184.11375 365.37125 -185.25 365.75 C-188.07315072 366.83906842 -188.07315072 366.83906842 -190 369 C-192.24977792 371.24977792 -194.03817965 371.91640719 -197 373 C-199.75 374.08333333 -199.75 374.08333333 -202 376 C-202.4640625 377.7015625 -202.4640625 377.7015625 -202.9375 379.4375 C-204 383 -204 383 -207 385.4375 C-210 387 -210 387 -212 387 C-212.061875 388.3303125 -212.061875 388.3303125 -212.125 389.6875 C-213.28168653 394.06638474 -215.45037671 395.31967221 -219 398 C-219.66 398.99 -220.32 399.98 -221 401 C-221.66 401 -222.32 401 -223 401 C-224.52299523 403.93720508 -225.80100302 406.9168649 -227 410 C-227.66 410 -228.32 410 -229 410 C-229.12955078 410.8353125 -229.12955078 410.8353125 -229.26171875 411.6875 C-230.3680008 417.69593096 -232.46113374 422.04288581 -236 427 C-236.99 426.67 -237.98 426.34 -239 426 C-239 425.34 -239 424.68 -239 424 C-239.66 424 -240.32 424 -241 424 C-241.185625 424.598125 -241.37125 425.19625 -241.5625 425.8125 C-244.0447925 429.58990162 -248.23157396 430.50121317 -252.4375 431.6875 C-252.953125 431.790625 -253.46875 431.89375 -254 432 C-254.1546875 432.804375 -254.1546875 432.804375 -254.3125 433.625 C-255.18092697 436.62502044 -256.55620296 439.2379535 -258 442 C-258.66 442 -259.32 442 -260 442 C-260.33 443.32 -260.66 444.64 -261 446 C-263.31 446 -265.62 446 -268 446 C-268.268125 446.639375 -268.53625 447.27875 -268.8125 447.9375 C-270 450 -270 450 -273 451 C-273.66 451.99 -274.32 452.98 -275 454 C-276.32 454 -277.64 454 -279 454 C-279.33 455.32 -279.66 456.64 -280 458 C-281.32 458 -282.64 458 -284 458 C-284 458.66 -284 459.32 -284 460 C-284.99 460 -285.98 460 -287 460 C-287 460.66 -287 461.32 -287 462 C-288.2375 462.185625 -289.475 462.37125 -290.75 462.5625 C-293.30090829 463.18335599 -294.62396547 463.54697324 -296.31640625 465.5859375 C-297.27067815 467.35976057 -298.13773982 469.17967296 -299 471 C-300.5 472.9375 -300.5 472.9375 -302 474 C-303.32 474 -304.64 474 -306 474 C-306 474.66 -306 475.32 -306 476 C-308.87079224 479.42286767 -311.89254041 481.2885585 -316 483 C-317.32 483 -318.64 483 -320 483 C-320.33 484.32 -320.66 485.64 -321 487 C-321.66 487 -322.32 487 -323 487 C-323 487.99 -323 488.98 -323 490 C-324.1446875 490.4021875 -324.1446875 490.4021875 -325.3125 490.8125 C-329.45796222 492.64421586 -330.65714121 494.38285418 -332.875 498.375 C-336.14637801 504.23621893 -339.54679553 507.09337141 -346 509 C-346.33 509.66 -346.66 510.32 -347 511 C-347.99 510.67 -348.98 510.34 -350 510 C-350.33 509.34 -350.66 508.68 -351 508 C-351.763125 508.99 -352.52625 509.98 -353.3125 511 C-354.61328125 512.6875 -354.61328125 512.6875 -356 514 C-356.99 514 -357.98 514 -359 514 C-359 513.34 -359 512.68 -359 512 C-359.928125 512.845625 -360.85625 513.69125 -361.8125 514.5625 C-363.39453125 516.00390625 -363.39453125 516.00390625 -365 517 C-365.99 516.67 -366.98 516.34 -368 516 C-368 515.34 -368 514.68 -368 514 C-368.66 514 -369.32 514 -370 514 C-370 514.66 -370 515.32 -370 516 C-372.97 516 -375.94 516 -379 516 C-379 515.34 -379 514.68 -379 514 C-379.66 514 -380.32 514 -381 514 C-381 514.66 -381 515.32 -381 516 C-381.66 516 -382.32 516 -383 516 C-383.12375 514.865625 -383.2475 513.73125 -383.375 512.5625 C-383.58125 511.386875 -383.7875 510.21125 -384 509 C-384.66 508.67 -385.32 508.34 -386 508 C-385.67 506.68 -385.34 505.36 -385 504 C-384.34 504 -383.68 504 -383 504 C-383.33 502.68 -383.66 501.36 -384 500 C-384.66 500 -385.32 500 -386 500 C-386 497.69 -386 495.38 -386 493 C-387.65 493 -389.3 493 -391 493 C-391.495 491.515 -391.495 491.515 -392 490 C-392.928125 490.185625 -393.85625 490.37125 -394.8125 490.5625 C-398 491 -398 491 -401 490 C-400.47731534 487.23723823 -399.89130413 484.6739124 -399 482 C-400.32 482 -401.64 482 -403 482 C-403 480 -403 480 -401 478 C-402.423125 478.7425 -402.423125 478.7425 -403.875 479.5 C-407 481 -407 481 -409 481 C-409.495 479.515 -409.495 479.515 -410 478 C-410.99 478 -411.98 478 -413 478 C-413 477.34 -413 476.68 -413 476 C-414.94973404 474.92018207 -414.94973404 474.92018207 -417.0625 474.5625 C-417.701875 474.376875 -418.34125 474.19125 -419 474 C-419.33 473.34 -419.66 472.68 -420 472 C-420.763125 472.165 -421.52625 472.33 -422.3125 472.5 C-425 473 -425 473 -428 473 C-428 472.34 -428 471.68 -428 471 C-428.66 471 -429.32 471 -430 471 C-430 470.34 -430 469.68 -430 469 C-431.65 469 -433.3 469 -435 469 C-435.33 467.02 -435.66 465.04 -436 463 C-436.99 463 -437.98 463 -439 463 C-439.20496094 462.30132813 -439.40992188 461.60265625 -439.62109375 460.8828125 C-439.89050781 459.97273438 -440.15992188 459.06265625 -440.4375 458.125 C-440.70433594 457.22007812 -440.97117187 456.31515625 -441.24609375 455.3828125 C-441.92613826 453.01724619 -441.92613826 453.01724619 -443 451 C-445.02463255 450.34786708 -445.02463255 450.34786708 -447 450 C-447 449.34 -447 448.68 -447 448 C-447.66 447.67 -448.32 447.34 -449 447 C-449.33 445.35 -449.66 443.7 -450 442 C-453.96 441.34 -457.92 440.68 -462 440 C-462 439.34 -462 438.68 -462 438 C-462.59167969 437.96261719 -463.18335938 437.92523438 -463.79296875 437.88671875 C-472.37393768 437.17280453 -472.37393768 437.17280453 -476 434 C-476.8125 431.3125 -476.8125 431.3125 -477 429 C-477.99 429 -478.98 429 -480 429 C-479.67 427.02 -479.34 425.04 -479 423 C-479.66 422.67 -480.32 422.34 -481 422 C-481 419.03 -481 416.06 -481 413 C-481.99 412.67 -482.98 412.34 -484 412 C-484 411.34 -484 410.68 -484 410 C-482.02 409.67 -480.04 409.34 -478 409 C-478.4640625 407.8553125 -478.4640625 407.8553125 -478.9375 406.6875 C-479.67893593 404.81210323 -480.36228217 402.91315348 -481 401 C-481.99 401 -482.98 401 -484 401 C-484 400.01 -484 399.02 -484 398 C-483.01 397.34 -482.02 396.68 -481 396 C-481 395.01 -481 394.02 -481 393 C-480.36191406 392.89042969 -479.72382812 392.78085937 -479.06640625 392.66796875 C-477.82697266 392.43013672 -477.82697266 392.43013672 -476.5625 392.1875 C-475.73878906 392.03667969 -474.91507813 391.88585937 -474.06640625 391.73046875 C-473.38449219 391.48941406 -472.70257812 391.24835938 -472 391 C-471.67 390.01 -471.34 389.02 -471 388 C-467.9375 386.8125 -467.9375 386.8125 -465 386 C-465 385.01 -465 384.02 -465 383 C-464.34 383 -463.68 383 -463 383 C-463 379.04 -463 375.08 -463 371 C-460.03 370.34 -457.06 369.68 -454 369 C-454 368.34 -454 367.68 -454 367 C-452.68 366.34 -451.36 365.68 -450 365 C-450 364.34 -450 363.68 -450 363 C-448.81067909 355.45720161 -446.22088962 349.33133443 -442 343 C-442.515625 342.649375 -443.03125 342.29875 -443.5625 341.9375 C-445 340 -445 340 -444.6875 336.4375 C-444.460625 335.303125 -444.23375 334.16875 -444 333 C-444 332.34 -444 331.68 -444 331 C-444 329.68 -444 328.36 -444 327 C-443.34 327 -442.68 327 -442 327 C-442 327.66 -442 328.32 -442 329 C-440.02 328.67 -438.04 328.34 -436 328 C-436.99 327.34 -437.98 326.68 -439 326 C-439 325.34 -439 324.68 -439 324 C-435.7 324 -432.4 324 -429 324 C-429.99 322.02 -429.99 322.02 -431 320 C-429.68 320.33 -428.36 320.66 -427 321 C-426.67 319.68 -426.34 318.36 -426 317 C-424.68 317 -423.36 317 -422 317 C-422 316.34 -422 315.68 -422 315 C-419.36 315 -416.72 315 -414 315 C-414 314.34 -414 313.68 -414 313 C-412.25 312.25 -412.25 312.25 -410 312 C-407.75 313.9375 -407.75 313.9375 -406 316 C-404.51545194 315.40917986 -403.03745649 314.80187345 -401.5625 314.1875 C-400.73878906 313.85105469 -399.91507813 313.51460938 -399.06640625 313.16796875 C-396.66627512 312.11596912 -396.66627512 312.11596912 -396 309 C-393.71302681 308.08960875 -391.41684635 307.54158001 -389.03125 306.94140625 C-388.02578125 306.47541016 -388.02578125 306.47541016 -387 306 C-386.38413605 303.98984105 -386.38413605 303.98984105 -386 302 C-385.01 301.67 -384.02 301.34 -383 301 C-383 299.35 -383 297.7 -383 296 C-381.35 295.67 -379.7 295.34 -378 295 C-377.34 293.02 -376.68 291.04 -376 289 C-375.01 289 -374.02 289 -373 289 C-373 288.34 -373 287.68 -373 287 C-372.01 287 -371.02 287 -370 287 C-370 286.34 -370 285.68 -370 285 C-369.34 284.67 -368.68 284.34 -368 284 C-368 283.34 -368 282.68 -368 282 C-366.68 281.67 -365.36 281.34 -364 281 C-364 280.01 -364 279.02 -364 278 C-362.35 278 -360.7 278 -359 278 C-359 277.34 -359 276.68 -359 276 C-358.34 275.67 -357.68 275.34 -357 275 C-357.33 273.68 -357.66 272.36 -358 271 C-355.69 271 -353.38 271 -351 271 C-350.67 268.69 -350.34 266.38 -350 264 C-347.36 263.34 -344.72 262.68 -342 262 C-342 261.34 -342 260.68 -342 260 C-342.99 260 -343.98 260 -345 260 C-345 259.34 -345 258.68 -345 258 C-344.01 258 -343.02 258 -342 258 C-342 257.34 -342 256.68 -342 256 C-339.03 255.67 -336.06 255.34 -333 255 C-333 253.68 -333 252.36 -333 251 C-333.99 251 -334.98 251 -336 251 C-336 250.34 -336 249.68 -336 249 C-334.02 249 -332.04 249 -330 249 C-330 248.34 -330 247.68 -330 247 C-329.01 246.67 -328.02 246.34 -327 246 C-327 245.34 -327 244.68 -327 244 C-326.43410156 243.76925781 -325.86820313 243.53851563 -325.28515625 243.30078125 C-323.06958715 242.31565123 -321.02342445 241.33896798 -319 240 C-317.87184635 237.3852733 -317.87184635 237.3852733 -318 235 C-315.69 234.67 -313.38 234.34 -311 234 C-310.67 233.01 -310.34 232.02 -310 231 C-309.34 231 -308.68 231 -308 231 C-307.9175 230.21625 -307.835 229.4325 -307.75 228.625 C-307 226 -307 226 -304.9375 224.6875 C-304.298125 224.460625 -303.65875 224.23375 -303 224 C-303 223.34 -303 222.68 -303 222 C-302.34 221.67 -301.68 221.34 -301 221 C-301.33 220.01 -301.66 219.02 -302 218 C-299.36 217.67 -296.72 217.34 -294 217 C-294 216.34 -294 215.68 -294 215 C-294.99 214.34 -295.98 213.68 -297 213 C-297 211.68 -297 210.36 -297 209 C-297.66 209 -298.32 209 -299 209 C-299 208.01 -299 207.02 -299 206 C-296 204 -296 204 -293 204 C-293.33 202.02 -293.66 200.04 -294 198 C-292.68 197.67 -291.36 197.34 -290 197 C-290 195.68 -290 194.36 -290 193 C-288.02 193.33 -286.04 193.66 -284 194 C-284.33 192.35 -284.66 190.7 -285 189 C-279.10642669 187.03547556 -273.02503885 186.47528134 -266.8828125 185.75 C-263.21679384 185.30731095 -259.60821089 184.78929613 -256 184 C-255.67 182.68 -255.34 181.36 -255 180 C-254.34 180 -253.68 180 -253 180 C-252.34 178.68 -251.68 177.36 -251 176 C-249.68 176.66 -248.36 177.32 -247 178 C-247 177.34 -247 176.68 -247 176 C-247.66 176 -248.32 176 -249 176 C-248.67 175.01 -248.34 174.02 -248 173 C-247.01 173 -246.02 173 -245 173 C-244.67 172.01 -244.34 171.02 -244 170 C-243.01 170 -242.02 170 -241 170 C-241 168.68 -241 167.36 -241 166 C-240.34 166 -239.68 166 -239 166 C-239 165.34 -239 164.68 -239 164 C-238.360625 163.525625 -237.72125 163.05125 -237.0625 162.5625 C-234.71627037 161.0908635 -234.71627037 161.0908635 -234 158 C-232.68 158 -231.36 158 -230 158 C-230 157.34 -230 156.68 -230 156 C-229.01 156 -228.02 156 -227 156 C-226.67 154.35 -226.34 152.7 -226 151 C-225.01 151 -224.02 151 -223 151 C-223 150.34 -223 149.68 -223 149 C-220 147 -220 147 -217 147 C-217 146.01 -217 145.02 -217 144 C-215.5459375 143.566875 -215.5459375 143.566875 -214.0625 143.125 C-210.89335797 142.35785318 -210.89335797 142.35785318 -210 140 C-209.34 140 -208.68 140 -208 140 C-208 138.02 -208 136.04 -208 134 C-205.69 134 -203.38 134 -201 134 C-200.9175 133.4225 -200.835 132.845 -200.75 132.25 C-199.76143565 129.28430694 -198.39179647 127.99316373 -196 126 C-195.113125 125.649375 -194.22625 125.29875 -193.3125 124.9375 C-192.549375 124.628125 -191.78625 124.31875 -191 124 C-190.67 123.01 -190.34 122.02 -190 121 C-188.68 121 -187.36 121 -186 121 C-186 119.35 -186 117.7 -186 116 C-184.35 115.67 -182.7 115.34 -181 115 C-181 114.01 -181 113.02 -181 112 C-177.535 111.01 -177.535 111.01 -174 110 C-173.67 108.02 -173.34 106.04 -173 104 C-171.02 103.34 -169.04 102.68 -167 102 C-167 101.34 -167 100.68 -167 100 C-166.01 100 -165.02 100 -164 100 C-164 99.01 -164 98.02 -164 97 C-163.01 97 -162.02 97 -161 97 C-161 96.34 -161 95.68 -161 95 C-160.34 95 -159.68 95 -159 95 C-159 93.68 -159 92.36 -159 91 C-158.030625 90.71125 -157.06125 90.4225 -156.0625 90.125 C-152.89335797 89.35785318 -152.89335797 89.35785318 -152 87 C-149.49609375 86.1484375 -149.49609375 86.1484375 -146.4375 85.375 C-144.91962891 84.98441406 -144.91962891 84.98441406 -143.37109375 84.5859375 C-142.58863281 84.39257812 -141.80617188 84.19921875 -141 84 C-141 83.34 -141 82.68 -141 82 C-137.535 81.505 -137.535 81.505 -134 81 C-133.938125 80.278125 -133.87625 79.55625 -133.8125 78.8125 C-132.69151697 74.93217413 -131.26730444 73.36358193 -128 71 C-125.11198409 70.87699191 -122.86205521 71.36937767 -120 72 C-119.855625 71.38125 -119.71125 70.7625 -119.5625 70.125 C-119 68 -119 68 -118 66 C-117.34 66 -116.68 66 -116 66 C-115.67 65.01 -115.34 64.02 -115 63 C-113.5625 61.3125 -113.5625 61.3125 -112 60 C-111.34 60 -110.68 60 -110 60 C-109.67 60.66 -109.34 61.32 -109 62 C-108.34 62 -107.68 62 -107 62 C-106.67 61.01 -106.34 60.02 -106 59 C-103.67793475 58.29508733 -101.34406932 57.62787571 -99 57 C-98.67 56.34 -98.34 55.68 -98 55 C-96.66666667 54.33333333 -95.33333333 53.66666667 -94 53 C-93.67 52.34 -93.34 51.68 -93 51 C-90.69289122 50.40103907 -88.38311282 50.04345035 -86.03125 49.66015625 C-85.3609375 49.44230469 -84.690625 49.22445312 -84 49 C-83.67 48.01 -83.34 47.02 -83 46 C-81.33927151 45.31867549 -79.672233 44.65257873 -78 44 C-77.34 43.01 -76.68 42.02 -76 41 C-74.33333333 40.66666667 -72.66666667 40.33333333 -71 40 C-70.34 39.01 -69.68 38.02 -69 37 C-66.8359375 36.48828125 -66.8359375 36.48828125 -64.375 36.3125 C-63.55773438 36.24675781 -62.74046875 36.18101563 -61.8984375 36.11328125 C-61.27195312 36.07589844 -60.64546875 36.03851563 -60 36 C-59.67 36.66 -59.34 37.32 -59 38 C-58.34 38 -57.68 38 -57 38 C-56.67 36.35 -56.34 34.7 -56 33 C-55.34 33 -54.68 33 -54 33 C-53.67 31.35 -53.34 29.7 -53 28 C-51.88625 27.7834375 -51.88625 27.7834375 -50.75 27.5625 C-49.8425 27.376875 -48.935 27.19125 -48 27 C-46.88625 26.7834375 -46.88625 26.7834375 -45.75 26.5625 C-45.1725 26.376875 -44.595 26.19125 -44 26 C-43.67 25.34 -43.34 24.68 -43 24 C-42.05125 23.896875 -41.1025 23.79375 -40.125 23.6875 C-36.84428114 23.34193446 -36.84428114 23.34193446 -35.4375 20.6875 C-34.7259375 19.3571875 -34.7259375 19.3571875 -34 18 C-29.67567568 14 -29.67567568 14 -26 14 C-24.66891142 12.36419432 -24.66891142 12.36419432 -23.5625 10.25 C-19.74958421 3.89140219 -16.72655667 1.43208005 -9.5234375 -0.54296875 C-6.16333902 -1.15153148 -3.33580163 -0.62939653 0 0 Z M-256 184 C-256 184.66 -256 185.32 -256 186 C-255.34 185.67 -254.68 185.34 -254 185 C-254.66 184.67 -255.32 184.34 -256 184 Z M-358 508 C-357 510 -357 510 -357 510 Z " fill="#EC62DB" transform="translate(1111,69)"/>
<path d="M0 0 C3 1.8125 3 1.8125 6 4 C6 4.99 6 5.98 6 7 C4.35 6.67 2.7 6.34 1 6 C1 5.34 1 4.68 1 4 C0.34 4 -0.32 4 -1 4 C-0.67 2.68 -0.34 1.36 0 0 Z " fill="#ED63DB" transform="translate(729,930)"/>
<path d="M0 0 C2 1 4 2 6 3 C6 3.66 6 4.32 6 5 C4.125 4.75 4.125 4.75 2 4 C0.75 1.9375 0.75 1.9375 0 0 Z " fill="#ED63DB" transform="translate(524,933)"/>
<path d="M0 0 C1.98 0.99 1.98 0.99 4 2 C2.68 2 1.36 2 0 2 C0 1.34 0 0.68 0 0 Z " fill="#ED63DB" transform="translate(490,934)"/>
<path d="M0 0 C0.66 0 1.32 0 2 0 C2 0.66 2 1.32 2 2 C1.34 2 0.68 2 0 2 C0 1.34 0 0.68 0 0 Z " fill="#ED62DB" transform="translate(1088,1078)"/>
<path d="" fill="#ED63DC" transform="translate(0,0)"/>
<path d="" fill="#ED63DB" transform="translate(0,0)"/>
<path d="" fill="#ED63DC" transform="translate(0,0)"/>
<path d="" fill="#ED63DC" transform="translate(0,0)"/>
<path d="" fill="#ED63DB" transform="translate(0,0)"/>
</svg>
