<?xml version="1.0" encoding="UTF-8"?>
<svg xmlns="http://www.w3.org/2000/svg" xmlns:xlink="http://www.w3.org/1999/xlink" width="400px" height="400px" viewBox="0 0 400 400" version="1.1">
<g id="surface1">
<path style=" stroke:none;fill-rule:nonzero;fill:rgb(92.54902%,38.431373%,85.882354%);fill-opacity:1;" d="M 64.480469 86.957031 C 64.871094 86.957031 64.871094 86.957031 65.269531 86.957031 C 66 87 66 87 67 87.332031 C 67 87.554688 67 87.773438 67 88 C 67.246094 88.046875 67.496094 88.097656 67.75 88.144531 C 68.300781 88.257812 68.851562 88.378906 69.394531 88.519531 C 70.003906 88.691406 70.003906 88.691406 70.667969 88.667969 C 70.777344 88.996094 70.886719 89.328125 71 89.667969 C 71.402344 89.707031 71.800781 89.746094 72.214844 89.789062 C 72.742188 89.84375 73.265625 89.902344 73.792969 89.957031 C 74.1875 89.996094 74.1875 89.996094 74.59375 90.039062 C 76.589844 90.257812 76.589844 90.257812 77.332031 91 C 77.871094 91.171875 78.414062 91.320312 78.957031 91.457031 C 80.292969 91.839844 81.167969 92.160156 82 93.332031 C 82 93.554688 82 93.773438 82 94 C 82.316406 94.011719 82.636719 94.023438 82.960938 94.039062 C 83.378906 94.058594 83.796875 94.082031 84.230469 94.105469 C 84.644531 94.125 85.058594 94.144531 85.484375 94.164062 C 86.699219 94.335938 87.324219 94.671875 88.332031 95.332031 C 89.085938 95.265625 89.085938 95.265625 89.667969 95 C 89.777344 95.328125 89.886719 95.660156 90 96 C 90.308594 96.132812 90.308594 96.132812 90.625 96.269531 C 91.636719 96.835938 91.851562 97.640625 92.332031 98.667969 C 92.554688 98.777344 92.773438 98.886719 93 99 C 93.332031 99.777344 93.667969 100.554688 94 101.332031 C 94.21875 101.441406 94.441406 101.554688 94.667969 101.667969 C 94.796875 102.441406 94.835938 103.207031 94.886719 103.988281 C 94.921875 104.214844 94.960938 104.4375 95 104.667969 C 95.21875 104.777344 95.441406 104.886719 95.667969 105 C 95.757812 105.273438 95.84375 105.550781 95.9375 105.832031 C 96.066406 106.109375 96.199219 106.382812 96.332031 106.667969 C 97.074219 106.867188 97.074219 106.867188 98 107 C 103.242188 108.238281 103.242188 108.238281 105.332031 109.667969 C 105.332031 109.886719 105.332031 110.105469 105.332031 110.332031 C 105.613281 110.414062 105.898438 110.5 106.1875 110.582031 C 107.460938 111.046875 108.507812 111.636719 109.667969 112.332031 C 109.667969 112.664062 109.667969 112.992188 109.667969 113.332031 C 110.101562 113.292969 110.53125 113.25 110.980469 113.207031 C 112.675781 113.207031 113.578125 113.789062 114.914062 114.785156 C 115.660156 115.328125 116.40625 115.730469 117.230469 116.144531 C 118.527344 116.84375 119.351562 117.648438 120.238281 118.816406 C 120.703125 119.425781 120.703125 119.425781 121.667969 120 C 121.65625 120.671875 121.644531 121.339844 121.617188 122.011719 C 121.613281 122.742188 121.613281 122.742188 122.25 123.457031 C 122.929688 123.949219 123.566406 124.335938 124.332031 124.667969 C 124.332031 124.886719 124.332031 125.105469 124.332031 125.332031 C 124.554688 125.332031 124.773438 125.332031 125 125.332031 C 125.554688 125.890625 126.109375 126.445312 126.667969 127 C 126.996094 127.109375 127.328125 127.21875 127.667969 127.332031 C 128.117188 127.769531 128.5625 128.214844 129 128.667969 C 129.21875 128.777344 129.441406 128.886719 129.667969 129 C 129.667969 129.21875 129.667969 129.441406 129.667969 129.667969 C 129.886719 129.667969 130.105469 129.667969 130.332031 129.667969 C 130.472656 129.90625 130.609375 130.148438 130.75 130.394531 C 131.308594 131.402344 131.308594 131.402344 132.355469 132.167969 C 133.359375 133.023438 133.539062 133.484375 134 134.667969 C 134.679688 134.960938 134.679688 134.960938 135.332031 135 C 135.332031 135.21875 135.332031 135.441406 135.332031 135.667969 C 135.773438 135.667969 136.214844 135.667969 136.667969 135.667969 C 136.667969 135.886719 136.667969 136.105469 136.667969 136.332031 C 136.996094 136.332031 137.328125 136.332031 137.667969 136.332031 C 137.667969 136.882812 137.667969 137.433594 137.667969 138 C 137.886719 138 138.105469 138 138.332031 138 C 138.671875 138.324219 139.007812 138.660156 139.332031 139 C 139.554688 139.109375 139.773438 139.21875 140 139.332031 C 140 139.554688 140 139.773438 140 140 C 140.21875 140 140.441406 140 140.667969 140 C 140.667969 140.21875 140.667969 140.441406 140.667969 140.667969 C 140.945312 140.789062 140.945312 140.789062 141.230469 140.917969 C 142.140625 141.410156 142.890625 141.976562 143.667969 142.667969 C 143.667969 142.886719 143.667969 143.105469 143.667969 143.332031 C 143.878906 143.367188 144.09375 143.402344 144.3125 143.4375 C 144.652344 143.550781 144.652344 143.550781 145 143.667969 C 145.109375 143.996094 145.21875 144.328125 145.332031 144.667969 C 146 145.070312 146 145.070312 146.667969 145.332031 C 146.667969 145.554688 146.667969 145.773438 146.667969 146 C 147.328125 146.21875 147.988281 146.441406 148.667969 146.667969 C 148.667969 146.886719 148.667969 147.105469 148.667969 147.332031 C 150.152344 147.828125 150.152344 147.828125 151.667969 148.332031 C 151.667969 148.554688 151.667969 148.773438 151.667969 149 C 152.214844 149.21875 152.765625 149.441406 153.332031 149.667969 C 153.332031 149.886719 153.332031 150.105469 153.332031 150.332031 C 153.539062 150.414062 153.746094 150.5 153.957031 150.582031 C 154.800781 151.078125 154.90625 151.480469 155.332031 152.332031 C 155.945312 152.707031 155.945312 152.707031 156.667969 153 C 158.265625 153.835938 158.265625 153.835938 158.625 154.6875 C 158.980469 155.460938 158.980469 155.460938 160.105469 155.6875 C 160.511719 155.789062 160.914062 155.894531 161.332031 156 C 162.3125 156.5 162.3125 156.5 163 157 C 163 157.21875 163 157.441406 163 157.667969 C 163.316406 157.769531 163.632812 157.871094 163.957031 157.980469 C 165 158.332031 165 158.332031 165.667969 158.667969 C 165.667969 158.886719 165.667969 159.105469 165.667969 159.332031 C 166.070312 159.445312 166.070312 159.445312 166.480469 159.5625 C 167.972656 160.113281 169.296875 160.867188 170.667969 161.667969 C 170.667969 161.996094 170.667969 162.328125 170.667969 162.667969 C 171.386719 163.296875 171.386719 163.296875 172.292969 163.875 C 172.59375 164.078125 172.894531 164.28125 173.207031 164.492188 C 173.964844 164.996094 173.964844 164.996094 174.667969 165.332031 C 174.804688 166.023438 174.804688 166.023438 174.875 166.855469 C 174.914062 167.265625 174.914062 167.265625 174.949219 167.6875 C 174.96875 167.902344 174.984375 168.113281 175 168.332031 C 175.371094 168.324219 175.371094 168.324219 175.75 168.3125 C 176.667969 168.667969 176.667969 168.667969 177.050781 169.34375 C 177.277344 169.886719 177.496094 170.4375 177.703125 170.988281 C 177.941406 171.726562 177.941406 171.726562 178.667969 172 C 178.667969 172.21875 178.667969 172.441406 178.667969 172.667969 C 180.097656 172.667969 181.527344 172.667969 183 172.667969 C 183.109375 172.445312 183.21875 172.226562 183.332031 172 C 183.476562 172.164062 183.621094 172.328125 183.769531 172.5 C 184.332031 173.109375 184.332031 173.109375 185.332031 173 C 185.222656 173.328125 185.113281 173.660156 185 174 C 185.660156 174.328125 186.320312 174.660156 187 175 C 187 175.21875 187 175.441406 187 175.667969 C 187.324219 175.769531 187.644531 175.871094 187.980469 175.980469 C 189 176.332031 189 176.332031 189.332031 176.667969 C 189.347656 177.332031 189.347656 178 189.332031 178.667969 C 189.644531 178.757812 189.953125 178.84375 190.269531 178.9375 C 191.847656 179.523438 191.847656 179.523438 192.332031 180.332031 C 192.414062 181.238281 192.378906 182.085938 192.332031 183 C 192.113281 183 191.894531 183 191.667969 183 C 191.667969 183.21875 191.667969 183.441406 191.667969 183.667969 C 191.886719 183.667969 192.105469 183.667969 192.332031 183.667969 C 192.332031 183.996094 192.332031 184.328125 192.332031 184.667969 C 192.636719 184.722656 192.636719 184.722656 192.941406 184.777344 C 194.449219 185.078125 195.46875 185.335938 196.667969 186.332031 C 197.058594 186.5 197.449219 186.664062 197.855469 186.832031 C 199.386719 187.5 199.386719 187.5 200 188.332031 C 200 188.554688 200 188.773438 200 189 C 200.660156 189.109375 201.320312 189.21875 202 189.332031 C 202.109375 189.664062 202.21875 189.992188 202.332031 190.332031 C 202.664062 190.554688 202.992188 190.773438 203.332031 191 C 203.441406 191.328125 203.554688 191.660156 203.667969 192 C 203.996094 192.109375 204.328125 192.21875 204.667969 192.332031 C 205.023438 192.988281 205.355469 193.65625 205.667969 194.332031 C 205.886719 194.664062 206.105469 194.992188 206.332031 195.332031 C 206.554688 196 206.777344 196.667969 207 197.332031 C 207.574219 198.417969 207.574219 198.417969 208.667969 198.667969 C 208.667969 198.886719 208.667969 199.105469 208.667969 199.332031 C 208.933594 199.421875 209.203125 199.511719 209.480469 199.605469 C 209.761719 199.734375 210.042969 199.867188 210.332031 200 C 210.441406 200.328125 210.554688 200.660156 210.667969 201 C 211.441406 201.238281 212.21875 201.460938 213 201.667969 C 213.21875 201.886719 213.441406 202.105469 213.667969 202.332031 C 214.042969 202.4375 214.421875 202.539062 214.8125 202.644531 C 215.980469 202.992188 216.226562 203.15625 217 204 C 217.867188 204.398438 217.867188 204.398438 218.667969 204.667969 C 218.667969 204.886719 218.667969 205.105469 218.667969 205.332031 C 218.863281 205.417969 219.058594 205.5 219.257812 205.585938 C 221 206.554688 222.453125 208.421875 223 210.332031 C 223.109375 210.664062 223.21875 210.992188 223.332031 211.332031 C 224.167969 211.738281 224.167969 211.738281 225 212 C 225 212.21875 225 212.441406 225 212.667969 C 225.359375 212.644531 225.359375 212.644531 225.730469 212.625 C 226.765625 212.671875 227.425781 212.832031 228.332031 213.332031 C 228.542969 214.019531 228.542969 214.019531 228.667969 214.667969 C 228.996094 214.777344 229.328125 214.886719 229.667969 215 C 229.667969 215.21875 229.667969 215.441406 229.667969 215.667969 C 229.84375 215.699219 230.023438 215.734375 230.207031 215.769531 C 231.214844 216.0625 232.074219 216.507812 233 217 C 233.316406 217.164062 233.632812 217.328125 233.957031 217.5 C 234.191406 217.664062 234.425781 217.828125 234.667969 218 C 234.667969 218.328125 234.667969 218.660156 234.667969 219 C 234.886719 219 235.105469 219 235.332031 219 C 235.441406 219.328125 235.554688 219.660156 235.667969 220 C 235.941406 220.136719 236.214844 220.273438 236.5 220.417969 C 237.332031 221 237.332031 221 237.605469 222.230469 C 237.636719 222.777344 237.636719 222.777344 237.667969 223.332031 C 237.996094 223.441406 238.328125 223.554688 238.667969 223.667969 C 238.789062 223.90625 238.914062 224.148438 239.042969 224.394531 C 239.847656 225.601562 240.816406 226.148438 242.046875 226.890625 C 242.25 227.035156 242.457031 227.183594 242.667969 227.332031 C 242.667969 227.554688 242.667969 227.773438 242.667969 228 C 242.914062 228.089844 243.160156 228.179688 243.417969 228.269531 C 244.542969 228.757812 245.429688 229.175781 245.980469 230.3125 C 246.96875 232.230469 249.265625 232.984375 251.117188 233.84375 C 252 234.332031 252 234.332031 252.667969 235.332031 C 252.996094 235.441406 253.328125 235.554688 253.667969 235.667969 C 253.667969 235.886719 253.667969 236.105469 253.667969 236.332031 C 253.984375 236.4375 254.300781 236.539062 254.625 236.644531 C 255.667969 237 255.667969 237 256.332031 237.332031 C 256.332031 237.554688 256.332031 237.773438 256.332031 238 C 256.882812 238.109375 257.433594 238.21875 258 238.332031 C 258.109375 238.664062 258.21875 238.992188 258.332031 239.332031 C 258.554688 239.332031 258.773438 239.332031 259 239.332031 C 259 239.664062 259 239.992188 259 240.332031 C 259.21875 240.332031 259.441406 240.332031 259.667969 240.332031 C 259.667969 240.554688 259.667969 240.773438 259.667969 241 C 259.976562 241.035156 260.285156 241.070312 260.605469 241.105469 C 261.742188 241.351562 261.957031 241.46875 262.667969 242.332031 C 263.71875 243.46875 264.511719 244.199219 266 244.667969 C 266 244.886719 266 245.105469 266 245.332031 C 266.441406 245.554688 266.878906 245.773438 267.332031 246 C 267.332031 246.328125 267.332031 246.660156 267.332031 247 C 267.554688 247 267.773438 247 268 247 C 267.890625 247.550781 267.78125 248.101562 267.667969 248.667969 C 267.886719 248.777344 268.105469 248.886719 268.332031 249 C 268.441406 249.328125 268.554688 249.660156 268.667969 250 C 269.105469 250.234375 269.550781 250.457031 270 250.667969 C 270.109375 250.886719 270.21875 251.105469 270.332031 251.332031 C 270.644531 251.488281 270.644531 251.488281 270.957031 251.644531 C 271.667969 252 271.667969 252 272.144531 252.5 C 272.800781 253.128906 273.492188 253.335938 274.332031 253.667969 C 274.441406 253.886719 274.554688 254.105469 274.667969 254.332031 C 275.328125 254.574219 275.992188 254.800781 276.667969 255 C 276.667969 255.21875 276.667969 255.441406 276.667969 255.667969 C 276.996094 255.777344 277.328125 255.886719 277.667969 256 C 277.667969 256.660156 277.667969 257.320312 277.667969 258 C 277.996094 258 278.328125 258 278.667969 258 C 278.886719 258.328125 279.105469 258.660156 279.332031 259 C 279.664062 259.109375 279.992188 259.21875 280.332031 259.332031 C 280.441406 259.554688 280.554688 259.773438 280.667969 260 C 281.292969 260.300781 281.292969 260.300781 282.019531 260.542969 C 282.265625 260.628906 282.511719 260.714844 282.761719 260.804688 C 283.042969 260.902344 283.042969 260.902344 283.332031 261 C 283.332031 261.328125 283.332031 261.660156 283.332031 262 C 283.671875 262.082031 284.007812 262.164062 284.355469 262.25 C 285.71875 262.640625 286.804688 263.234375 288 264 C 288.109375 264.21875 288.21875 264.441406 288.332031 264.667969 C 289.003906 265.042969 289.003906 265.042969 289.667969 265.332031 C 289.667969 265.554688 289.667969 265.773438 289.667969 266 C 289.871094 266.101562 290.078125 266.207031 290.292969 266.3125 C 290.75 266.542969 291.207031 266.769531 291.667969 267 C 291.667969 267.21875 291.667969 267.441406 291.667969 267.667969 C 291.933594 267.757812 292.203125 267.84375 292.480469 267.9375 C 292.902344 268.132812 292.902344 268.132812 293.332031 268.332031 C 293.441406 268.664062 293.554688 268.992188 293.667969 269.332031 C 294.332031 269.734375 294.332031 269.734375 295 270 C 295 270.21875 295 270.441406 295 270.667969 C 295.328125 270.667969 295.660156 270.667969 296 270.667969 C 296.082031 270.871094 296.164062 271.078125 296.25 271.289062 C 296.75 272.140625 297.125 272.320312 298.019531 272.707031 C 299.300781 273.269531 299.300781 273.269531 299.667969 274 C 299.941406 273.953125 300.214844 273.902344 300.5 273.855469 C 302.019531 274.042969 302.609375 274.691406 303.691406 275.726562 C 304.324219 276.351562 304.324219 276.351562 305.074219 276.855469 C 305.269531 277.011719 305.464844 277.171875 305.667969 277.332031 C 305.75 278.230469 305.75 278.230469 305.667969 279 C 306.003906 279.089844 306.339844 279.179688 306.6875 279.269531 C 310.058594 280.261719 310.058594 280.261719 311 281.644531 C 311.328125 282.652344 311.40625 283.042969 311 284 C 311.234375 284.0625 311.46875 284.125 311.707031 284.1875 C 312.863281 284.765625 313.433594 285.476562 314.222656 286.480469 C 314.644531 287.042969 314.644531 287.042969 315.332031 287.332031 C 316.332031 289.140625 316.332031 289.140625 316.332031 290 C 316.519531 290.019531 316.703125 290.042969 316.894531 290.0625 C 317.984375 290.445312 318.527344 291.175781 319.332031 292 C 319.75 292.304688 320.175781 292.605469 320.605469 292.894531 C 320.953125 293.148438 321.304688 293.40625 321.667969 293.667969 C 321.667969 293.886719 321.667969 294.105469 321.667969 294.332031 C 322.105469 294.332031 322.546875 294.332031 323 294.332031 C 323.707031 295.3125 323.707031 295.3125 324.332031 296.332031 C 324.554688 296.441406 324.773438 296.554688 325 296.667969 C 325 296.996094 325 297.328125 325 297.667969 C 325.207031 297.699219 325.414062 297.734375 325.625 297.769531 C 326.332031 298 326.332031 298 327 299 C 327.328125 299.109375 327.660156 299.21875 328 299.332031 C 328.109375 299.664062 328.21875 299.992188 328.332031 300.332031 C 329.03125 300.941406 329.03125 300.941406 329.855469 301.519531 C 330.359375 301.886719 330.855469 302.265625 331.332031 302.667969 C 331.332031 302.886719 331.332031 303.105469 331.332031 303.332031 C 331.527344 303.421875 331.71875 303.511719 331.917969 303.605469 C 332.667969 304 332.667969 304 333.292969 304.5 C 334.160156 305.113281 334.988281 305.339844 336 305.667969 C 338.714844 306.59375 338.714844 306.59375 339.40625 307.582031 C 339.507812 307.789062 339.605469 307.996094 339.707031 308.207031 C 340.195312 309.335938 340.195312 309.335938 340.929688 309.632812 C 341.648438 309.84375 341.648438 309.84375 342.667969 310 C 342.667969 310.21875 342.667969 310.441406 342.667969 310.667969 C 343.214844 310.777344 343.765625 310.886719 344.332031 311 C 344.332031 311.550781 344.332031 312.101562 344.332031 312.667969 C 344.648438 312.699219 344.964844 312.734375 345.292969 312.769531 C 346.332031 313 346.332031 313 347 314 C 347.445312 314.113281 347.886719 314.226562 348.332031 314.332031 C 348.667969 314.667969 349 315 349.332031 315.332031 C 349.886719 315.558594 350.445312 315.78125 351 316 C 351.109375 316.21875 351.21875 316.441406 351.332031 316.667969 C 352.113281 316.824219 352.898438 316.941406 353.6875 317.042969 C 354.332031 317.125 354.332031 317.125 354.992188 317.210938 C 355.324219 317.25 355.65625 317.292969 356 317.332031 C 356 317.554688 356 317.773438 356 318 C 356.300781 318.089844 356.605469 318.179688 356.917969 318.269531 C 357.925781 318.640625 358.5 319.019531 359.332031 319.667969 C 359.882812 319.902344 360.4375 320.128906 361 320.332031 C 361 320.554688 361 320.773438 361 321 C 361.207031 321.046875 361.414062 321.097656 361.625 321.144531 C 362.332031 321.332031 362.332031 321.332031 363 321.667969 C 363 321.886719 363 322.105469 363 322.332031 C 363.261719 322.4375 363.523438 322.539062 363.792969 322.644531 C 364.667969 323 364.667969 323 365.332031 323.332031 C 365.332031 323.554688 365.332031 323.773438 365.332031 324 C 365.585938 324.046875 365.84375 324.097656 366.105469 324.144531 C 367.597656 324.457031 368.421875 324.753906 369.332031 326 C 369.546875 327.109375 369.625 328.207031 369.667969 329.332031 C 369.886719 329.332031 370.105469 329.332031 370.332031 329.332031 C 370.429688 329.65625 370.527344 329.980469 370.625 330.3125 C 370.878906 331.367188 370.878906 331.367188 371.667969 331.667969 C 371.730469 333.683594 371.730469 333.683594 371.667969 334.332031 C 371.445312 334.554688 371.226562 334.773438 371 335 C 370.890625 335.390625 370.78125 335.785156 370.667969 336.1875 C 370.558594 336.566406 370.445312 336.945312 370.332031 337.332031 C 370.113281 337.441406 369.894531 337.554688 369.667969 337.667969 C 369.667969 338.65625 369.667969 339.648438 369.667969 340.667969 C 369.886719 340.667969 370.105469 340.667969 370.332031 340.667969 C 370.863281 342.292969 371.066406 343.601562 371 345.332031 C 371 345.664062 371 345.992188 371 346.332031 C 371.21875 346.554688 371.441406 346.773438 371.667969 347 C 371.667969 347.328125 371.667969 347.660156 371.667969 348 C 371.445312 348 371.226562 348 371 348 C 371.007812 348.191406 371.015625 348.386719 371.023438 348.585938 C 371.0625 350.203125 370.957031 351.476562 370.332031 353 C 370.113281 353 369.894531 353 369.667969 353 C 369.65625 353.257812 369.648438 353.515625 369.640625 353.777344 C 369.621094 354.113281 369.601562 354.445312 369.582031 354.792969 C 369.558594 355.289062 369.558594 355.289062 369.535156 355.800781 C 369.332031 356.667969 369.332031 356.667969 368.707031 357.113281 C 367.886719 357.367188 367.191406 357.382812 366.332031 357.332031 C 366.332031 357.554688 366.332031 357.773438 366.332031 358 C 365.894531 358 365.453125 358 365 358 C 364.890625 358.328125 364.78125 358.660156 364.667969 359 C 363.785156 359 362.90625 359 362 359 C 362 359.21875 362 359.441406 362 359.667969 C 360.625 360.097656 359.445312 360.421875 358 360.332031 C 358 360.554688 358 360.773438 358 361 C 356.5625 361.53125 355.179688 362.023438 353.644531 362.167969 C 352.582031 362.300781 351.953125 362.453125 351 362.855469 C 349.617188 363.417969 348.480469 363.414062 347 363.332031 C 347 363.664062 347 363.992188 347 364.332031 C 345.898438 364.222656 344.800781 364.113281 343.667969 364 C 343.667969 363.78125 343.667969 363.558594 343.667969 363.332031 C 343.183594 363.363281 343.183594 363.363281 342.6875 363.394531 C 340.917969 363.402344 339.238281 362.785156 337.667969 362 C 337.667969 362.328125 337.667969 362.660156 337.667969 363 C 335.515625 363.132812 333.980469 362.863281 332 362 C 332 362.21875 332 362.441406 332 362.667969 C 331.230469 362.558594 330.460938 362.445312 329.667969 362.332031 C 329.667969 362.554688 329.667969 362.773438 329.667969 363 C 328.296875 363.285156 327.355469 363.285156 326 363 C 325 362.96875 324 362.980469 323 363 C 323 363.21875 323 363.441406 323 363.667969 C 321.601562 364.433594 320.550781 364.320312 319.027344 364.097656 C 317.648438 363.90625 316.371094 364.125 315 364.332031 C 314.890625 364.003906 314.78125 363.671875 314.667969 363.332031 C 313.457031 363.441406 312.246094 363.554688 311 363.667969 C 311 363.886719 311 364.105469 311 364.332031 C 310.3125 364.625 310.3125 364.625 309.332031 364.667969 C 308.449219 364.105469 307.691406 363.453125 307 362.667969 C 307 362.445312 307 362.226562 307 362 C 305.429688 361.992188 303.859375 361.984375 302.289062 361.980469 C 301.757812 361.980469 301.226562 361.976562 300.695312 361.976562 C 295.5 361.898438 295.5 361.898438 290.332031 362.332031 C 290.113281 362.554688 289.894531 362.773438 289.667969 363 C 288.8125 363.082031 288.8125 363.082031 287.742188 363.078125 C 287.355469 363.078125 286.972656 363.074219 286.574219 363.074219 C 286.171875 363.070312 285.769531 363.066406 285.355469 363.0625 C 284.953125 363.0625 284.550781 363.0625 284.136719 363.0625 C 281.140625 363.046875 281.140625 363.046875 280 362.667969 C 280 362.886719 280 363.105469 280 363.332031 C 278.609375 363.421875 277.597656 363.351562 276.292969 362.855469 C 273.132812 361.730469 269.644531 361.960938 266.335938 362.011719 C 265.242188 362.023438 264.378906 362.015625 263.332031 361.667969 C 263.222656 361.996094 263.113281 362.328125 263 362.667969 C 262.671875 362.667969 262.339844 362.667969 262 362.667969 C 261.890625 362.777344 261.78125 362.886719 261.667969 363 C 259.3125 363.128906 256.996094 362.976562 254.667969 362.667969 C 254.667969 362.886719 254.667969 363.105469 254.667969 363.332031 C 253.144531 363.152344 251.773438 362.859375 250.332031 362.332031 C 250.222656 362.441406 250.113281 362.554688 250 362.667969 C 249.488281 362.714844 248.972656 362.742188 248.457031 362.761719 C 248.140625 362.773438 247.820312 362.785156 247.496094 362.796875 C 247.160156 362.808594 246.824219 362.820312 246.480469 362.832031 C 243.867188 362.914062 243.867188 362.914062 241.269531 363.195312 C 239.84375 363.351562 238.597656 363.246094 237.1875 363.042969 C 236.949219 363.011719 236.707031 362.980469 236.460938 362.949219 C 234.714844 362.714844 234.714844 362.714844 234.332031 362.332031 C 233.554688 362.300781 232.777344 362.289062 232 362.292969 C 231.574219 362.289062 231.148438 362.289062 230.707031 362.289062 C 229.710938 362.214844 229.710938 362.214844 229.332031 362.667969 C 226.539062 362.804688 226.539062 362.804688 225.332031 362 C 225.332031 362.21875 225.332031 362.441406 225.332031 362.667969 C 224.445312 362.445312 223.554688 362.222656 222.667969 362 C 222.667969 362.21875 222.667969 362.441406 222.667969 362.667969 C 220.859375 363.570312 217.910156 363.089844 216 362.667969 C 216 362.445312 216 362.226562 216 362 C 214.734375 362.324219 214.734375 362.324219 213.667969 363 C 213.101562 362.96875 212.539062 362.917969 211.980469 362.855469 C 211.519531 362.804688 211.519531 362.804688 211.050781 362.75 C 210.8125 362.722656 210.578125 362.695312 210.332031 362.667969 C 210.332031 362.445312 210.332031 362.226562 210.332031 362 C 208.792969 362 207.253906 362 205.667969 362 C 205.667969 362.21875 205.667969 362.441406 205.667969 362.667969 C 203.8125 363.453125 202.101562 363.421875 200.125 363.394531 C 199.8125 363.394531 199.496094 363.394531 199.175781 363.394531 C 197.828125 363.386719 196.636719 363.347656 195.332031 363 C 194.585938 362.925781 193.835938 362.863281 193.082031 362.8125 C 192.691406 362.785156 192.304688 362.757812 191.902344 362.726562 C 191.605469 362.707031 191.304688 362.6875 191 362.667969 C 191 362.445312 191 362.226562 191 362 C 189.789062 362 188.578125 362 187.332031 362 C 187.222656 362.21875 187.113281 362.441406 187 362.667969 C 186.472656 362.683594 185.945312 362.699219 185.417969 362.707031 C 185.121094 362.714844 184.828125 362.722656 184.527344 362.730469 C 183.617188 362.664062 183.128906 362.421875 182.332031 362 C 180.804688 361.863281 180.804688 361.863281 179.382812 362.324219 C 176.324219 363.78125 170.957031 363.351562 167.667969 362.667969 C 167.285156 362.503906 167.285156 362.503906 166.894531 362.335938 C 164.960938 361.609375 162.769531 361.441406 160.792969 362.019531 C 159.429688 362.398438 158.652344 362.164062 157.300781 361.839844 C 155.449219 361.507812 153.542969 361.554688 151.667969 361.667969 C 151.558594 361.777344 151.445312 361.886719 151.332031 362 C 150.644531 362.035156 149.953125 362.042969 149.265625 362.042969 C 148.621094 362.042969 148.621094 362.042969 147.960938 362.046875 C 147.621094 362.042969 147.621094 362.042969 147.273438 362.042969 C 146.601562 362.042969 145.925781 362.042969 145.253906 362.046875 C 142.78125 362.042969 140.351562 361.953125 137.894531 361.707031 C 137.050781 361.667969 136.464844 361.757812 135.667969 362 C 134.316406 362.082031 133.027344 362.085938 131.707031 361.769531 C 131.472656 361.738281 131.242188 361.703125 131 361.667969 C 130.851562 361.820312 130.703125 361.976562 130.550781 362.132812 C 129.511719 363.136719 128.058594 363.199219 126.667969 363.332031 C 125.777344 363.289062 124.921875 363.199219 124.042969 363.0625 C 123.269531 362.945312 123.269531 362.945312 122.332031 363.332031 C 122.003906 363.222656 121.671875 363.113281 121.332031 363 C 120.855469 362.984375 120.375 362.988281 119.894531 363.003906 C 119.613281 363.007812 119.328125 363.015625 119.039062 363.019531 C 118.453125 363.035156 117.867188 363.050781 117.28125 363.070312 C 115.757812 363.097656 114.507812 363 113.0625 362.503906 C 111.007812 361.820312 109.019531 361.867188 106.875 361.894531 C 106.488281 361.894531 106.101562 361.894531 105.703125 361.894531 C 103.425781 361.894531 103.425781 361.894531 101.332031 362.667969 C 100.894531 362.667969 100.453125 362.667969 100 362.667969 C 99.738281 362.722656 99.480469 362.773438 99.210938 362.832031 C 98.21875 363.023438 97.300781 363.042969 96.292969 363.042969 C 95.945312 363.042969 95.601562 363.042969 95.246094 363.042969 C 94.332031 363 94.332031 363 93.332031 362.667969 C 93.332031 362.445312 93.332031 362.226562 93.332031 362 C 91.691406 361.984375 90.046875 361.972656 88.402344 361.964844 C 87.84375 361.960938 87.285156 361.957031 86.726562 361.949219 C 85.921875 361.941406 85.121094 361.9375 84.316406 361.933594 C 84.066406 361.929688 83.816406 361.929688 83.558594 361.925781 C 82.300781 361.925781 81.742188 361.949219 80.667969 362.667969 C 80.476562 362.558594 80.285156 362.453125 80.085938 362.339844 C 79.300781 361.984375 78.789062 361.90625 77.933594 361.886719 C 77.539062 361.871094 77.539062 361.871094 77.132812 361.855469 C 76.855469 361.847656 76.578125 361.839844 76.292969 361.832031 C 73.125 361.703125 70.347656 361.273438 67.359375 360.214844 C 66.605469 359.957031 66.605469 359.957031 65.542969 359.875 C 63.777344 359.570312 62.265625 358.785156 60.667969 358 C 60.667969 357.78125 60.667969 357.558594 60.667969 357.332031 C 58.023438 356.230469 55.511719 355.382812 52.667969 355 C 52.667969 354.78125 52.667969 354.558594 52.667969 354.332031 C 51.125 354.332031 49.585938 354.332031 48 354.332031 C 48 354.554688 48 354.773438 48 355 C 47.230469 355 46.460938 355 45.667969 355 C 45.667969 354.78125 45.667969 354.558594 45.667969 354.332031 C 44.460938 354.199219 43.25 354.078125 42.042969 353.957031 C 41.703125 353.921875 41.367188 353.882812 41.019531 353.84375 C 39.039062 353.65625 37.363281 353.703125 35.425781 354.160156 C 34.324219 354.410156 33.253906 354.476562 32.125 354.542969 C 31.722656 354.566406 31.320312 354.589844 30.902344 354.617188 C 30.605469 354.632812 30.308594 354.648438 30 354.667969 C 29.890625 354.996094 29.78125 355.328125 29.667969 355.667969 C 28.707031 355.730469 28.707031 355.730469 27.667969 355.667969 C 27.335938 355.171875 27.335938 355.171875 27 354.667969 C 27.109375 354.558594 27.21875 354.445312 27.332031 354.332031 C 26.976562 354.25 26.617188 354.167969 26.25 354.082031 C 24.984375 353.660156 24.464844 353.378906 23.667969 352.332031 C 23.621094 352.011719 23.621094 352.011719 23.570312 351.679688 C 23.382812 350.921875 23.382812 350.921875 22.570312 350.503906 C 22.265625 350.367188 21.960938 350.226562 21.644531 350.082031 C 21.339844 349.941406 21.03125 349.796875 20.71875 349.652344 C 20.480469 349.546875 20.242188 349.441406 20 349.332031 C 20.191406 348.539062 20.40625 347.777344 20.667969 347 C 20.335938 346.890625 20.007812 346.78125 19.667969 346.667969 C 19.832031 345.839844 19.832031 345.839844 20 345 C 20.21875 345 20.441406 345 20.667969 345 C 20.5 343.515625 20.5 343.515625 20.332031 342 C 20.664062 341.890625 20.992188 341.78125 21.332031 341.667969 C 21.332031 341.445312 21.332031 341.226562 21.332031 341 C 21.003906 340.78125 20.671875 340.558594 20.332031 340.332031 C 20.0625 339.167969 20.0625 339.167969 20 338 C 20.21875 337.78125 20.441406 337.558594 20.667969 337.332031 C 20.558594 336.132812 20.558594 336.132812 20.332031 335 C 20.726562 334.957031 20.726562 334.957031 21.125 334.917969 C 22.042969 334.761719 22.042969 334.761719 22.375 334.019531 C 22.472656 333.792969 22.566406 333.566406 22.667969 333.332031 C 23.441406 332.816406 24.167969 332.402344 25 332 C 25 331.78125 25 331.558594 25 331.332031 C 25.21875 331.332031 25.441406 331.332031 25.667969 331.332031 C 25.777344 331.113281 25.886719 330.894531 26 330.667969 C 26.21875 330.667969 26.441406 330.667969 26.667969 330.667969 C 26.777344 330.445312 26.886719 330.226562 27 330 C 27.21875 330 27.441406 330 27.667969 330 C 27.667969 329.558594 27.667969 329.121094 27.667969 328.667969 C 27.886719 328.667969 28.105469 328.667969 28.332031 328.667969 C 28.332031 328.117188 28.332031 327.566406 28.332031 327 C 28.664062 327 28.992188 327 29.332031 327 C 29.332031 326.78125 29.332031 326.558594 29.332031 326.332031 C 29.832031 325.792969 29.832031 325.792969 30.332031 325.332031 C 30.113281 325.222656 29.894531 325.113281 29.667969 325 C 29.777344 324.339844 29.886719 323.679688 30 323 C 30.660156 323 31.320312 323 32 323 C 32.109375 322.558594 32.21875 322.121094 32.332031 321.667969 C 32.664062 321.667969 32.992188 321.667969 33.332031 321.667969 C 33.441406 320.675781 33.554688 319.6875 33.667969 318.667969 C 34.214844 318.667969 34.765625 318.667969 35.332031 318.667969 C 35.332031 318.226562 35.332031 317.785156 35.332031 317.332031 C 35.664062 317.113281 35.992188 316.894531 36.332031 316.667969 C 36.386719 316.441406 36.441406 316.214844 36.5 315.980469 C 36.582031 315.660156 36.582031 315.660156 36.667969 315.332031 C 36.996094 315.222656 37.328125 315.113281 37.667969 315 C 37.777344 314.78125 37.886719 314.558594 38 314.332031 C 38.21875 314.332031 38.441406 314.332031 38.667969 314.332031 C 38.667969 314.113281 38.667969 313.894531 38.667969 313.667969 C 39.214844 313.667969 39.765625 313.667969 40.332031 313.667969 C 40.332031 313.226562 40.332031 312.785156 40.332031 312.332031 C 40.664062 312.332031 40.992188 312.332031 41.332031 312.332031 C 41.332031 311.894531 41.332031 311.453125 41.332031 311 C 41.542969 310.972656 41.75 310.945312 41.964844 310.917969 C 42.714844 310.738281 42.714844 310.738281 42.996094 310.0625 C 43.078125 309.820312 43.164062 309.582031 43.25 309.332031 C 43.574219 308.605469 43.574219 308.605469 44 308 C 44.945312 307.652344 45.640625 307.667969 46.667969 307.667969 C 46.558594 307.226562 46.445312 306.785156 46.332031 306.332031 C 46.992188 306.222656 47.652344 306.113281 48.332031 306 C 48.332031 305.78125 48.332031 305.558594 48.332031 305.332031 C 48.554688 305.222656 48.773438 305.113281 49 305 C 49 304.671875 49 304.339844 49 304 C 49.441406 304 49.878906 304 50.332031 304 C 50.332031 303.671875 50.332031 303.339844 50.332031 303 C 50.796875 302.699219 50.796875 302.699219 51.269531 302.394531 C 52.398438 301.753906 52.398438 301.753906 52.8125 300.644531 C 53.511719 299.332031 54.316406 299.207031 55.667969 298.667969 C 56.160156 297.988281 56.160156 297.988281 56.332031 297.332031 C 56.554688 297.332031 56.773438 297.332031 57 297.332031 C 57 297.113281 57 296.894531 57 296.667969 C 57.554688 296.332031 58.109375 296 58.667969 295.667969 C 58.886719 295.335938 59.105469 295.007812 59.332031 294.667969 C 59.664062 294.667969 59.992188 294.667969 60.332031 294.667969 C 60.332031 294.226562 60.332031 293.785156 60.332031 293.332031 C 60.992188 293.113281 61.652344 292.894531 62.332031 292.667969 C 62.332031 292.226562 62.332031 291.785156 62.332031 291.332031 C 62.554688 291.332031 62.773438 291.332031 63 291.332031 C 63 291.113281 63 290.894531 63 290.667969 C 63.441406 290.558594 63.878906 290.445312 64.332031 290.332031 C 64.386719 290.011719 64.386719 290.011719 64.4375 289.6875 C 64.511719 289.460938 64.589844 289.234375 64.667969 289 C 64.996094 288.890625 65.328125 288.78125 65.667969 288.667969 C 65.910156 287.984375 65.910156 287.984375 66.019531 287.1875 C 66.265625 285.734375 66.265625 285.734375 67 285 C 67 284.671875 67 284.339844 67 284 C 67.21875 284 67.441406 284 67.667969 284 C 67.707031 283.730469 67.75 283.464844 67.792969 283.1875 C 67.859375 282.90625 67.929688 282.625 68 282.332031 C 68.21875 282.222656 68.441406 282.113281 68.667969 282 C 68.667969 281.78125 68.667969 281.558594 68.667969 281.332031 C 68.886719 281.222656 69.105469 281.113281 69.332031 281 C 69.332031 280.671875 69.332031 280.339844 69.332031 280 C 69.546875 279.929688 69.757812 279.863281 69.980469 279.792969 C 70.78125 279.367188 70.78125 279.367188 70.917969 278.292969 C 70.945312 277.976562 70.972656 277.660156 71 277.332031 C 71.550781 277.332031 72.101562 277.332031 72.667969 277.332031 C 72.667969 277.113281 72.667969 276.894531 72.667969 276.667969 C 73.789062 276.46875 74.910156 276.300781 76.042969 276.167969 C 76.953125 276.050781 77.789062 275.921875 78.667969 275.667969 C 78.667969 275.886719 78.667969 276.105469 78.667969 276.332031 C 78.996094 276.332031 79.328125 276.332031 79.667969 276.332031 C 79.777344 275.894531 79.886719 275.453125 80 275 C 80.328125 275 80.660156 275 81 275 C 81.035156 274.585938 81.070312 274.175781 81.105469 273.75 C 81.25 272.582031 81.457031 271.839844 82.332031 271 C 82.554688 271 82.773438 271 83 271 C 83 270.671875 83 270.339844 83 270 C 83.878906 269.671875 84.761719 269.339844 85.667969 269 C 85.667969 268.671875 85.667969 268.339844 85.667969 268 C 86.898438 267.683594 87.769531 267.683594 89 268 C 89 267.558594 89 267.121094 89 266.667969 C 89.441406 266.445312 89.878906 266.226562 90.332031 266 C 90.332031 265.671875 90.332031 265.339844 90.332031 265 C 90.890625 264.957031 90.890625 264.957031 91.457031 264.917969 C 92.660156 264.804688 92.660156 264.804688 93.125 264.082031 C 93.355469 263.324219 93.355469 263.324219 93.4375 262.480469 C 93.667969 261.667969 93.667969 261.667969 94.394531 261.167969 C 94.707031 261 95.015625 260.835938 95.332031 260.667969 C 96.058594 260.148438 96.675781 259.613281 97.332031 259 C 97.332031 258.671875 97.332031 258.339844 97.332031 258 C 97.59375 257.917969 97.855469 257.835938 98.125 257.75 C 99.046875 257.425781 99.046875 257.425781 99.3125 256.644531 C 99.429688 256.433594 99.546875 256.21875 99.667969 256 C 100.707031 255.75 100.707031 255.75 101.667969 255.667969 C 101.886719 255.007812 102.105469 254.347656 102.332031 253.667969 C 102.882812 253.558594 103.433594 253.445312 104 253.332031 C 104.109375 252.894531 104.21875 252.453125 104.332031 252 C 104.554688 252 104.773438 252 105 252 C 105 251.78125 105 251.558594 105 251.332031 C 105.441406 251.332031 105.878906 251.332031 106.332031 251.332031 C 106.332031 251.113281 106.332031 250.894531 106.332031 250.667969 C 106.554688 250.558594 106.773438 250.445312 107 250.332031 C 107 249.894531 107 249.453125 107 249 C 107.441406 249 107.878906 249 108.332031 249 C 108.332031 248.78125 108.332031 248.558594 108.332031 248.332031 C 108.992188 248.332031 109.652344 248.332031 110.332031 248.332031 C 110.332031 248.113281 110.332031 247.894531 110.332031 247.667969 C 110.003906 247.667969 109.671875 247.667969 109.332031 247.667969 C 109.332031 247.445312 109.332031 247.226562 109.332031 247 C 110.214844 246.890625 111.09375 246.78125 112 246.667969 C 112.109375 245.785156 112.21875 244.90625 112.332031 244 C 112.878906 243.855469 112.878906 243.855469 113.4375 243.707031 C 114.679688 243.394531 114.679688 243.394531 115.667969 242.667969 C 115.667969 242.226562 115.667969 241.785156 115.667969 241.332031 C 116.4375 241.222656 117.207031 241.113281 118 241 C 118.109375 240.449219 118.21875 239.898438 118.332031 239.332031 C 118.773438 239.332031 119.214844 239.332031 119.667969 239.332031 C 119.667969 238.671875 119.667969 238.011719 119.667969 237.332031 C 120.078125 237.304688 120.492188 237.277344 120.917969 237.25 C 122.257812 237.089844 122.773438 236.695312 123.667969 235.667969 C 123.996094 235.667969 124.328125 235.667969 124.667969 235.667969 C 124.667969 235.886719 124.667969 236.105469 124.667969 236.332031 C 125.65625 236.21875 125.65625 236.21875 126.667969 236 C 126.777344 235.78125 126.886719 235.558594 127 235.332031 C 128.273438 235.074219 129.089844 234.917969 130.332031 235.332031 C 130.558594 235.085938 130.558594 235.085938 130.792969 234.832031 C 131.332031 234.332031 131.332031 234.332031 132 234.332031 C 132.109375 234.554688 132.21875 234.773438 132.332031 235 C 132.554688 234.78125 132.773438 234.558594 133 234.332031 C 133.378906 234.242188 133.757812 234.15625 134.144531 234.0625 C 135.382812 233.78125 135.382812 233.78125 135.9375 232.792969 C 136.066406 232.53125 136.199219 232.269531 136.332031 232 C 136.554688 232 136.773438 232 137 232 C 137 231.78125 137 231.558594 137 231.332031 C 137.441406 231.332031 137.878906 231.332031 138.332031 231.332031 C 138.332031 231.554688 138.332031 231.773438 138.332031 232 C 138.554688 232 138.773438 232 139 232 C 139 231.78125 139 231.558594 139 231.332031 C 140.648438 231.082031 142.289062 230.914062 143.953125 230.792969 C 144.734375 230.722656 144.734375 230.722656 145.332031 230 C 146.699219 230.15625 148.015625 230.613281 149.332031 231 C 149.332031 231.328125 149.332031 231.660156 149.332031 232 C 149.773438 232 150.214844 232 150.667969 232 C 150.898438 233.339844 151.058594 234.359375 150.667969 235.667969 C 150.652344 236.222656 150.652344 236.777344 150.667969 237.332031 C 150.886719 237.332031 151.105469 237.332031 151.332031 237.332031 C 151.332031 237.554688 151.332031 237.773438 151.332031 238 C 152.917969 238.242188 154.09375 238.371094 155.667969 238 C 155.886719 238.109375 156.105469 238.21875 156.332031 238.332031 C 156.886719 238.453125 157.441406 238.5625 158 238.667969 C 158 239.4375 158 240.207031 158 241 C 158.109375 240.671875 158.21875 240.339844 158.332031 240 C 158.554688 240 158.773438 240 159 240 C 159 240.988281 159 241.980469 159 243 C 159.328125 243 159.660156 243 160 243 C 160 243.878906 160 244.761719 160 245.667969 C 160.238281 245.761719 160.476562 245.859375 160.722656 245.957031 C 162.148438 246.527344 163.574219 247.097656 165 247.667969 C 165 247.886719 165 248.105469 165 248.332031 C 165.1875 248.359375 165.371094 248.386719 165.5625 248.417969 C 166.566406 248.742188 167.199219 249.324219 168 250 C 168.21875 250.109375 168.441406 250.21875 168.667969 250.332031 C 169.164062 251.324219 169.347656 252.121094 169.480469 253.230469 C 169.542969 253.59375 169.601562 253.957031 169.667969 254.332031 C 169.996094 254.554688 170.328125 254.773438 170.667969 255 C 170.960938 256.617188 170.753906 258.207031 170 259.667969 C 169.78125 259.667969 169.558594 259.667969 169.332031 259.667969 C 169.363281 260.191406 169.363281 260.191406 169.394531 260.730469 C 169.332031 262 169.332031 262 168.835938 262.753906 C 168.175781 263.957031 168.222656 264.84375 168.25 266.207031 C 168.253906 266.644531 168.261719 267.082031 168.265625 267.535156 C 168.285156 268.664062 168.285156 268.664062 168.667969 269.667969 C 168.636719 270.464844 168.585938 271.265625 168.519531 272.0625 C 168.488281 272.488281 168.453125 272.910156 168.417969 273.347656 C 168.390625 273.671875 168.363281 274 168.332031 274.332031 C 168.113281 274.332031 167.894531 274.332031 167.667969 274.332031 C 167.6875 274.847656 167.6875 274.847656 167.707031 275.375 C 167.667969 276.621094 167.449219 277.511719 167 278.667969 C 166.78125 278.667969 166.558594 278.667969 166.332031 278.667969 C 166.292969 278.855469 166.253906 279.042969 166.210938 279.238281 C 166.15625 279.484375 166.097656 279.726562 166.042969 279.980469 C 165.988281 280.222656 165.933594 280.464844 165.878906 280.71875 C 165.667969 281.332031 165.667969 281.332031 165 281.667969 C 164.742188 282.246094 164.742188 282.246094 164.480469 282.832031 C 164.136719 283.476562 164.136719 283.476562 163.667969 284 C 162.882812 284.171875 162.15625 284.1875 161.355469 284.207031 C 161.128906 284.25 160.902344 284.289062 160.667969 284.332031 C 159.945312 285.300781 159.945312 285.300781 159.667969 286.332031 C 159.335938 286.332031 159.007812 286.332031 158.667969 286.332031 C 158.558594 286.664062 158.445312 286.992188 158.332031 287.332031 C 157.644531 287.5625 157.644531 287.5625 157 287.667969 C 157 287.886719 157 288.105469 157 288.332031 C 156.558594 288.441406 156.121094 288.554688 155.667969 288.667969 C 155.652344 288.851562 155.640625 289.039062 155.625 289.230469 C 155.171875 290.429688 154.363281 290.910156 153.332031 291.667969 C 153.113281 291.667969 152.894531 291.667969 152.667969 291.667969 C 152.558594 291.996094 152.445312 292.328125 152.332031 292.667969 C 151.644531 292.984375 151.644531 292.984375 150.8125 293.230469 C 150.535156 293.3125 150.261719 293.398438 149.976562 293.484375 C 149.765625 293.542969 149.550781 293.605469 149.332031 293.667969 C 149.367188 293.921875 149.402344 294.175781 149.4375 294.4375 C 149.402344 294.734375 149.367188 295.027344 149.332031 295.332031 C 148.480469 295.988281 147.617188 296.355469 146.625 296.769531 C 145.433594 297.46875 145.234375 298.097656 144.667969 299.332031 C 144.117188 299.894531 143.5625 300.453125 143 301 C 142.695312 301.417969 142.394531 301.84375 142.105469 302.269531 C 141.722656 302.796875 141.722656 302.796875 141.332031 303.332031 C 141.113281 303.332031 140.894531 303.332031 140.667969 303.332031 C 140.667969 303.554688 140.667969 303.773438 140.667969 304 C 140.226562 304 139.785156 304 139.332031 304 C 139.222656 304.441406 139.113281 304.878906 139 305.332031 C 138.78125 305.332031 138.558594 305.332031 138.332031 305.332031 C 138.113281 306.324219 137.894531 307.3125 137.667969 308.332031 C 137.335938 308.332031 137.007812 308.332031 136.667969 308.332031 C 136.667969 308.664062 136.667969 308.992188 136.667969 309.332031 C 136.117188 309.332031 135.566406 309.332031 135 309.332031 C 135 309.554688 135 309.773438 135 310 C 134.449219 310 133.898438 310 133.332031 310 C 133.222656 310.21875 133.113281 310.441406 133 310.667969 C 132.671875 310.777344 132.339844 310.886719 132 311 C 131.78125 311.328125 131.558594 311.660156 131.332031 312 C 131.066406 312.15625 130.796875 312.316406 130.519531 312.480469 C 129.644531 313.015625 129.257812 313.515625 128.667969 314.332031 C 128.445312 314.332031 128.226562 314.332031 128 314.332031 C 128 314.554688 128 314.773438 128 315 C 129.71875 315.285156 131.367188 315.382812 133.105469 315.375 C 133.34375 315.375 133.582031 315.378906 133.824219 315.378906 C 135.121094 315.398438 135.121094 315.398438 136.332031 315 C 136.332031 314.671875 136.332031 314.339844 136.332031 314 C 136.664062 314 136.992188 314 137.332031 314 C 137.324219 313.359375 137.324219 313.359375 137.3125 312.707031 C 137.292969 311.417969 137.292969 311.417969 137.667969 310.667969 C 139.257812 310.9375 140.664062 311.492188 142.160156 312.085938 C 143.03125 312.429688 143.03125 312.429688 144 312 C 144 311.671875 144 311.339844 144 311 C 144.660156 311.109375 145.320312 311.21875 146 311.332031 C 146 311.554688 146 311.773438 146 312 C 147.648438 312.496094 147.648438 312.496094 149.332031 313 C 149.332031 313.21875 149.332031 313.441406 149.332031 313.667969 C 149.882812 313.777344 150.433594 313.886719 151 314 C 151 314.328125 151 314.660156 151 315 C 151.441406 315 151.878906 315 152.332031 315 C 152.441406 314.671875 152.554688 314.339844 152.667969 314 C 153.355469 313.769531 153.355469 313.769531 154 313.667969 C 154 313.335938 154 313.007812 154 312.667969 C 155.269531 312.890625 156.449219 313.242188 157.667969 313.667969 C 157.667969 313.335938 157.667969 313.007812 157.667969 312.667969 C 157.445312 312.558594 157.226562 312.445312 157 312.332031 C 157 312.003906 157 311.671875 157 311.332031 C 157.21875 311.332031 157.441406 311.332031 157.667969 311.332031 C 157.667969 311.554688 157.667969 311.773438 157.667969 312 C 158.023438 311.992188 158.382812 311.984375 158.75 311.980469 C 159.714844 311.996094 160.429688 312.042969 161.332031 312.332031 C 161.332031 312.003906 161.332031 311.671875 161.332031 311.332031 C 162.957031 311.625 162.957031 311.625 163.332031 312 C 164 312.011719 164.667969 312.015625 165.332031 312 C 165.066406 311.808594 164.796875 311.613281 164.519531 311.417969 C 163.667969 310.667969 163.667969 310.667969 163.332031 309.332031 C 164.324219 309.554688 165.3125 309.773438 166.332031 310 C 166.332031 310.21875 166.332031 310.441406 166.332031 310.667969 C 167.324219 310.886719 168.3125 311.105469 169.332031 311.332031 C 169.332031 311.554688 169.332031 311.773438 169.332031 312 C 169.984375 311.988281 169.984375 311.988281 170.644531 311.980469 C 171.757812 311.984375 172.867188 312.003906 173.980469 312.082031 C 174.34375 312.105469 174.34375 312.105469 174.71875 312.128906 C 175.332031 312.332031 175.332031 312.332031 175.75 313.015625 C 175.875 313.339844 175.875 313.339844 176 313.667969 C 175.78125 313.777344 175.558594 313.886719 175.332031 314 C 175.332031 314.441406 175.332031 314.878906 175.332031 315.332031 C 175.636719 315.269531 175.9375 315.210938 176.25 315.144531 C 177.226562 315.015625 177.753906 315.019531 178.667969 315.332031 C 178.667969 315.113281 178.667969 314.894531 178.667969 314.667969 C 179.671875 314.164062 180.5625 314.273438 181.667969 314.332031 C 181.886719 314.554688 182.105469 314.773438 182.332031 315 C 183.417969 315.121094 183.417969 315.121094 184.644531 315.105469 C 185.0625 315.109375 185.476562 315.117188 185.90625 315.121094 C 186.992188 315.128906 186.992188 315.128906 187.429688 314.496094 C 188.3125 313.726562 189.085938 313.898438 190.238281 313.925781 C 190.457031 313.929688 190.671875 313.933594 190.898438 313.933594 C 191.589844 313.945312 192.285156 313.960938 192.980469 313.980469 C 193.671875 313.996094 194.363281 314.007812 195.058594 314.019531 C 195.6875 314.03125 196.316406 314.042969 196.945312 314.058594 C 197.96875 314 198.496094 313.894531 199.332031 313.332031 C 199.527344 313.097656 199.71875 312.867188 199.917969 312.625 C 201.054688 311.675781 201.878906 311.882812 203.332031 312 C 203.554688 312.109375 203.773438 312.21875 204 312.332031 C 204 312.003906 204 311.671875 204 311.332031 C 204.21875 311.332031 204.441406 311.332031 204.667969 311.332031 C 204.777344 311.554688 204.886719 311.773438 205 312 C 205 311.78125 205 311.558594 205 311.332031 C 204.78125 311.113281 204.558594 310.894531 204.332031 310.667969 C 204.332031 310.335938 204.332031 310.007812 204.332031 309.667969 C 205.359375 310.066406 206.355469 310.492188 207.332031 311 C 207.222656 310.339844 207.113281 309.679688 207 309 C 208.582031 309.625 208.582031 309.625 209.332031 310 C 209.332031 310.21875 209.332031 310.441406 209.332031 310.667969 C 210.101562 310.886719 210.875 311.105469 211.667969 311.332031 C 211.667969 311.113281 211.667969 310.894531 211.667969 310.667969 C 212.65625 310.886719 213.648438 311.105469 214.667969 311.332031 C 214.667969 311.554688 214.667969 311.773438 214.667969 312 C 214.886719 312 215.105469 312 215.332031 312 C 215.332031 312.21875 215.332031 312.441406 215.332031 312.667969 C 215.664062 312.777344 215.992188 312.886719 216.332031 313 C 216.332031 313.441406 216.332031 313.878906 216.332031 314.332031 C 216.992188 314.332031 217.652344 314.332031 218.332031 314.332031 C 218.332031 314.554688 218.332031 314.773438 218.332031 315 C 219.101562 315 219.875 315 220.667969 315 C 220.667969 314.78125 220.667969 314.558594 220.667969 314.332031 C 220.839844 314.382812 221.011719 314.429688 221.1875 314.480469 C 223.019531 314.902344 224.789062 315.039062 226.667969 315 C 226.667969 314.78125 226.667969 314.558594 226.667969 314.332031 C 227.328125 314.332031 227.988281 314.332031 228.667969 314.332031 C 228.777344 313.894531 228.886719 313.453125 229 313 C 229.660156 313 230.320312 313 231 313 C 231 312.449219 231 311.898438 231 311.332031 C 231.359375 311.34375 231.359375 311.34375 231.730469 311.355469 C 232.648438 311.378906 232.648438 311.378906 233.417969 311.082031 C 234.886719 310.949219 236.042969 311.679688 237.332031 312.332031 C 237.332031 311.785156 237.332031 311.234375 237.332031 310.667969 C 238.953125 310.871094 240.246094 311.574219 241.667969 312.332031 C 241.777344 312.003906 241.886719 311.671875 242 311.332031 C 242.21875 311.332031 242.441406 311.332031 242.667969 311.332031 C 242.667969 311.554688 242.667969 311.773438 242.667969 312 C 243.4375 312.21875 244.207031 312.441406 245 312.667969 C 245.050781 312.988281 245.050781 312.988281 245.105469 313.3125 C 245.179688 313.539062 245.253906 313.765625 245.332031 314 C 245.664062 314.109375 245.992188 314.21875 246.332031 314.332031 C 246.332031 314.664062 246.332031 314.992188 246.332031 315.332031 C 246.691406 315.328125 247.046875 315.320312 247.417969 315.3125 C 248.382812 315.328125 249.09375 315.378906 250 315.667969 C 250.109375 315.226562 250.21875 314.785156 250.332031 314.332031 C 251.101562 314.332031 251.875 314.332031 252.667969 314.332031 C 252.667969 314.554688 252.667969 314.773438 252.667969 315 C 255.308594 315 257.945312 315 260.667969 315 C 260.667969 314.78125 260.667969 314.558594 260.667969 314.332031 C 260.351562 314.257812 260.035156 314.183594 259.707031 314.105469 C 258.046875 313.632812 256.480469 312.882812 255 312 C 254.890625 311.78125 254.78125 311.558594 254.667969 311.332031 C 254.335938 311.222656 254.007812 311.113281 253.667969 311 C 253.617188 310.785156 253.570312 310.574219 253.519531 310.355469 C 253.398438 309.597656 253.398438 309.597656 252.644531 309.25 C 252.433594 309.167969 252.21875 309.085938 252 309 C 252 308.78125 252 308.558594 252 308.332031 C 251.449219 308.113281 250.898438 307.894531 250.332031 307.667969 C 250.332031 307.335938 250.332031 307.007812 250.332031 306.667969 C 250.148438 306.625 249.960938 306.585938 249.769531 306.542969 C 247.5 305.929688 247.5 305.929688 246.707031 304.6875 C 245.800781 303.382812 245.140625 303.175781 243.667969 302.667969 C 243.667969 302.886719 243.667969 303.105469 243.667969 303.332031 C 242.480469 303.128906 241.4375 302.808594 240.332031 302.332031 C 240.332031 302.113281 240.332031 301.894531 240.332031 301.667969 C 240.113281 301.667969 239.894531 301.667969 239.667969 301.667969 C 239.667969 301.445312 239.667969 301.226562 239.667969 301 C 239.335938 301 239.007812 301 238.667969 301 C 238.777344 300.558594 238.886719 300.121094 239 299.667969 C 238.726562 299.515625 238.449219 299.363281 238.167969 299.207031 C 237.890625 299.03125 237.617188 298.851562 237.332031 298.667969 C 237.332031 298.445312 237.332031 298.226562 237.332031 298 C 236.671875 297.78125 236.011719 297.558594 235.332031 297.332031 C 235.332031 297.003906 235.332031 296.671875 235.332031 296.332031 C 235.554688 296.332031 235.773438 296.332031 236 296.332031 C 235.933594 295.683594 235.933594 295.683594 235.667969 295 C 235.226562 294.765625 234.785156 294.542969 234.332031 294.332031 C 234.222656 294.003906 234.113281 293.671875 234 293.332031 C 233.332031 292.929688 233.332031 292.929688 232.667969 292.667969 C 232.667969 292.445312 232.667969 292.226562 232.667969 292 C 232.335938 292 232.007812 292 231.667969 292 C 231.558594 291.558594 231.445312 291.121094 231.332031 290.667969 C 231.128906 290.628906 230.921875 290.59375 230.710938 290.554688 C 230.441406 290.503906 230.171875 290.449219 229.894531 290.394531 C 229.628906 290.34375 229.363281 290.296875 229.085938 290.242188 C 228.242188 289.96875 227.902344 289.671875 227.332031 289 C 226.316406 287.839844 225.488281 287.40625 224 287 C 224 286.671875 224 286.339844 224 286 C 224.21875 286 224.441406 286 224.667969 286 C 224.667969 285.78125 224.667969 285.558594 224.667969 285.332031 C 224.445312 285.332031 224.226562 285.332031 224 285.332031 C 224 285.113281 224 284.894531 224 284.667969 C 223.449219 284.558594 222.898438 284.445312 222.332031 284.332031 C 222.332031 283.894531 222.332031 283.453125 222.332031 283 C 222.664062 283 222.992188 283 223.332031 283 C 223.332031 282.78125 223.332031 282.558594 223.332031 282.332031 C 223.113281 282.332031 222.894531 282.332031 222.667969 282.332031 C 222.667969 282.113281 222.667969 281.894531 222.667969 281.667969 C 222.296875 281.625 222.296875 281.625 221.917969 281.582031 C 220.820312 281.285156 220.378906 280.871094 219.667969 280 C 219.667969 279.78125 219.667969 279.558594 219.667969 279.332031 C 219.886719 279.332031 220.105469 279.332031 220.332031 279.332031 C 220.332031 279.003906 220.332031 278.671875 220.332031 278.332031 C 219.5625 278.222656 218.792969 278.113281 218 278 C 217.890625 277.230469 217.78125 276.460938 217.667969 275.667969 C 217.378906 275.632812 217.089844 275.597656 216.792969 275.5625 C 215.59375 275.320312 214.753906 274.886719 213.667969 274.332031 C 213.183594 274.167969 212.695312 274.007812 212.207031 273.855469 C 210.714844 273.378906 209.386719 272.730469 208 272 C 208 271.671875 208 271.339844 208 271 C 207.339844 270.890625 206.679688 270.78125 206 270.667969 C 206 270.445312 206 270.226562 206 270 C 205.636719 269.957031 205.269531 269.917969 204.894531 269.875 C 203.667969 269.667969 203.667969 269.667969 202.667969 269 C 202.667969 268.78125 202.667969 268.558594 202.667969 268.332031 C 202.445312 268.332031 202.226562 268.332031 202 268.332031 C 202 267.671875 202 267.011719 202 266.332031 C 201.78125 266.332031 201.558594 266.332031 201.332031 266.332031 C 201.222656 266.003906 201.113281 265.671875 201 265.332031 C 199.828125 264.921875 199.828125 264.921875 198.667969 264.667969 C 198.667969 264.445312 198.667969 264.226562 198.667969 264 C 198.246094 263.953125 197.828125 263.902344 197.394531 263.855469 C 196.523438 263.753906 195.84375 263.613281 195 263.332031 C 195 263.003906 195 262.671875 195 262.332031 C 195.21875 262.332031 195.441406 262.332031 195.667969 262.332031 C 195.628906 261.679688 195.628906 261.679688 195.332031 261 C 194.503906 260.566406 194.503906 260.566406 193.667969 260.332031 C 193.777344 259.894531 193.886719 259.453125 194 259 C 193.671875 259 193.339844 259 193 259 C 193 258.671875 193 258.339844 193 258 C 192.449219 257.890625 191.898438 257.78125 191.332031 257.667969 C 191.242188 257.355469 191.15625 257.046875 191.0625 256.730469 C 190.765625 255.6875 190.765625 255.6875 190.15625 255.199219 C 189.257812 254.222656 189.425781 252.941406 189.332031 251.667969 C 188.34375 251.558594 187.351562 251.445312 186.332031 251.332031 C 186.332031 251.113281 186.332031 250.894531 186.332031 250.667969 C 186.015625 250.617188 185.699219 250.570312 185.375 250.519531 C 184.332031 250.332031 184.332031 250.332031 183.667969 250 C 183.558594 249.671875 183.445312 249.339844 183.332031 249 C 183.003906 248.890625 182.671875 248.78125 182.332031 248.667969 C 182.332031 248.226562 182.332031 247.785156 182.332031 247.332031 C 182.140625 247.304688 181.949219 247.277344 181.75 247.25 C 180.792969 246.929688 180.351562 246.394531 179.667969 245.667969 C 179.445312 245.558594 179.226562 245.445312 179 245.332031 C 179 245.003906 179 244.671875 179 244.332031 C 178.449219 244.222656 177.898438 244.113281 177.332031 244 C 177.332031 243.671875 177.332031 243.339844 177.332031 243 C 176.785156 242.78125 176.234375 242.558594 175.667969 242.332031 C 175.667969 242.113281 175.667969 241.894531 175.667969 241.667969 C 175.253906 241.617188 174.839844 241.570312 174.417969 241.519531 C 172.398438 241.265625 172.398438 241.265625 171.667969 241 C 171.558594 240.78125 171.445312 240.558594 171.332031 240.332031 C 170.894531 240.179688 170.449219 240.042969 170 239.917969 C 169.269531 239.664062 169.269531 239.664062 168.667969 239.332031 C 168.332031 238.269531 168.332031 238.269531 168.332031 237.332031 C 168.003906 237.222656 167.671875 237.113281 167.332031 237 C 167.332031 236.558594 167.332031 236.121094 167.332031 235.667969 C 167.003906 235.667969 166.671875 235.667969 166.332031 235.667969 C 166.332031 235.445312 166.332031 235.226562 166.332031 235 C 166.003906 235 165.671875 235 165.332031 235 C 165.332031 234.78125 165.332031 234.558594 165.332031 234.332031 C 164.921875 234.285156 164.507812 234.238281 164.082031 234.1875 C 163.144531 234.070312 162.242188 233.933594 161.332031 233.667969 C 161.332031 233.335938 161.332031 233.007812 161.332031 232.667969 C 161.664062 232.558594 161.992188 232.445312 162.332031 232.332031 C 162.113281 232.222656 161.894531 232.113281 161.667969 232 C 161.667969 231.78125 161.667969 231.558594 161.667969 231.332031 C 161.316406 231.304688 160.964844 231.277344 160.605469 231.25 C 159.230469 230.980469 158.683594 230.59375 157.667969 229.667969 C 157.445312 229.558594 157.226562 229.445312 157 229.332031 C 156.863281 228.558594 156.75 227.78125 156.667969 227 C 156.445312 227 156.226562 227 156 227 C 156 226.449219 156 225.898438 156 225.332031 C 155.597656 225.21875 155.597656 225.21875 155.1875 225.105469 C 154.90625 224.960938 154.625 224.816406 154.332031 224.667969 C 154.082031 223.832031 154.082031 223.832031 154 223 C 153.890625 222.78125 153.78125 222.558594 153.667969 222.332031 C 152.960938 222.105469 152.960938 222.105469 152.144531 221.957031 C 151.871094 221.902344 151.59375 221.847656 151.3125 221.789062 C 151.097656 221.75 150.886719 221.707031 150.667969 221.667969 C 150.777344 221.226562 150.886719 220.785156 151 220.332031 C 149.59375 219.367188 148.308594 219.027344 146.667969 218.667969 C 146.667969 218.445312 146.667969 218.226562 146.667969 218 C 146.246094 217.945312 146.246094 217.945312 145.816406 217.890625 C 145.449219 217.835938 145.085938 217.785156 144.707031 217.730469 C 144.34375 217.679688 143.980469 217.628906 143.605469 217.578125 C 142.667969 217.332031 142.667969 217.332031 142 216.332031 C 141.84375 215.828125 141.84375 215.828125 141.6875 215.3125 C 141.410156 214.242188 141.410156 214.242188 140.332031 213.667969 C 140.292969 213.390625 140.25 213.117188 140.207031 212.832031 C 140.140625 212.558594 140.070312 212.285156 140 212 C 139.25 211.617188 139.25 211.617188 138.332031 211.332031 C 137.230469 210.707031 137.230469 210.707031 136.332031 210 C 136.332031 209.558594 136.332031 209.121094 136.332031 208.667969 C 136.113281 208.558594 135.894531 208.445312 135.667969 208.332031 C 135.667969 208.113281 135.667969 207.894531 135.667969 207.667969 C 134.675781 207.335938 133.6875 207.007812 132.667969 206.667969 C 132.667969 206.445312 132.667969 206.226562 132.667969 206 C 132.296875 205.917969 131.925781 205.835938 131.542969 205.75 C 130.332031 205.332031 130.332031 205.332031 129.855469 204.625 C 129.792969 204.417969 129.730469 204.210938 129.667969 204 C 129.007812 204.109375 128.347656 204.21875 127.667969 204.332031 C 127.515625 204.066406 127.363281 203.796875 127.207031 203.519531 C 126.75 202.636719 126.75 202.636719 126 202.332031 C 126 202.113281 126 201.894531 126 201.667969 C 125.449219 201.558594 124.898438 201.445312 124.332031 201.332031 C 124.222656 200.785156 124.113281 200.234375 124 199.667969 C 123.78125 199.667969 123.558594 199.667969 123.332031 199.667969 C 123.222656 199.335938 123.113281 199.007812 123 198.667969 C 122.78125 198.558594 122.558594 198.445312 122.332031 198.332031 C 122.222656 198.003906 122.113281 197.671875 122 197.332031 C 121.78125 197.222656 121.558594 197.113281 121.332031 197 C 121.441406 196.558594 121.554688 196.121094 121.667969 195.667969 C 121.363281 195.585938 121.0625 195.5 120.75 195.417969 C 119.613281 194.980469 119.164062 194.523438 118.332031 193.667969 C 117.621094 193.402344 117.621094 193.402344 117 193.332031 C 117 193.113281 117 192.894531 117 192.667969 C 116.699219 192.679688 116.394531 192.695312 116.082031 192.707031 C 115.039062 192.667969 114.539062 192.535156 113.667969 192 C 113.667969 191.671875 113.667969 191.339844 113.667969 191 C 113.226562 190.890625 112.785156 190.78125 112.332031 190.667969 C 112.222656 189.898438 112.113281 189.125 112 188.332031 C 111.582031 188.285156 111.160156 188.238281 110.730469 188.1875 C 109.859375 188.085938 109.175781 187.949219 108.332031 187.667969 C 108.332031 187.335938 108.332031 187.007812 108.332031 186.667969 C 107.671875 186.445312 107.011719 186.226562 106.332031 186 C 106.332031 185.78125 106.332031 185.558594 106.332031 185.332031 C 106.144531 185.292969 105.957031 185.253906 105.761719 185.210938 C 105.515625 185.15625 105.273438 185.097656 105.019531 185.042969 C 104.65625 184.960938 104.65625 184.960938 104.28125 184.878906 C 103.667969 184.667969 103.667969 184.667969 103.332031 184 C 102.660156 183.78125 102.660156 183.78125 102 183.667969 C 102.109375 183.226562 102.21875 182.785156 102.332031 182.332031 C 101.929688 182.21875 101.929688 182.21875 101.519531 182.105469 C 101.238281 181.960938 100.957031 181.816406 100.667969 181.667969 C 100.394531 180.792969 100.394531 180.792969 100.332031 180 C 100.773438 180 101.214844 180 101.667969 180 C 101.667969 179.671875 101.667969 179.339844 101.667969 179 C 101.226562 178.890625 100.785156 178.78125 100.332031 178.667969 C 100.324219 178.378906 100.324219 178.378906 100.3125 178.082031 C 99.875 177.035156 99.195312 176.820312 98.199219 176.34375 C 97.667969 176 97.667969 176 97.332031 175 C 96.632812 174.660156 96.632812 174.660156 95.8125 174.4375 C 95.535156 174.355469 95.261719 174.269531 94.976562 174.183594 C 94.765625 174.121094 94.550781 174.0625 94.332031 174 C 94.332031 173.78125 94.332031 173.558594 94.332031 173.332031 C 93.34375 173.113281 92.351562 172.894531 91.332031 172.667969 C 91.332031 172.445312 91.332031 172.226562 91.332031 172 C 90.894531 172 90.453125 172 90 172 C 90.109375 171.339844 90.21875 170.679688 90.332031 170 C 90.003906 169.78125 89.671875 169.558594 89.332031 169.332031 C 89.105469 168.457031 89.105469 168.457031 89 167.667969 C 88.558594 167.667969 88.121094 167.667969 87.667969 167.667969 C 87.667969 167.445312 87.667969 167.226562 87.667969 167 C 87.445312 167 87.226562 167 87 167 C 87 166.671875 87 166.339844 87 166 C 86.753906 166.015625 86.503906 166.027344 86.25 166.042969 C 85.304688 166 84.804688 165.808594 84 165.332031 C 84 165.113281 84 164.894531 84 164.667969 C 83.78125 164.558594 83.558594 164.445312 83.332031 164.332031 C 83.1875 164.003906 83.1875 164.003906 83.042969 163.667969 C 82.917969 163.445312 82.792969 163.226562 82.667969 163 C 82.226562 162.878906 81.78125 162.765625 81.332031 162.667969 C 81.222656 162.335938 81.113281 162.007812 81 161.667969 C 80.070312 161.324219 80.070312 161.324219 78.980469 161.105469 C 78.425781 160.976562 78.425781 160.976562 77.863281 160.851562 C 77.578125 160.789062 77.292969 160.730469 77 160.667969 C 77 160.445312 77 160.226562 77 160 C 76.011719 159.671875 76.011719 159.671875 75 159.332031 C 74.957031 159.085938 74.917969 158.839844 74.875 158.582031 C 74.683594 157.734375 74.421875 157.089844 74 156.332031 C 73.558594 156.332031 73.121094 156.332031 72.667969 156.332031 C 72.667969 156.113281 72.667969 155.894531 72.667969 155.667969 C 72.253906 155.695312 71.839844 155.722656 71.417969 155.75 C 70.089844 155.753906 70.089844 155.753906 69.375 155.0625 C 69.140625 154.820312 68.90625 154.582031 68.667969 154.332031 C 67.8125 154.039062 66.960938 153.8125 66.082031 153.601562 C 65.332031 153.332031 65.332031 153.332031 64.667969 152.332031 C 64.226562 152.210938 63.78125 152.101562 63.332031 152 C 63.222656 151.78125 63.113281 151.558594 63 151.332031 C 62.292969 151.105469 62.292969 151.105469 61.480469 150.957031 C 61.203125 150.902344 60.929688 150.847656 60.644531 150.789062 C 60.433594 150.75 60.21875 150.707031 60 150.667969 C 60 150.335938 60 150.007812 60 149.667969 C 62.25 149.625 62.25 149.625 63 150 C 63 149.78125 63 149.558594 63 149.332031 C 62.597656 149.210938 62.597656 149.210938 62.1875 149.082031 C 61.246094 148.753906 60.320312 148.417969 59.394531 148.042969 C 59.140625 147.9375 58.882812 147.835938 58.617188 147.730469 C 58 147.332031 58 147.332031 57.703125 146.683594 C 57.667969 146 57.667969 146 58.332031 145 C 57.839844 144.671875 57.839844 144.671875 57.332031 144.332031 C 57.5 143.011719 57.5 143.011719 57.667969 141.667969 C 57.335938 141.667969 57.007812 141.667969 56.667969 141.667969 C 56.667969 141.335938 56.667969 141.007812 56.667969 140.667969 C 56.40625 140.597656 56.144531 140.527344 55.875 140.457031 C 55 140 55 140 54.5625 138.957031 C 54.488281 138.640625 54.410156 138.324219 54.332031 138 C 54.105469 137.957031 53.878906 137.917969 53.644531 137.875 C 52.523438 137.636719 51.433594 137.324219 50.332031 137 C 50.332031 136.78125 50.332031 136.558594 50.332031 136.332031 C 50.011719 136.28125 50.011719 136.28125 49.6875 136.230469 C 49.347656 136.117188 49.347656 136.117188 49 136 C 48.890625 135.671875 48.78125 135.339844 48.667969 135 C 48.171875 134.671875 48.171875 134.671875 47.667969 134.332031 C 47.667969 134.003906 47.667969 133.671875 47.667969 133.332031 C 47.273438 133.21875 47.273438 133.21875 46.875 133.105469 C 46 132.667969 46 132.667969 45.5625 131.855469 C 45.332031 131 45.332031 131 45.332031 130 C 45.003906 129.890625 44.671875 129.78125 44.332031 129.667969 C 44.222656 129.445312 44.113281 129.226562 44 129 C 43.621094 128.847656 43.242188 128.699219 42.855469 128.542969 C 41.667969 128 41.667969 128 41.1875 127.269531 C 41.125 127.070312 41.0625 126.871094 41 126.667969 C 41.21875 126.667969 41.441406 126.667969 41.667969 126.667969 C 41.445312 126.007812 41.226562 125.347656 41 124.667969 C 40.78125 124.667969 40.558594 124.667969 40.332031 124.667969 C 40.332031 124.335938 40.332031 124.007812 40.332031 123.667969 C 40.554688 123.667969 40.773438 123.667969 41 123.667969 C 41 123.445312 41 123.226562 41 123 C 40.671875 123 40.339844 123 40 123 C 39.835938 121.84375 39.835938 121.84375 39.667969 120.667969 C 39.996094 120.667969 40.328125 120.667969 40.667969 120.667969 C 40.5 120.535156 40.335938 120.40625 40.167969 120.269531 C 39.515625 119.484375 39.585938 118.996094 39.667969 118 C 39.96875 117.902344 40.273438 117.808594 40.582031 117.707031 C 41.613281 117.386719 41.613281 117.386719 42.28125 116.988281 C 43.4375 116.46875 44.628906 116.515625 45.878906 116.449219 C 46.269531 116.390625 46.269531 116.390625 46.667969 116.332031 C 46.777344 116.113281 46.886719 115.894531 47 115.667969 C 47.21875 115.542969 47.441406 115.417969 47.667969 115.292969 C 48.699219 114.324219 48.574219 113.382812 48.667969 112 C 48.171875 111.835938 48.171875 111.835938 47.667969 111.667969 C 47.667969 110.898438 47.667969 110.125 47.667969 109.332031 C 47.117188 109.222656 46.566406 109.113281 46 109 C 46 108.671875 46 108.339844 46 108 C 45.78125 108 45.558594 108 45.332031 108 C 45.332031 107.121094 45.332031 106.238281 45.332031 105.332031 C 45.113281 105.332031 44.894531 105.332031 44.667969 105.332031 C 44.414062 103.894531 44.28125 102.75 44.667969 101.332031 C 45.105469 101.332031 45.546875 101.332031 46 101.332031 C 46.109375 101.003906 46.21875 100.671875 46.332031 100.332031 C 47.542969 100.332031 48.753906 100.332031 50 100.332031 C 50 100.003906 50 99.671875 50 99.332031 C 50.21875 99.332031 50.441406 99.332031 50.667969 99.332031 C 50.667969 98.671875 50.667969 98.011719 50.667969 97.332031 C 50.996094 97.167969 50.996094 97.167969 51.332031 97 C 51.550781 95.988281 51.550781 95.988281 51.667969 95 C 53.054688 94.566406 54.214844 94.292969 55.667969 94.332031 C 55.648438 93.875 55.648438 93.875 55.632812 93.410156 C 55.621094 93.011719 55.613281 92.617188 55.605469 92.207031 C 55.59375 91.8125 55.582031 91.417969 55.570312 91.011719 C 55.601562 90.679688 55.632812 90.34375 55.667969 90 C 57.90625 88.507812 59.679688 88.136719 62.332031 88 C 62.332031 87.78125 62.332031 87.558594 62.332031 87.332031 C 63.117188 86.941406 63.605469 86.957031 64.480469 86.957031 Z M 128 203 C 128.332031 203.667969 128.332031 203.667969 128.332031 203.667969 Z M 320.667969 362.667969 C 320.886719 362.886719 321.105469 363.105469 321.332031 363.332031 C 321.664062 363.222656 321.992188 363.113281 322.332031 363 C 321.785156 362.890625 321.234375 362.78125 320.667969 362.667969 Z M 320.667969 362.667969 "/>
<path style=" stroke:none;fill-rule:nonzero;fill:rgb(92.54902%,38.431373%,85.882354%);fill-opacity:1;" d="M 370.332031 23 C 371.113281 22.894531 371.890625 22.785156 372.667969 22.667969 C 372.996094 22.777344 373.328125 22.886719 373.667969 23 C 373.996094 23 374.328125 23 374.667969 23 C 374.558594 23.441406 374.445312 23.878906 374.332031 24.332031 C 374.554688 24.441406 374.773438 24.554688 375 24.667969 C 374.890625 25.214844 374.78125 25.765625 374.667969 26.332031 C 374.445312 26.332031 374.226562 26.332031 374 26.332031 C 374 26.773438 374 27.214844 374 27.667969 C 374.328125 27.777344 374.660156 27.886719 375 28 C 375 28.441406 375 28.878906 375 29.332031 C 375.660156 29.441406 376.320312 29.554688 377 29.667969 C 377 30.105469 377 30.546875 377 31 C 377.21875 31 377.441406 31 377.667969 31 C 377.667969 31.441406 377.667969 31.878906 377.667969 32.332031 C 378.105469 32.332031 378.546875 32.332031 379 32.332031 C 379.109375 32.773438 379.21875 33.214844 379.332031 33.667969 C 379.664062 33.667969 379.992188 33.667969 380.332031 33.667969 C 380.554688 33.667969 380.773438 33.667969 381 33.667969 C 381 34.214844 381 34.765625 381 35.332031 C 381.328125 35.332031 381.660156 35.332031 382 35.332031 C 382 35.664062 382 35.992188 382 36.332031 C 382.21875 36.441406 382.441406 36.554688 382.667969 36.667969 C 382.777344 36.996094 382.886719 37.328125 383 37.667969 C 383.21875 37.777344 383.441406 37.886719 383.667969 38 C 383.667969 38.21875 383.667969 38.441406 383.667969 38.667969 C 383.445312 38.667969 383.226562 38.667969 383 38.667969 C 383 38.886719 383 39.105469 383 39.332031 C 383.21875 39.332031 383.441406 39.332031 383.667969 39.332031 C 383.667969 39.554688 383.667969 39.773438 383.667969 40 C 383.445312 40 383.226562 40 383 40 C 383.109375 40.21875 383.21875 40.441406 383.332031 40.667969 C 383.664062 40.445312 383.992188 40.226562 384.332031 40 C 385.160156 39.933594 385.160156 39.933594 386.0625 39.957031 C 386.511719 39.96875 386.511719 39.96875 386.972656 39.976562 C 387.316406 39.988281 387.316406 39.988281 387.667969 40 C 387.628906 40.535156 387.585938 41.070312 387.542969 41.605469 C 387.507812 42.050781 387.507812 42.050781 387.472656 42.507812 C 387.332031 43.332031 387.332031 43.332031 386.667969 44.332031 C 386.445312 44.332031 386.226562 44.332031 386 44.332031 C 385.96875 44.527344 385.9375 44.71875 385.902344 44.917969 C 385.617188 45.828125 385.195312 46.269531 384.542969 46.957031 C 383.558594 48.035156 382.902344 48.996094 382.332031 50.332031 C 382.113281 50.332031 381.894531 50.332031 381.667969 50.332031 C 381.582031 50.578125 381.496094 50.820312 381.40625 51.070312 C 380.980469 52.042969 380.484375 52.726562 379.8125 53.542969 C 379.109375 54.398438 378.6875 54.9375 378.332031 56 C 378.554688 56.191406 378.773438 56.386719 379 56.582031 C 379.667969 57.332031 379.667969 57.332031 379.667969 58.667969 C 379.996094 58.667969 380.328125 58.667969 380.667969 58.667969 C 380.667969 58.886719 380.667969 59.105469 380.667969 59.332031 C 380.335938 59.332031 380.007812 59.332031 379.667969 59.332031 C 379.558594 59.664062 379.445312 59.992188 379.332031 60.332031 C 379.113281 60.332031 378.894531 60.332031 378.667969 60.332031 C 378.625 60.546875 378.585938 60.757812 378.542969 60.976562 C 378.488281 61.253906 378.433594 61.527344 378.375 61.8125 C 378.320312 62.085938 378.265625 62.363281 378.210938 62.644531 C 378.140625 62.871094 378.070312 63.097656 378 63.332031 C 377.78125 63.441406 377.558594 63.554688 377.332031 63.667969 C 377.03125 64.292969 377.03125 64.292969 376.792969 65.019531 C 376.660156 65.386719 376.660156 65.386719 376.527344 65.761719 C 376.464844 65.949219 376.398438 66.140625 376.332031 66.332031 C 376.113281 66.332031 375.894531 66.332031 375.667969 66.332031 C 375.613281 66.640625 375.613281 66.640625 375.554688 66.953125 C 375.503906 67.222656 375.449219 67.492188 375.394531 67.769531 C 375.320312 68.171875 375.320312 68.171875 375.242188 68.578125 C 374.976562 69.410156 374.660156 69.773438 374 70.332031 C 373.449219 70.113281 372.898438 69.894531 372.332031 69.667969 C 372.105469 70.21875 371.882812 70.777344 371.667969 71.332031 C 371.550781 71.617188 371.433594 71.902344 371.3125 72.195312 C 370.910156 73.660156 370.917969 75.003906 370.933594 76.519531 C 370.9375 76.820312 370.9375 77.121094 370.9375 77.429688 C 370.941406 78.382812 370.949219 79.335938 370.957031 80.292969 C 370.960938 80.941406 370.964844 81.589844 370.96875 82.238281 C 370.976562 83.828125 370.984375 85.414062 371 87 C 370.78125 87 370.558594 87 370.332031 87 C 370.113281 87.441406 369.894531 87.878906 369.667969 88.332031 C 369.445312 88.332031 369.226562 88.332031 369 88.332031 C 368.890625 88.882812 368.78125 89.433594 368.667969 90 C 368.445312 90 368.226562 90 368 90 C 367.980469 90.207031 367.957031 90.414062 367.9375 90.625 C 367.667969 91.332031 367.667969 91.332031 366.8125 91.75 C 366.542969 91.832031 366.277344 91.914062 366 92 C 366 92.21875 366 92.441406 366 92.667969 C 365.449219 92.886719 364.898438 93.105469 364.332031 93.332031 C 364.332031 93.664062 364.332031 93.992188 364.332031 94.332031 C 363.785156 94.554688 363.234375 94.773438 362.667969 95 C 362.667969 95.328125 362.667969 95.660156 362.667969 96 C 362.445312 96 362.226562 96 362 96 C 362 96.328125 362 96.660156 362 97 C 361.449219 97.109375 360.898438 97.21875 360.332031 97.332031 C 360.222656 97.773438 360.113281 98.214844 360 98.667969 C 359.636719 98.734375 359.269531 98.804688 358.894531 98.875 C 357.597656 99.210938 357.597656 99.210938 357.105469 100.3125 C 356.960938 100.648438 356.816406 100.984375 356.667969 101.332031 C 356.234375 101.679688 355.789062 102.019531 355.332031 102.332031 C 355.332031 102.554688 355.332031 102.773438 355.332031 103 C 355.023438 103.042969 354.714844 103.082031 354.394531 103.125 C 353.292969 103.546875 353.292969 103.546875 353 104.40625 C 352.835938 104.988281 352.683594 105.574219 352.546875 106.164062 C 352.238281 107.363281 351.9375 108.117188 350.957031 108.894531 C 349.726562 109.457031 348.683594 109.550781 347.332031 109.667969 C 347.304688 109.921875 347.277344 110.175781 347.25 110.4375 C 346.941406 111.539062 346.640625 111.765625 345.667969 112.332031 C 345.371094 112.449219 345.074219 112.566406 344.769531 112.6875 C 343.945312 112.921875 343.945312 112.921875 343.667969 113.667969 C 343.335938 113.667969 343.007812 113.667969 342.667969 113.667969 C 342.667969 113.996094 342.667969 114.328125 342.667969 114.667969 C 342.125 115.234375 341.570312 115.792969 341 116.332031 C 340.890625 116.554688 340.78125 116.773438 340.667969 117 C 340.335938 117 340.007812 117 339.667969 117 C 339.667969 117.21875 339.667969 117.441406 339.667969 117.667969 C 339.445312 117.886719 339.226562 118.105469 339 118.332031 C 338.558594 118.332031 338.121094 118.332031 337.667969 118.332031 C 337.667969 118.664062 337.667969 118.992188 337.667969 119.332031 C 336.542969 119.832031 335.933594 120 334.667969 120 C 334.667969 120.328125 334.667969 120.660156 334.667969 121 C 334.335938 121 334.007812 121 333.667969 121 C 333.667969 121.21875 333.667969 121.441406 333.667969 121.667969 C 333.445312 121.667969 333.226562 121.667969 333 121.667969 C 333 121.886719 333 122.105469 333 122.332031 C 332.671875 122.332031 332.339844 122.332031 332 122.332031 C 331.980469 122.574219 331.957031 122.816406 331.9375 123.0625 C 331.578125 124.300781 330.96875 124.835938 330 125.667969 C 329.671875 125.777344 329.339844 125.886719 329 126 C 329 126.441406 329 126.878906 329 127.332031 C 328.628906 127.46875 328.628906 127.46875 328.25 127.605469 C 327.355469 127.988281 326.710938 128.339844 326 129 C 325.734375 129.699219 325.734375 129.699219 325.667969 130.332031 C 325.226562 130.332031 324.785156 130.332031 324.332031 130.332031 C 324.332031 130.664062 324.332031 130.992188 324.332031 131.332031 C 324.113281 131.332031 323.894531 131.332031 323.667969 131.332031 C 323.558594 131.773438 323.445312 132.214844 323.332031 132.667969 C 322.988281 132.730469 322.644531 132.789062 322.292969 132.855469 C 320.378906 133.394531 319.453125 134.96875 318.417969 136.5625 C 317.996094 137.316406 317.996094 137.316406 317.6875 138.0625 C 317.234375 138.835938 316.832031 139.03125 316 139.332031 C 315.671875 139.332031 315.339844 139.332031 315 139.332031 C 314.890625 139.664062 314.78125 139.992188 314.667969 140.332031 C 314.226562 140.566406 313.78125 140.789062 313.332031 141 C 313.105469 141.257812 313.105469 141.257812 312.875 141.519531 C 312.097656 142.207031 311.339844 142.222656 310.332031 142.332031 C 310.222656 142.664062 310.113281 142.992188 310 143.332031 C 309.78125 143.332031 309.558594 143.332031 309.332031 143.332031 C 309.332031 143.773438 309.332031 144.214844 309.332031 144.667969 C 308.960938 144.789062 308.960938 144.789062 308.582031 144.917969 C 307.640625 145.28125 307.640625 145.28125 307 146 C 306.25 146.75 305.652344 146.972656 304.667969 147.332031 C 303.75 147.695312 303.75 147.695312 303 148.332031 C 302.84375 148.902344 302.84375 148.902344 302.6875 149.480469 C 302.332031 150.667969 302.332031 150.667969 301.332031 151.480469 C 300.332031 152 300.332031 152 299.667969 152 C 299.644531 152.445312 299.644531 152.445312 299.625 152.894531 C 299.238281 154.355469 298.515625 154.773438 297.332031 155.667969 C 297.113281 155.996094 296.894531 156.328125 296.667969 156.667969 C 296.445312 156.667969 296.226562 156.667969 296 156.667969 C 295.492188 157.644531 295.066406 158.640625 294.667969 159.667969 C 294.445312 159.667969 294.226562 159.667969 294 159.667969 C 293.957031 159.945312 293.957031 159.945312 293.914062 160.230469 C 293.542969 162.230469 292.847656 163.679688 291.667969 165.332031 C 291.335938 165.222656 291.007812 165.113281 290.667969 165 C 290.667969 164.78125 290.667969 164.558594 290.667969 164.332031 C 290.445312 164.332031 290.226562 164.332031 290 164.332031 C 289.9375 164.53125 289.875 164.730469 289.8125 164.9375 C 288.984375 166.195312 287.589844 166.5 286.1875 166.894531 C 286.015625 166.929688 285.84375 166.964844 285.667969 167 C 285.613281 167.269531 285.613281 167.269531 285.5625 167.542969 C 285.273438 168.542969 284.816406 169.414062 284.332031 170.332031 C 284.113281 170.332031 283.894531 170.332031 283.667969 170.332031 C 283.558594 170.773438 283.445312 171.214844 283.332031 171.667969 C 282.5625 171.667969 281.792969 171.667969 281 171.667969 C 280.910156 171.878906 280.820312 172.09375 280.730469 172.3125 C 280.332031 173 280.332031 173 279.332031 173.332031 C 279.113281 173.664062 278.894531 173.992188 278.667969 174.332031 C 278.226562 174.332031 277.785156 174.332031 277.332031 174.332031 C 277.222656 174.773438 277.113281 175.214844 277 175.667969 C 276.558594 175.667969 276.121094 175.667969 275.667969 175.667969 C 275.667969 175.886719 275.667969 176.105469 275.667969 176.332031 C 275.335938 176.332031 275.007812 176.332031 274.667969 176.332031 C 274.667969 176.554688 274.667969 176.773438 274.667969 177 C 274.253906 177.0625 273.839844 177.125 273.417969 177.1875 C 272.566406 177.394531 272.125 177.515625 271.5625 178.195312 C 271.242188 178.785156 270.953125 179.394531 270.667969 180 C 270.167969 180.644531 270.167969 180.644531 269.667969 181 C 269.226562 181 268.785156 181 268.332031 181 C 268.332031 181.21875 268.332031 181.441406 268.332031 181.667969 C 267.375 182.808594 266.371094 183.429688 265 184 C 264.558594 184 264.121094 184 263.667969 184 C 263.558594 184.441406 263.445312 184.878906 263.332031 185.332031 C 263.113281 185.332031 262.894531 185.332031 262.667969 185.332031 C 262.667969 185.664062 262.667969 185.992188 262.667969 186.332031 C 262.285156 186.46875 262.285156 186.46875 261.894531 186.605469 C 260.515625 187.214844 260.113281 187.792969 259.375 189.125 C 258.285156 191.078125 257.152344 192.03125 255 192.667969 C 254.890625 192.886719 254.78125 193.105469 254.667969 193.332031 C 254.335938 193.222656 254.007812 193.113281 253.667969 193 C 253.558594 192.78125 253.445312 192.558594 253.332031 192.332031 C 253.078125 192.664062 252.824219 192.992188 252.5625 193.332031 C 252.128906 193.894531 252.128906 193.894531 251.667969 194.332031 C 251.335938 194.332031 251.007812 194.332031 250.667969 194.332031 C 250.667969 194.113281 250.667969 193.894531 250.667969 193.667969 C 250.355469 193.949219 250.046875 194.230469 249.730469 194.519531 C 249.203125 195 249.203125 195 248.667969 195.332031 C 248.335938 195.222656 248.007812 195.113281 247.667969 195 C 247.667969 194.78125 247.667969 194.558594 247.667969 194.332031 C 247.445312 194.332031 247.226562 194.332031 247 194.332031 C 247 194.554688 247 194.773438 247 195 C 246.011719 195 245.019531 195 244 195 C 244 194.78125 244 194.558594 244 194.332031 C 243.78125 194.332031 243.558594 194.332031 243.332031 194.332031 C 243.332031 194.554688 243.332031 194.773438 243.332031 195 C 243.113281 195 242.894531 195 242.667969 195 C 242.625 194.621094 242.585938 194.242188 242.542969 193.855469 C 242.472656 193.460938 242.402344 193.070312 242.332031 192.667969 C 242.113281 192.558594 241.894531 192.445312 241.667969 192.332031 C 241.777344 191.894531 241.886719 191.453125 242 191 C 242.21875 191 242.441406 191 242.667969 191 C 242.558594 190.558594 242.445312 190.121094 242.332031 189.667969 C 242.113281 189.667969 241.894531 189.667969 241.667969 189.667969 C 241.667969 188.898438 241.667969 188.125 241.667969 187.332031 C 241.117188 187.332031 240.566406 187.332031 240 187.332031 C 239.835938 186.839844 239.835938 186.839844 239.667969 186.332031 C 239.355469 186.394531 239.046875 186.457031 238.730469 186.519531 C 237.667969 186.667969 237.667969 186.667969 236.667969 186.332031 C 236.839844 185.414062 237.035156 184.558594 237.332031 183.667969 C 236.894531 183.667969 236.453125 183.667969 236 183.667969 C 236 183 236 183 236.667969 182.332031 C 236.191406 182.582031 236.191406 182.582031 235.707031 182.832031 C 234.667969 183.332031 234.667969 183.332031 234 183.332031 C 233.835938 182.839844 233.835938 182.839844 233.667969 182.332031 C 233.335938 182.332031 233.007812 182.332031 232.667969 182.332031 C 232.667969 182.113281 232.667969 181.894531 232.667969 181.667969 C 232.015625 181.308594 232.015625 181.308594 231.3125 181.1875 C 231.097656 181.125 230.886719 181.0625 230.667969 181 C 230.558594 180.78125 230.445312 180.558594 230.332031 180.332031 C 230.078125 180.386719 229.824219 180.441406 229.5625 180.5 C 228.667969 180.667969 228.667969 180.667969 227.667969 180.667969 C 227.667969 180.445312 227.667969 180.226562 227.667969 180 C 227.445312 180 227.226562 180 227 180 C 227 179.78125 227 179.558594 227 179.332031 C 226.449219 179.332031 225.898438 179.332031 225.332031 179.332031 C 225.222656 178.671875 225.113281 178.011719 225 177.332031 C 224.671875 177.332031 224.339844 177.332031 224 177.332031 C 223.933594 177.101562 223.863281 176.867188 223.792969 176.628906 C 223.703125 176.324219 223.613281 176.019531 223.519531 175.707031 C 223.433594 175.40625 223.34375 175.105469 223.25 174.792969 C 223.023438 174.003906 223.023438 174.003906 222.667969 173.332031 C 221.992188 173.117188 221.992188 173.117188 221.332031 173 C 221.332031 172.78125 221.332031 172.558594 221.332031 172.332031 C 221.113281 172.222656 220.894531 172.113281 220.667969 172 C 220.558594 171.449219 220.445312 170.898438 220.332031 170.332031 C 219.011719 170.113281 217.691406 169.894531 216.332031 169.667969 C 216.332031 169.445312 216.332031 169.226562 216.332031 169 C 216.136719 168.988281 215.9375 168.976562 215.734375 168.960938 C 212.875 168.722656 212.875 168.722656 211.667969 167.667969 C 211.394531 166.769531 211.394531 166.769531 211.332031 166 C 211.003906 166 210.671875 166 210.332031 166 C 210.441406 165.339844 210.554688 164.679688 210.667969 164 C 210.445312 163.890625 210.226562 163.78125 210 163.667969 C 210 162.675781 210 161.6875 210 160.667969 C 209.671875 160.558594 209.339844 160.445312 209 160.332031 C 209 160.113281 209 159.894531 209 159.667969 C 209.660156 159.558594 210.320312 159.445312 211 159.332031 C 210.84375 158.953125 210.84375 158.953125 210.6875 158.5625 C 210.441406 157.9375 210.210938 157.304688 210 156.667969 C 209.671875 156.667969 209.339844 156.667969 209 156.667969 C 209 156.335938 209 156.007812 209 155.667969 C 209.328125 155.445312 209.660156 155.226562 210 155 C 210 154.671875 210 154.339844 210 154 C 210.210938 153.964844 210.425781 153.925781 210.644531 153.890625 C 211.058594 153.808594 211.058594 153.808594 211.480469 153.730469 C 211.753906 153.679688 212.027344 153.628906 212.3125 153.578125 C 212.539062 153.496094 212.765625 153.417969 213 153.332031 C 213.109375 153.003906 213.21875 152.671875 213.332031 152.332031 C 214.355469 151.9375 214.355469 151.9375 215.332031 151.667969 C 215.332031 151.335938 215.332031 151.007812 215.332031 150.667969 C 215.554688 150.667969 215.773438 150.667969 216 150.667969 C 216 149.347656 216 148.027344 216 146.667969 C 216.988281 146.445312 217.980469 146.226562 219 146 C 219 145.78125 219 145.558594 219 145.332031 C 219.441406 145.113281 219.878906 144.894531 220.332031 144.667969 C 220.332031 144.445312 220.332031 144.226562 220.332031 144 C 220.730469 141.484375 221.59375 139.445312 223 137.332031 C 222.828125 137.214844 222.65625 137.097656 222.480469 136.980469 C 222 136.332031 222 136.332031 222.105469 135.144531 C 222.179688 134.769531 222.253906 134.390625 222.332031 134 C 222.332031 133.78125 222.332031 133.558594 222.332031 133.332031 C 222.332031 132.894531 222.332031 132.453125 222.332031 132 C 222.554688 132 222.773438 132 223 132 C 223 132.21875 223 132.441406 223 132.667969 C 223.660156 132.558594 224.320312 132.445312 225 132.332031 C 224.671875 132.113281 224.339844 131.894531 224 131.667969 C 224 131.445312 224 131.226562 224 131 C 225.101562 131 226.199219 131 227.332031 131 C 227.003906 130.339844 227.003906 130.339844 226.667969 129.667969 C 227.105469 129.777344 227.546875 129.886719 228 130 C 228.109375 129.558594 228.21875 129.121094 228.332031 128.667969 C 228.773438 128.667969 229.214844 128.667969 229.667969 128.667969 C 229.667969 128.445312 229.667969 128.226562 229.667969 128 C 230.546875 128 231.425781 128 232.332031 128 C 232.332031 127.78125 232.332031 127.558594 232.332031 127.332031 C 232.917969 127.082031 232.917969 127.082031 233.667969 127 C 234.417969 127.644531 234.417969 127.644531 235 128.332031 C 235.496094 128.136719 235.988281 127.933594 236.480469 127.730469 C 236.753906 127.617188 237.027344 127.503906 237.3125 127.390625 C 238.109375 127.039062 238.109375 127.039062 238.332031 126 C 239.09375 125.695312 239.859375 125.515625 240.65625 125.3125 C 240.992188 125.160156 240.992188 125.160156 241.332031 125 C 241.539062 124.328125 241.539062 124.328125 241.667969 123.667969 C 241.996094 123.558594 242.328125 123.445312 242.667969 123.332031 C 242.667969 122.785156 242.667969 122.234375 242.667969 121.667969 C 243.214844 121.558594 243.765625 121.445312 244.332031 121.332031 C 244.554688 120.671875 244.773438 120.011719 245 119.332031 C 245.328125 119.332031 245.660156 119.332031 246 119.332031 C 246 119.113281 246 118.894531 246 118.667969 C 246.328125 118.667969 246.660156 118.667969 247 118.667969 C 247 118.445312 247 118.226562 247 118 C 247.21875 117.890625 247.441406 117.78125 247.667969 117.667969 C 247.667969 117.445312 247.667969 117.226562 247.667969 117 C 248.105469 116.890625 248.546875 116.78125 249 116.667969 C 249 116.335938 249 116.007812 249 115.667969 C 249.550781 115.667969 250.101562 115.667969 250.667969 115.667969 C 250.667969 115.445312 250.667969 115.226562 250.667969 115 C 250.886719 114.890625 251.105469 114.78125 251.332031 114.667969 C 251.222656 114.226562 251.113281 113.785156 251 113.332031 C 251.769531 113.332031 252.539062 113.332031 253.332031 113.332031 C 253.441406 112.5625 253.554688 111.792969 253.667969 111 C 254.546875 110.78125 255.425781 110.558594 256.332031 110.332031 C 256.332031 110.113281 256.332031 109.894531 256.332031 109.667969 C 256.003906 109.667969 255.671875 109.667969 255.332031 109.667969 C 255.332031 109.445312 255.332031 109.226562 255.332031 109 C 255.664062 109 255.992188 109 256.332031 109 C 256.332031 108.78125 256.332031 108.558594 256.332031 108.332031 C 257.324219 108.222656 258.3125 108.113281 259.332031 108 C 259.332031 107.558594 259.332031 107.121094 259.332031 106.667969 C 259.003906 106.667969 258.671875 106.667969 258.332031 106.667969 C 258.332031 106.445312 258.332031 106.226562 258.332031 106 C 258.992188 106 259.652344 106 260.332031 106 C 260.332031 105.78125 260.332031 105.558594 260.332031 105.332031 C 260.664062 105.222656 260.992188 105.113281 261.332031 105 C 261.332031 104.78125 261.332031 104.558594 261.332031 104.332031 C 261.523438 104.257812 261.710938 104.179688 261.90625 104.101562 C 262.644531 103.773438 263.324219 103.445312 264 103 C 264.375 102.128906 264.375 102.128906 264.332031 101.332031 C 265.101562 101.222656 265.875 101.113281 266.667969 101 C 266.777344 100.671875 266.886719 100.339844 267 100 C 267.21875 100 267.441406 100 267.667969 100 C 267.695312 99.738281 267.722656 99.476562 267.75 99.207031 C 268 98.332031 268 98.332031 268.6875 97.894531 C 268.902344 97.820312 269.113281 97.746094 269.332031 97.667969 C 269.332031 97.445312 269.332031 97.226562 269.332031 97 C 269.554688 96.890625 269.773438 96.78125 270 96.667969 C 269.890625 96.335938 269.78125 96.007812 269.667969 95.667969 C 270.546875 95.558594 271.425781 95.445312 272.332031 95.332031 C 272.332031 95.113281 272.332031 94.894531 272.332031 94.667969 C 272.003906 94.445312 271.671875 94.226562 271.332031 94 C 271.332031 93.558594 271.332031 93.121094 271.332031 92.667969 C 271.113281 92.667969 270.894531 92.667969 270.667969 92.667969 C 270.667969 92.335938 270.667969 92.007812 270.667969 91.667969 C 271.667969 91 271.667969 91 272.667969 91 C 272.558594 90.339844 272.445312 89.679688 272.332031 89 C 272.773438 88.890625 273.214844 88.78125 273.667969 88.667969 C 273.667969 88.226562 273.667969 87.785156 273.667969 87.332031 C 274.328125 87.441406 274.988281 87.554688 275.667969 87.667969 C 275.558594 87.117188 275.445312 86.566406 275.332031 86 C 277.296875 85.34375 279.324219 85.160156 281.371094 84.917969 C 282.59375 84.769531 283.796875 84.597656 285 84.332031 C 285.109375 83.894531 285.21875 83.453125 285.332031 83 C 285.554688 83 285.773438 83 286 83 C 286.21875 82.558594 286.441406 82.121094 286.667969 81.667969 C 287.105469 81.886719 287.546875 82.105469 288 82.332031 C 288 82.113281 288 81.894531 288 81.667969 C 287.78125 81.667969 287.558594 81.667969 287.332031 81.667969 C 287.441406 81.335938 287.554688 81.007812 287.667969 80.667969 C 287.996094 80.667969 288.328125 80.667969 288.667969 80.667969 C 288.777344 80.335938 288.886719 80.007812 289 79.667969 C 289.328125 79.667969 289.660156 79.667969 290 79.667969 C 290 79.226562 290 78.785156 290 78.332031 C 290.21875 78.332031 290.441406 78.332031 290.667969 78.332031 C 290.667969 78.113281 290.667969 77.894531 290.667969 77.667969 C 290.878906 77.507812 291.09375 77.351562 291.3125 77.1875 C 292.09375 76.695312 292.09375 76.695312 292.332031 75.667969 C 292.773438 75.667969 293.214844 75.667969 293.667969 75.667969 C 293.667969 75.445312 293.667969 75.226562 293.667969 75 C 293.996094 75 294.328125 75 294.667969 75 C 294.777344 74.449219 294.886719 73.898438 295 73.332031 C 295.328125 73.332031 295.660156 73.332031 296 73.332031 C 296 73.113281 296 72.894531 296 72.667969 C 297 72 297 72 298 72 C 298 71.671875 298 71.339844 298 71 C 298.484375 70.855469 298.484375 70.855469 298.980469 70.707031 C 300.035156 70.453125 300.035156 70.453125 300.332031 69.667969 C 300.554688 69.667969 300.773438 69.667969 301 69.667969 C 301 69.007812 301 68.347656 301 67.667969 C 301.769531 67.667969 302.539062 67.667969 303.332031 67.667969 C 303.359375 67.472656 303.386719 67.28125 303.417969 67.082031 C 303.746094 66.09375 304.203125 65.664062 305 65 C 305.296875 64.882812 305.589844 64.765625 305.894531 64.644531 C 306.148438 64.542969 306.40625 64.441406 306.667969 64.332031 C 306.777344 64.003906 306.886719 63.671875 307 63.332031 C 307.441406 63.332031 307.878906 63.332031 308.332031 63.332031 C 308.332031 62.785156 308.332031 62.234375 308.332031 61.667969 C 308.882812 61.558594 309.433594 61.445312 310 61.332031 C 310 61.003906 310 60.671875 310 60.332031 C 311.15625 60.003906 311.15625 60.003906 312.332031 59.667969 C 312.441406 59.007812 312.554688 58.347656 312.667969 57.667969 C 313.328125 57.445312 313.988281 57.226562 314.667969 57 C 314.667969 56.78125 314.667969 56.558594 314.667969 56.332031 C 314.996094 56.332031 315.328125 56.332031 315.667969 56.332031 C 315.667969 56.003906 315.667969 55.671875 315.667969 55.332031 C 315.996094 55.332031 316.328125 55.332031 316.667969 55.332031 C 316.667969 55.113281 316.667969 54.894531 316.667969 54.667969 C 316.886719 54.667969 317.105469 54.667969 317.332031 54.667969 C 317.332031 54.226562 317.332031 53.785156 317.332031 53.332031 C 317.65625 53.238281 317.980469 53.140625 318.3125 53.042969 C 319.367188 52.785156 319.367188 52.785156 319.667969 52 C 320.5 51.714844 320.5 51.714844 321.519531 51.457031 C 322.027344 51.328125 322.027344 51.328125 322.542969 51.195312 C 322.804688 51.128906 323.066406 51.066406 323.332031 51 C 323.332031 50.78125 323.332031 50.558594 323.332031 50.332031 C 324.488281 50.167969 324.488281 50.167969 325.667969 50 C 325.6875 49.757812 325.707031 49.519531 325.730469 49.269531 C 326.101562 47.976562 326.578125 47.453125 327.667969 46.667969 C 328.628906 46.625 329.378906 46.789062 330.332031 47 C 330.382812 46.792969 330.429688 46.585938 330.480469 46.375 C 330.667969 45.667969 330.667969 45.667969 331 45 C 331.21875 45 331.441406 45 331.667969 45 C 331.777344 44.671875 331.886719 44.339844 332 44 C 332.480469 43.4375 332.480469 43.4375 333 43 C 333.21875 43 333.441406 43 333.667969 43 C 333.777344 43.21875 333.886719 43.441406 334 43.667969 C 334.21875 43.667969 334.441406 43.667969 334.667969 43.667969 C 334.777344 43.335938 334.886719 43.007812 335 42.667969 C 335.773438 42.433594 336.550781 42.210938 337.332031 42 C 337.441406 41.78125 337.554688 41.558594 337.667969 41.332031 C 338.109375 41.109375 338.554688 40.890625 339 40.667969 C 339.109375 40.445312 339.21875 40.226562 339.332031 40 C 340.101562 39.800781 340.871094 39.679688 341.65625 39.554688 C 341.878906 39.480469 342.101562 39.40625 342.332031 39.332031 C 342.441406 39.003906 342.554688 38.671875 342.667969 38.332031 C 343.21875 38.105469 343.777344 37.882812 344.332031 37.667969 C 344.554688 37.335938 344.773438 37.007812 345 36.667969 C 345.554688 36.554688 346.109375 36.445312 346.667969 36.332031 C 346.886719 36.003906 347.105469 35.671875 347.332031 35.332031 C 348.054688 35.164062 348.054688 35.164062 348.875 35.105469 C 349.148438 35.082031 349.417969 35.058594 349.699219 35.039062 C 349.910156 35.023438 350.117188 35.011719 350.332031 35 C 350.441406 35.21875 350.554688 35.441406 350.667969 35.667969 C 350.886719 35.667969 351.105469 35.667969 351.332031 35.667969 C 351.441406 35.117188 351.554688 34.566406 351.667969 34 C 351.886719 34 352.105469 34 352.332031 34 C 352.441406 33.449219 352.554688 32.898438 352.667969 32.332031 C 353.039062 32.261719 353.039062 32.261719 353.417969 32.1875 C 353.71875 32.125 354.023438 32.0625 354.332031 32 C 354.703125 31.929688 354.703125 31.929688 355.082031 31.855469 C 355.277344 31.792969 355.46875 31.730469 355.667969 31.667969 C 355.777344 31.445312 355.886719 31.226562 356 31 C 356.316406 30.964844 356.632812 30.929688 356.957031 30.894531 C 358.050781 30.78125 358.050781 30.78125 358.519531 29.894531 C 358.757812 29.453125 358.757812 29.453125 359 29 C 360.441406 27.667969 360.441406 27.667969 361.667969 27.667969 C 362.109375 27.121094 362.109375 27.121094 362.480469 26.417969 C 363.75 24.296875 364.757812 23.476562 367.160156 22.820312 C 368.277344 22.617188 369.222656 22.789062 370.332031 23 Z M 285 84.332031 C 285 84.554688 285 84.773438 285 85 C 285.21875 84.890625 285.441406 84.78125 285.667969 84.667969 C 285.445312 84.558594 285.226562 84.445312 285 84.332031 Z M 251 192.332031 C 251.332031 193 251.332031 193 251.332031 193 Z M 251 192.332031 "/>
<path style=" stroke:none;fill-rule:nonzero;fill:rgb(92.941177%,38.82353%,85.882354%);fill-opacity:1;" d="M 243 310 C 244 310.605469 244 310.605469 245 311.332031 C 245 311.664062 245 311.992188 245 312.332031 C 244.449219 312.222656 243.898438 312.113281 243.332031 312 C 243.332031 311.78125 243.332031 311.558594 243.332031 311.332031 C 243.113281 311.332031 242.894531 311.332031 242.667969 311.332031 C 242.777344 310.894531 242.886719 310.453125 243 310 Z M 243 310 "/>
<path style=" stroke:none;fill-rule:nonzero;fill:rgb(92.941177%,38.82353%,85.882354%);fill-opacity:1;" d="M 174.667969 311 C 175.332031 311.332031 176 311.667969 176.667969 312 C 176.667969 312.21875 176.667969 312.441406 176.667969 312.667969 C 176.042969 312.582031 176.042969 312.582031 175.332031 312.332031 C 174.917969 311.644531 174.917969 311.644531 174.667969 311 Z M 174.667969 311 "/>
<path style=" stroke:none;fill-rule:nonzero;fill:rgb(92.941177%,38.82353%,85.882354%);fill-opacity:1;" d="M 163.332031 311.332031 C 163.992188 311.664062 163.992188 311.664062 164.667969 312 C 164.226562 312 163.785156 312 163.332031 312 C 163.332031 311.78125 163.332031 311.558594 163.332031 311.332031 Z M 163.332031 311.332031 "/>
<path style=" stroke:none;fill-rule:nonzero;fill:rgb(92.941177%,38.431373%,85.882354%);fill-opacity:1;" d="M 362.667969 359.332031 C 362.886719 359.332031 363.105469 359.332031 363.332031 359.332031 C 363.332031 359.554688 363.332031 359.773438 363.332031 360 C 363.113281 360 362.894531 360 362.667969 360 C 362.667969 359.78125 362.667969 359.558594 362.667969 359.332031 Z M 362.667969 359.332031 "/>
</g>
</svg>
